G04 EAGLE Gerber RS-274X export*
G75*
%MOMM*%
%FSLAX34Y34*%
%LPD*%
%INBottom Copper*%
%IPPOS*%
%AMOC8*
5,1,8,0,0,1.08239X$1,22.5*%
G01*
%ADD10R,2.235000X1.219000*%
%ADD11R,2.200000X3.600000*%
%ADD12C,2.000000*%
%ADD13C,1.879600*%
%ADD14C,1.524000*%
%ADD15R,1.651000X1.651000*%
%ADD16C,1.651000*%
%ADD17C,0.304800*%
%ADD18C,0.508000*%
%ADD19C,0.756400*%
%ADD20C,0.381000*%

G36*
X558073Y10926D02*
X558073Y10926D01*
X558107Y10924D01*
X558296Y10946D01*
X558487Y10963D01*
X558520Y10972D01*
X558554Y10976D01*
X558737Y11031D01*
X558921Y11081D01*
X558952Y11096D01*
X558985Y11106D01*
X559156Y11193D01*
X559328Y11275D01*
X559356Y11295D01*
X559387Y11310D01*
X559539Y11426D01*
X559694Y11537D01*
X559718Y11562D01*
X559745Y11582D01*
X559874Y11722D01*
X560008Y11859D01*
X560027Y11888D01*
X560051Y11914D01*
X560153Y12075D01*
X560260Y12232D01*
X560274Y12264D01*
X560292Y12293D01*
X560365Y12470D01*
X560442Y12644D01*
X560450Y12678D01*
X560463Y12710D01*
X560503Y12897D01*
X560549Y13082D01*
X560551Y13116D01*
X560558Y13150D01*
X560577Y13462D01*
X560577Y583438D01*
X560574Y583473D01*
X560576Y583507D01*
X560554Y583696D01*
X560537Y583887D01*
X560528Y583920D01*
X560524Y583954D01*
X560469Y584137D01*
X560419Y584321D01*
X560404Y584352D01*
X560394Y584385D01*
X560307Y584556D01*
X560225Y584728D01*
X560205Y584756D01*
X560190Y584787D01*
X560074Y584939D01*
X559963Y585094D01*
X559938Y585118D01*
X559918Y585145D01*
X559778Y585274D01*
X559641Y585408D01*
X559612Y585427D01*
X559586Y585451D01*
X559425Y585553D01*
X559268Y585660D01*
X559236Y585674D01*
X559207Y585692D01*
X559030Y585765D01*
X558856Y585842D01*
X558822Y585850D01*
X558790Y585863D01*
X558603Y585903D01*
X558418Y585949D01*
X558384Y585951D01*
X558350Y585958D01*
X558038Y585977D01*
X110265Y585977D01*
X110135Y585966D01*
X110005Y585964D01*
X109911Y585946D01*
X109816Y585937D01*
X109691Y585903D01*
X109563Y585878D01*
X109474Y585844D01*
X109382Y585819D01*
X109265Y585763D01*
X109143Y585716D01*
X109061Y585666D01*
X108975Y585625D01*
X108869Y585550D01*
X108758Y585482D01*
X108687Y585419D01*
X108609Y585363D01*
X108518Y585270D01*
X108421Y585184D01*
X108362Y585109D01*
X108295Y585041D01*
X108222Y584933D01*
X108141Y584831D01*
X108096Y584747D01*
X108043Y584668D01*
X107990Y584549D01*
X107929Y584434D01*
X107899Y584343D01*
X107861Y584256D01*
X107830Y584129D01*
X107790Y584006D01*
X107777Y583911D01*
X107754Y583818D01*
X107746Y583689D01*
X107728Y583560D01*
X107732Y583464D01*
X107726Y583369D01*
X107741Y583240D01*
X107747Y583110D01*
X107767Y583017D01*
X107778Y582922D01*
X107816Y582797D01*
X107844Y582670D01*
X107881Y582582D01*
X107909Y582491D01*
X107968Y582375D01*
X108018Y582255D01*
X108070Y582175D01*
X108113Y582089D01*
X108192Y581986D01*
X108262Y581877D01*
X108348Y581779D01*
X108385Y581731D01*
X108418Y581700D01*
X108469Y581642D01*
X111019Y579093D01*
X111019Y579092D01*
X113549Y576563D01*
X113549Y574052D01*
X113568Y573841D01*
X113584Y573629D01*
X113587Y573617D01*
X113589Y573604D01*
X113645Y573399D01*
X113698Y573194D01*
X113704Y573182D01*
X113707Y573169D01*
X113798Y572979D01*
X113887Y572785D01*
X113895Y572774D01*
X113901Y572763D01*
X114024Y572590D01*
X114146Y572416D01*
X114155Y572407D01*
X114163Y572396D01*
X114315Y572248D01*
X114465Y572099D01*
X114476Y572092D01*
X114485Y572082D01*
X114662Y571963D01*
X114835Y571843D01*
X114850Y571836D01*
X114858Y571830D01*
X114895Y571814D01*
X115116Y571706D01*
X115680Y571473D01*
X118253Y568900D01*
X119645Y565539D01*
X119645Y546661D01*
X118253Y543300D01*
X115680Y540727D01*
X112319Y539335D01*
X108681Y539335D01*
X105320Y540727D01*
X102747Y543300D01*
X101355Y546661D01*
X101355Y565539D01*
X102747Y568900D01*
X105355Y571507D01*
X105402Y571536D01*
X105528Y571602D01*
X105594Y571653D01*
X105664Y571695D01*
X105771Y571790D01*
X105884Y571878D01*
X105940Y571939D01*
X106002Y571994D01*
X106090Y572106D01*
X106186Y572212D01*
X106230Y572282D01*
X106281Y572347D01*
X106348Y572473D01*
X106424Y572594D01*
X106455Y572671D01*
X106494Y572744D01*
X106538Y572880D01*
X106591Y573013D01*
X106607Y573093D01*
X106633Y573172D01*
X106652Y573314D01*
X106681Y573454D01*
X106683Y573536D01*
X106694Y573618D01*
X106688Y573761D01*
X106692Y573904D01*
X106679Y573985D01*
X106676Y574068D01*
X106645Y574207D01*
X106623Y574349D01*
X106596Y574427D01*
X106578Y574507D01*
X106523Y574639D01*
X106477Y574775D01*
X106436Y574847D01*
X106405Y574923D01*
X106327Y575043D01*
X106257Y575168D01*
X106205Y575232D01*
X106160Y575301D01*
X105997Y575485D01*
X105972Y575516D01*
X105964Y575523D01*
X105953Y575535D01*
X101081Y580408D01*
X100955Y580513D01*
X100834Y580625D01*
X100782Y580657D01*
X100736Y580696D01*
X100593Y580778D01*
X100454Y580866D01*
X100397Y580890D01*
X100345Y580920D01*
X100190Y580975D01*
X100037Y581037D01*
X99978Y581050D01*
X99920Y581071D01*
X99758Y581097D01*
X99597Y581132D01*
X99520Y581137D01*
X99476Y581144D01*
X99415Y581143D01*
X99285Y581151D01*
X40415Y581151D01*
X40251Y581137D01*
X40087Y581130D01*
X40027Y581117D01*
X39966Y581111D01*
X39807Y581068D01*
X39647Y581032D01*
X39591Y581009D01*
X39532Y580993D01*
X39384Y580922D01*
X39231Y580859D01*
X39180Y580826D01*
X39125Y580799D01*
X38992Y580704D01*
X38853Y580614D01*
X38795Y580563D01*
X38759Y580537D01*
X38717Y580494D01*
X38619Y580408D01*
X29192Y570981D01*
X29087Y570855D01*
X28975Y570734D01*
X28943Y570682D01*
X28904Y570636D01*
X28822Y570493D01*
X28734Y570354D01*
X28710Y570297D01*
X28680Y570245D01*
X28625Y570090D01*
X28563Y569937D01*
X28550Y569878D01*
X28529Y569820D01*
X28502Y569658D01*
X28468Y569497D01*
X28463Y569420D01*
X28456Y569376D01*
X28457Y569315D01*
X28449Y569185D01*
X28449Y551608D01*
X28463Y551444D01*
X28470Y551280D01*
X28483Y551220D01*
X28489Y551159D01*
X28532Y551001D01*
X28568Y550840D01*
X28591Y550784D01*
X28607Y550725D01*
X28678Y550577D01*
X28741Y550425D01*
X28774Y550373D01*
X28801Y550318D01*
X28896Y550185D01*
X28986Y550047D01*
X29037Y549989D01*
X29063Y549952D01*
X29106Y549910D01*
X29192Y549812D01*
X29899Y549106D01*
X30707Y547156D01*
X30707Y545044D01*
X29899Y543094D01*
X28406Y541601D01*
X26456Y540793D01*
X24344Y540793D01*
X22394Y541601D01*
X20901Y543094D01*
X20093Y545044D01*
X20093Y547156D01*
X20901Y549106D01*
X21608Y549812D01*
X21713Y549939D01*
X21825Y550059D01*
X21857Y550111D01*
X21896Y550158D01*
X21978Y550300D01*
X22066Y550439D01*
X22090Y550496D01*
X22120Y550549D01*
X22175Y550704D01*
X22237Y550856D01*
X22250Y550915D01*
X22271Y550973D01*
X22297Y551135D01*
X22332Y551296D01*
X22337Y551373D01*
X22344Y551417D01*
X22343Y551478D01*
X22351Y551608D01*
X22351Y572763D01*
X31231Y581642D01*
X31314Y581742D01*
X31405Y581835D01*
X31459Y581915D01*
X31520Y581988D01*
X31584Y582101D01*
X31657Y582208D01*
X31696Y582296D01*
X31743Y582379D01*
X31787Y582501D01*
X31839Y582620D01*
X31862Y582713D01*
X31894Y582803D01*
X31915Y582931D01*
X31946Y583058D01*
X31952Y583153D01*
X31967Y583247D01*
X31966Y583377D01*
X31974Y583507D01*
X31963Y583602D01*
X31961Y583698D01*
X31937Y583825D01*
X31922Y583954D01*
X31894Y584046D01*
X31876Y584140D01*
X31829Y584261D01*
X31791Y584385D01*
X31748Y584470D01*
X31714Y584560D01*
X31646Y584671D01*
X31587Y584787D01*
X31529Y584863D01*
X31480Y584944D01*
X31393Y585042D01*
X31315Y585145D01*
X31245Y585210D01*
X31181Y585282D01*
X31079Y585362D01*
X30984Y585451D01*
X30903Y585502D01*
X30828Y585561D01*
X30714Y585622D01*
X30604Y585692D01*
X30516Y585729D01*
X30431Y585774D01*
X30308Y585814D01*
X30188Y585863D01*
X30094Y585883D01*
X30003Y585913D01*
X29875Y585931D01*
X29747Y585958D01*
X29618Y585966D01*
X29557Y585974D01*
X29512Y585973D01*
X29435Y585977D01*
X13462Y585977D01*
X13427Y585974D01*
X13393Y585976D01*
X13204Y585954D01*
X13013Y585937D01*
X12980Y585928D01*
X12946Y585924D01*
X12763Y585869D01*
X12579Y585819D01*
X12548Y585804D01*
X12515Y585794D01*
X12344Y585707D01*
X12172Y585625D01*
X12144Y585605D01*
X12113Y585590D01*
X11961Y585474D01*
X11806Y585363D01*
X11782Y585338D01*
X11755Y585318D01*
X11626Y585178D01*
X11492Y585041D01*
X11473Y585012D01*
X11449Y584986D01*
X11347Y584825D01*
X11240Y584668D01*
X11226Y584636D01*
X11208Y584607D01*
X11135Y584430D01*
X11058Y584256D01*
X11050Y584222D01*
X11037Y584190D01*
X10997Y584003D01*
X10951Y583818D01*
X10949Y583784D01*
X10942Y583750D01*
X10923Y583438D01*
X10923Y139319D01*
X10926Y139284D01*
X10924Y139250D01*
X10946Y139060D01*
X10963Y138870D01*
X10972Y138837D01*
X10976Y138803D01*
X11031Y138620D01*
X11081Y138436D01*
X11096Y138405D01*
X11106Y138372D01*
X11193Y138201D01*
X11275Y138029D01*
X11295Y138001D01*
X11310Y137970D01*
X11426Y137818D01*
X11537Y137663D01*
X11562Y137639D01*
X11582Y137612D01*
X11722Y137483D01*
X11859Y137349D01*
X11888Y137330D01*
X11914Y137306D01*
X12075Y137204D01*
X12232Y137097D01*
X12264Y137083D01*
X12293Y137065D01*
X12470Y136992D01*
X12644Y136915D01*
X12678Y136907D01*
X12710Y136894D01*
X12897Y136854D01*
X13082Y136808D01*
X13116Y136806D01*
X13150Y136799D01*
X13462Y136780D01*
X31787Y136780D01*
X32680Y135887D01*
X32680Y131125D01*
X32684Y131073D01*
X32682Y131021D01*
X32704Y130849D01*
X32720Y130676D01*
X32733Y130626D01*
X32740Y130574D01*
X32793Y130409D01*
X32838Y130242D01*
X32861Y130195D01*
X32876Y130145D01*
X32957Y129992D01*
X33032Y129835D01*
X33062Y129793D01*
X33086Y129747D01*
X33193Y129610D01*
X33294Y129469D01*
X33331Y129433D01*
X33363Y129392D01*
X33492Y129276D01*
X33616Y129155D01*
X33660Y129126D01*
X33698Y129091D01*
X33846Y129000D01*
X33989Y128903D01*
X34037Y128882D01*
X34081Y128855D01*
X34243Y128791D01*
X34401Y128721D01*
X34452Y128708D01*
X34500Y128689D01*
X34670Y128655D01*
X34839Y128614D01*
X34891Y128611D01*
X34942Y128601D01*
X35115Y128597D01*
X35288Y128586D01*
X35340Y128592D01*
X35392Y128591D01*
X35563Y128618D01*
X35735Y128639D01*
X35785Y128654D01*
X35837Y128662D01*
X36000Y128719D01*
X36166Y128769D01*
X36213Y128792D01*
X36262Y128810D01*
X36413Y128895D01*
X36568Y128973D01*
X36609Y129005D01*
X36655Y129030D01*
X36788Y129141D01*
X36926Y129245D01*
X36962Y129283D01*
X37002Y129317D01*
X37114Y129449D01*
X37231Y129576D01*
X37260Y129620D01*
X37293Y129660D01*
X37380Y129810D01*
X37473Y129956D01*
X37493Y130004D01*
X37519Y130049D01*
X37634Y130340D01*
X37895Y131144D01*
X38667Y132658D01*
X39665Y134033D01*
X40867Y135235D01*
X42242Y136233D01*
X43756Y137005D01*
X45361Y137526D01*
X45361Y127000D01*
X45361Y116474D01*
X43756Y116995D01*
X42242Y117767D01*
X40867Y118765D01*
X39665Y119967D01*
X38667Y121342D01*
X37895Y122856D01*
X37634Y123660D01*
X37614Y123708D01*
X37600Y123758D01*
X37526Y123914D01*
X37457Y124074D01*
X37429Y124118D01*
X37406Y124165D01*
X37306Y124306D01*
X37210Y124451D01*
X37175Y124488D01*
X37144Y124531D01*
X37020Y124652D01*
X36901Y124778D01*
X36859Y124809D01*
X36822Y124845D01*
X36678Y124942D01*
X36538Y125045D01*
X36492Y125068D01*
X36449Y125097D01*
X36290Y125167D01*
X36135Y125244D01*
X36085Y125258D01*
X36037Y125279D01*
X35869Y125320D01*
X35702Y125368D01*
X35650Y125374D01*
X35599Y125386D01*
X35426Y125397D01*
X35254Y125414D01*
X35202Y125410D01*
X35150Y125414D01*
X34977Y125393D01*
X34805Y125381D01*
X34755Y125368D01*
X34703Y125361D01*
X34537Y125311D01*
X34369Y125268D01*
X34322Y125246D01*
X34272Y125231D01*
X34117Y125152D01*
X33960Y125080D01*
X33917Y125050D01*
X33870Y125027D01*
X33733Y124922D01*
X33590Y124823D01*
X33553Y124786D01*
X33512Y124755D01*
X33394Y124628D01*
X33272Y124505D01*
X33242Y124462D01*
X33206Y124424D01*
X33113Y124277D01*
X33014Y124135D01*
X32993Y124088D01*
X32965Y124044D01*
X32899Y123883D01*
X32827Y123726D01*
X32813Y123676D01*
X32794Y123627D01*
X32757Y123458D01*
X32714Y123290D01*
X32710Y123238D01*
X32699Y123187D01*
X32680Y122875D01*
X32680Y118113D01*
X31787Y117220D01*
X13462Y117220D01*
X13427Y117217D01*
X13393Y117219D01*
X13204Y117197D01*
X13013Y117180D01*
X12980Y117171D01*
X12946Y117167D01*
X12763Y117112D01*
X12579Y117062D01*
X12548Y117047D01*
X12515Y117037D01*
X12344Y116950D01*
X12172Y116868D01*
X12144Y116848D01*
X12113Y116833D01*
X11961Y116717D01*
X11806Y116606D01*
X11782Y116581D01*
X11755Y116561D01*
X11626Y116421D01*
X11492Y116284D01*
X11473Y116255D01*
X11449Y116229D01*
X11347Y116068D01*
X11240Y115911D01*
X11226Y115879D01*
X11208Y115850D01*
X11135Y115673D01*
X11058Y115499D01*
X11050Y115465D01*
X11037Y115433D01*
X10997Y115246D01*
X10951Y115061D01*
X10949Y115027D01*
X10942Y114993D01*
X10923Y114681D01*
X10923Y13462D01*
X10926Y13427D01*
X10924Y13393D01*
X10946Y13204D01*
X10963Y13013D01*
X10972Y12980D01*
X10976Y12946D01*
X11031Y12763D01*
X11081Y12579D01*
X11096Y12548D01*
X11106Y12515D01*
X11193Y12344D01*
X11275Y12172D01*
X11295Y12144D01*
X11310Y12113D01*
X11426Y11961D01*
X11537Y11806D01*
X11562Y11782D01*
X11582Y11755D01*
X11722Y11626D01*
X11859Y11492D01*
X11888Y11473D01*
X11914Y11449D01*
X12075Y11347D01*
X12232Y11240D01*
X12264Y11226D01*
X12293Y11208D01*
X12470Y11135D01*
X12644Y11058D01*
X12678Y11050D01*
X12710Y11037D01*
X12897Y10997D01*
X13082Y10951D01*
X13116Y10949D01*
X13150Y10942D01*
X13462Y10923D01*
X558038Y10923D01*
X558073Y10926D01*
G37*
%LPC*%
G36*
X115627Y27177D02*
X115627Y27177D01*
X111613Y28840D01*
X108540Y31913D01*
X106877Y35927D01*
X106877Y40273D01*
X108540Y44287D01*
X111613Y47360D01*
X115627Y49023D01*
X119973Y49023D01*
X123987Y47360D01*
X126172Y45175D01*
X126199Y45152D01*
X126222Y45127D01*
X126371Y45009D01*
X126518Y44886D01*
X126548Y44869D01*
X126575Y44847D01*
X126743Y44757D01*
X126909Y44663D01*
X126941Y44651D01*
X126972Y44635D01*
X127153Y44576D01*
X127333Y44512D01*
X127367Y44506D01*
X127400Y44495D01*
X127588Y44469D01*
X127777Y44438D01*
X127812Y44439D01*
X127846Y44434D01*
X128036Y44442D01*
X128227Y44444D01*
X128261Y44451D01*
X128296Y44452D01*
X128482Y44494D01*
X128669Y44530D01*
X128702Y44542D01*
X128735Y44550D01*
X128911Y44623D01*
X129089Y44692D01*
X129119Y44710D01*
X129151Y44724D01*
X129311Y44827D01*
X129474Y44926D01*
X129500Y44949D01*
X129529Y44968D01*
X129763Y45175D01*
X161308Y76719D01*
X163837Y79249D01*
X278958Y79249D01*
X279122Y79263D01*
X279286Y79270D01*
X279346Y79283D01*
X279407Y79289D01*
X279566Y79332D01*
X279726Y79368D01*
X279782Y79391D01*
X279841Y79407D01*
X279989Y79478D01*
X280141Y79541D01*
X280193Y79574D01*
X280248Y79601D01*
X280381Y79696D01*
X280520Y79786D01*
X280577Y79837D01*
X280614Y79863D01*
X280656Y79906D01*
X280754Y79992D01*
X339108Y138346D01*
X339213Y138472D01*
X339325Y138593D01*
X339357Y138645D01*
X339396Y138692D01*
X339478Y138834D01*
X339566Y138973D01*
X339590Y139030D01*
X339620Y139082D01*
X339675Y139237D01*
X339737Y139390D01*
X339750Y139449D01*
X339771Y139507D01*
X339797Y139669D01*
X339832Y139830D01*
X339837Y139907D01*
X339844Y139951D01*
X339843Y140012D01*
X339851Y140142D01*
X339851Y251685D01*
X339837Y251849D01*
X339830Y252013D01*
X339817Y252073D01*
X339811Y252134D01*
X339768Y252293D01*
X339732Y252453D01*
X339709Y252509D01*
X339693Y252568D01*
X339622Y252716D01*
X339559Y252869D01*
X339526Y252920D01*
X339499Y252975D01*
X339404Y253108D01*
X339314Y253247D01*
X339263Y253305D01*
X339237Y253341D01*
X339194Y253383D01*
X339108Y253481D01*
X329881Y262708D01*
X329755Y262813D01*
X329634Y262925D01*
X329582Y262957D01*
X329536Y262996D01*
X329393Y263078D01*
X329254Y263166D01*
X329197Y263190D01*
X329145Y263220D01*
X328990Y263275D01*
X328837Y263337D01*
X328778Y263350D01*
X328720Y263371D01*
X328558Y263397D01*
X328397Y263432D01*
X328320Y263437D01*
X328276Y263444D01*
X328215Y263443D01*
X328085Y263451D01*
X313619Y263451D01*
X313584Y263448D01*
X313550Y263450D01*
X313361Y263428D01*
X313170Y263411D01*
X313137Y263402D01*
X313103Y263398D01*
X312920Y263343D01*
X312736Y263293D01*
X312705Y263278D01*
X312672Y263268D01*
X312501Y263181D01*
X312329Y263099D01*
X312301Y263079D01*
X312270Y263064D01*
X312118Y262948D01*
X311963Y262837D01*
X311939Y262812D01*
X311912Y262792D01*
X311783Y262652D01*
X311649Y262515D01*
X311630Y262486D01*
X311606Y262460D01*
X311504Y262299D01*
X311397Y262142D01*
X311383Y262110D01*
X311365Y262081D01*
X311292Y261904D01*
X311215Y261730D01*
X311207Y261696D01*
X311194Y261664D01*
X311154Y261477D01*
X311108Y261292D01*
X311106Y261258D01*
X311099Y261224D01*
X311080Y260912D01*
X311080Y257613D01*
X310187Y256720D01*
X305425Y256720D01*
X305373Y256716D01*
X305321Y256718D01*
X305149Y256696D01*
X304976Y256680D01*
X304926Y256667D01*
X304874Y256660D01*
X304709Y256607D01*
X304542Y256562D01*
X304495Y256539D01*
X304445Y256524D01*
X304292Y256443D01*
X304135Y256368D01*
X304093Y256338D01*
X304047Y256314D01*
X303910Y256207D01*
X303769Y256106D01*
X303733Y256069D01*
X303692Y256037D01*
X303576Y255908D01*
X303455Y255784D01*
X303426Y255740D01*
X303391Y255702D01*
X303300Y255554D01*
X303203Y255411D01*
X303182Y255363D01*
X303154Y255319D01*
X303091Y255157D01*
X303021Y254999D01*
X303008Y254948D01*
X302989Y254900D01*
X302955Y254730D01*
X302914Y254561D01*
X302911Y254509D01*
X302901Y254458D01*
X302897Y254285D01*
X302886Y254112D01*
X302892Y254060D01*
X302891Y254008D01*
X302918Y253837D01*
X302938Y253665D01*
X302954Y253615D01*
X302962Y253563D01*
X303019Y253400D01*
X303069Y253234D01*
X303092Y253187D01*
X303110Y253138D01*
X303195Y252987D01*
X303273Y252832D01*
X303305Y252791D01*
X303330Y252745D01*
X303440Y252612D01*
X303545Y252474D01*
X303584Y252438D01*
X303617Y252398D01*
X303749Y252286D01*
X303876Y252169D01*
X303920Y252140D01*
X303960Y252107D01*
X304110Y252020D01*
X304256Y251927D01*
X304304Y251907D01*
X304349Y251881D01*
X304640Y251766D01*
X305444Y251505D01*
X306958Y250733D01*
X308333Y249735D01*
X309535Y248533D01*
X310533Y247158D01*
X311305Y245644D01*
X311826Y244039D01*
X301300Y244039D01*
X290774Y244039D01*
X291295Y245644D01*
X292067Y247158D01*
X293065Y248533D01*
X294267Y249735D01*
X295642Y250733D01*
X297156Y251505D01*
X297960Y251766D01*
X298008Y251787D01*
X298058Y251800D01*
X298214Y251874D01*
X298374Y251943D01*
X298418Y251971D01*
X298465Y251994D01*
X298605Y252094D01*
X298751Y252190D01*
X298788Y252225D01*
X298831Y252256D01*
X298952Y252380D01*
X299078Y252499D01*
X299109Y252541D01*
X299145Y252578D01*
X299242Y252722D01*
X299345Y252862D01*
X299368Y252908D01*
X299397Y252951D01*
X299467Y253110D01*
X299544Y253265D01*
X299558Y253315D01*
X299579Y253363D01*
X299620Y253532D01*
X299668Y253698D01*
X299674Y253750D01*
X299686Y253801D01*
X299697Y253974D01*
X299714Y254146D01*
X299710Y254198D01*
X299714Y254250D01*
X299694Y254423D01*
X299681Y254595D01*
X299668Y254645D01*
X299662Y254697D01*
X299611Y254864D01*
X299568Y255031D01*
X299546Y255078D01*
X299531Y255128D01*
X299453Y255283D01*
X299380Y255440D01*
X299350Y255483D01*
X299327Y255530D01*
X299222Y255668D01*
X299123Y255810D01*
X299086Y255847D01*
X299055Y255888D01*
X298927Y256006D01*
X298805Y256128D01*
X298762Y256158D01*
X298724Y256194D01*
X298577Y256287D01*
X298435Y256386D01*
X298388Y256407D01*
X298344Y256435D01*
X298184Y256501D01*
X298026Y256573D01*
X297976Y256587D01*
X297927Y256606D01*
X297758Y256643D01*
X297590Y256686D01*
X297538Y256690D01*
X297487Y256701D01*
X297175Y256720D01*
X292413Y256720D01*
X291520Y257613D01*
X291520Y260912D01*
X291517Y260947D01*
X291519Y260981D01*
X291497Y261170D01*
X291480Y261361D01*
X291471Y261394D01*
X291467Y261428D01*
X291412Y261611D01*
X291362Y261795D01*
X291347Y261826D01*
X291337Y261859D01*
X291250Y262030D01*
X291168Y262202D01*
X291148Y262230D01*
X291133Y262261D01*
X291017Y262413D01*
X290906Y262568D01*
X290881Y262592D01*
X290861Y262619D01*
X290721Y262748D01*
X290584Y262882D01*
X290555Y262901D01*
X290529Y262925D01*
X290368Y263027D01*
X290211Y263134D01*
X290179Y263148D01*
X290150Y263166D01*
X289973Y263239D01*
X289799Y263316D01*
X289765Y263324D01*
X289733Y263337D01*
X289546Y263377D01*
X289361Y263423D01*
X289327Y263425D01*
X289293Y263432D01*
X288981Y263451D01*
X249254Y263451D01*
X249219Y263448D01*
X249185Y263450D01*
X248996Y263428D01*
X248805Y263411D01*
X248772Y263402D01*
X248738Y263398D01*
X248555Y263343D01*
X248371Y263293D01*
X248340Y263278D01*
X248307Y263268D01*
X248136Y263181D01*
X247964Y263099D01*
X247936Y263079D01*
X247905Y263064D01*
X247753Y262948D01*
X247598Y262837D01*
X247574Y262812D01*
X247547Y262792D01*
X247418Y262652D01*
X247284Y262515D01*
X247265Y262486D01*
X247241Y262460D01*
X247139Y262299D01*
X247032Y262142D01*
X247018Y262110D01*
X247000Y262081D01*
X246927Y261904D01*
X246850Y261730D01*
X246842Y261696D01*
X246829Y261664D01*
X246789Y261477D01*
X246743Y261292D01*
X246741Y261258D01*
X246734Y261224D01*
X246715Y260912D01*
X246715Y260768D01*
X245822Y259875D01*
X240794Y259875D01*
X240759Y259872D01*
X240725Y259874D01*
X240536Y259852D01*
X240345Y259835D01*
X240312Y259826D01*
X240278Y259822D01*
X240095Y259767D01*
X239911Y259717D01*
X239880Y259702D01*
X239847Y259692D01*
X239676Y259605D01*
X239504Y259523D01*
X239476Y259503D01*
X239445Y259488D01*
X239293Y259372D01*
X239138Y259261D01*
X239114Y259236D01*
X239087Y259216D01*
X238958Y259076D01*
X238824Y258939D01*
X238805Y258910D01*
X238781Y258884D01*
X238679Y258723D01*
X238572Y258566D01*
X238558Y258534D01*
X238540Y258505D01*
X238467Y258328D01*
X238390Y258154D01*
X238382Y258120D01*
X238369Y258088D01*
X238329Y257901D01*
X238283Y257716D01*
X238281Y257682D01*
X238274Y257648D01*
X238255Y257336D01*
X238255Y187663D01*
X238269Y187500D01*
X238276Y187335D01*
X238289Y187276D01*
X238295Y187215D01*
X238338Y187056D01*
X238374Y186896D01*
X238380Y186881D01*
X238380Y168713D01*
X237487Y167820D01*
X232725Y167820D01*
X232673Y167816D01*
X232621Y167818D01*
X232449Y167796D01*
X232276Y167780D01*
X232226Y167767D01*
X232174Y167760D01*
X232009Y167707D01*
X231842Y167662D01*
X231795Y167639D01*
X231745Y167624D01*
X231592Y167543D01*
X231435Y167468D01*
X231393Y167438D01*
X231347Y167414D01*
X231210Y167307D01*
X231069Y167206D01*
X231033Y167169D01*
X230992Y167137D01*
X230876Y167008D01*
X230755Y166884D01*
X230726Y166840D01*
X230691Y166802D01*
X230600Y166654D01*
X230503Y166511D01*
X230482Y166463D01*
X230454Y166419D01*
X230391Y166257D01*
X230321Y166099D01*
X230308Y166048D01*
X230289Y166000D01*
X230255Y165830D01*
X230214Y165661D01*
X230211Y165609D01*
X230201Y165558D01*
X230197Y165385D01*
X230186Y165212D01*
X230192Y165160D01*
X230191Y165108D01*
X230218Y164937D01*
X230238Y164765D01*
X230254Y164715D01*
X230262Y164663D01*
X230319Y164500D01*
X230369Y164334D01*
X230392Y164287D01*
X230410Y164238D01*
X230495Y164087D01*
X230573Y163932D01*
X230605Y163891D01*
X230630Y163845D01*
X230740Y163712D01*
X230845Y163574D01*
X230884Y163538D01*
X230917Y163498D01*
X231049Y163386D01*
X231176Y163269D01*
X231220Y163240D01*
X231260Y163207D01*
X231410Y163120D01*
X231556Y163027D01*
X231604Y163007D01*
X231649Y162981D01*
X231940Y162866D01*
X232744Y162605D01*
X234258Y161833D01*
X235633Y160835D01*
X236835Y159633D01*
X237833Y158258D01*
X238605Y156744D01*
X239126Y155139D01*
X228600Y155139D01*
X218074Y155139D01*
X218595Y156744D01*
X219367Y158258D01*
X220365Y159633D01*
X221567Y160835D01*
X222942Y161833D01*
X224456Y162605D01*
X225260Y162866D01*
X225308Y162887D01*
X225358Y162900D01*
X225514Y162974D01*
X225674Y163043D01*
X225718Y163071D01*
X225765Y163094D01*
X225905Y163194D01*
X226051Y163290D01*
X226088Y163325D01*
X226131Y163356D01*
X226252Y163480D01*
X226378Y163599D01*
X226409Y163641D01*
X226445Y163678D01*
X226542Y163822D01*
X226645Y163962D01*
X226668Y164008D01*
X226697Y164051D01*
X226767Y164210D01*
X226844Y164365D01*
X226858Y164415D01*
X226879Y164463D01*
X226920Y164632D01*
X226968Y164798D01*
X226974Y164850D01*
X226986Y164901D01*
X226997Y165074D01*
X227014Y165246D01*
X227010Y165298D01*
X227014Y165350D01*
X226994Y165523D01*
X226981Y165695D01*
X226968Y165745D01*
X226962Y165797D01*
X226911Y165964D01*
X226868Y166131D01*
X226846Y166178D01*
X226831Y166228D01*
X226753Y166383D01*
X226680Y166540D01*
X226650Y166583D01*
X226627Y166630D01*
X226522Y166768D01*
X226423Y166910D01*
X226386Y166947D01*
X226355Y166988D01*
X226227Y167106D01*
X226105Y167228D01*
X226062Y167258D01*
X226024Y167294D01*
X225877Y167387D01*
X225735Y167486D01*
X225688Y167507D01*
X225644Y167535D01*
X225484Y167601D01*
X225326Y167673D01*
X225276Y167687D01*
X225227Y167706D01*
X225058Y167743D01*
X224890Y167786D01*
X224838Y167790D01*
X224787Y167801D01*
X224475Y167820D01*
X219713Y167820D01*
X218820Y168713D01*
X218820Y186487D01*
X219713Y187380D01*
X227586Y187380D01*
X227621Y187383D01*
X227655Y187381D01*
X227844Y187403D01*
X228035Y187420D01*
X228068Y187429D01*
X228102Y187433D01*
X228285Y187488D01*
X228469Y187538D01*
X228500Y187553D01*
X228533Y187563D01*
X228704Y187650D01*
X228876Y187732D01*
X228904Y187752D01*
X228935Y187767D01*
X229087Y187883D01*
X229242Y187994D01*
X229266Y188019D01*
X229293Y188039D01*
X229422Y188179D01*
X229556Y188316D01*
X229575Y188345D01*
X229599Y188371D01*
X229701Y188532D01*
X229808Y188689D01*
X229822Y188721D01*
X229840Y188750D01*
X229913Y188927D01*
X229990Y189101D01*
X229998Y189135D01*
X230011Y189167D01*
X230051Y189354D01*
X230097Y189539D01*
X230099Y189573D01*
X230106Y189607D01*
X230125Y189919D01*
X230125Y257336D01*
X230122Y257371D01*
X230124Y257405D01*
X230102Y257594D01*
X230085Y257785D01*
X230076Y257818D01*
X230072Y257852D01*
X230017Y258035D01*
X229967Y258219D01*
X229952Y258250D01*
X229942Y258283D01*
X229855Y258454D01*
X229773Y258626D01*
X229753Y258654D01*
X229738Y258685D01*
X229622Y258837D01*
X229511Y258992D01*
X229486Y259016D01*
X229466Y259043D01*
X229326Y259172D01*
X229189Y259306D01*
X229160Y259325D01*
X229134Y259349D01*
X228973Y259451D01*
X228816Y259558D01*
X228784Y259572D01*
X228755Y259590D01*
X228578Y259663D01*
X228404Y259740D01*
X228370Y259748D01*
X228338Y259761D01*
X228151Y259801D01*
X227966Y259847D01*
X227932Y259849D01*
X227898Y259856D01*
X227586Y259875D01*
X222558Y259875D01*
X221665Y260768D01*
X221665Y298032D01*
X222558Y298925D01*
X245822Y298925D01*
X246715Y298032D01*
X246715Y272088D01*
X246718Y272053D01*
X246716Y272019D01*
X246738Y271830D01*
X246755Y271639D01*
X246764Y271606D01*
X246768Y271572D01*
X246823Y271389D01*
X246873Y271205D01*
X246888Y271174D01*
X246898Y271141D01*
X246985Y270970D01*
X247067Y270798D01*
X247087Y270770D01*
X247102Y270739D01*
X247218Y270587D01*
X247329Y270432D01*
X247354Y270408D01*
X247374Y270381D01*
X247514Y270252D01*
X247651Y270118D01*
X247680Y270099D01*
X247706Y270075D01*
X247867Y269973D01*
X248024Y269866D01*
X248056Y269852D01*
X248085Y269834D01*
X248262Y269761D01*
X248436Y269684D01*
X248470Y269676D01*
X248502Y269663D01*
X248689Y269623D01*
X248874Y269577D01*
X248908Y269575D01*
X248942Y269568D01*
X249254Y269549D01*
X288981Y269549D01*
X289016Y269552D01*
X289050Y269550D01*
X289239Y269572D01*
X289430Y269589D01*
X289463Y269598D01*
X289497Y269602D01*
X289680Y269657D01*
X289864Y269707D01*
X289895Y269722D01*
X289928Y269732D01*
X290099Y269819D01*
X290271Y269901D01*
X290299Y269921D01*
X290330Y269936D01*
X290482Y270052D01*
X290637Y270163D01*
X290661Y270188D01*
X290688Y270208D01*
X290817Y270348D01*
X290951Y270485D01*
X290970Y270514D01*
X290994Y270540D01*
X291096Y270701D01*
X291203Y270858D01*
X291217Y270890D01*
X291235Y270919D01*
X291308Y271096D01*
X291385Y271270D01*
X291393Y271304D01*
X291406Y271336D01*
X291446Y271523D01*
X291492Y271708D01*
X291494Y271742D01*
X291501Y271776D01*
X291520Y272088D01*
X291520Y275387D01*
X292413Y276280D01*
X310187Y276280D01*
X311080Y275387D01*
X311080Y272088D01*
X311083Y272053D01*
X311081Y272019D01*
X311103Y271830D01*
X311120Y271639D01*
X311129Y271606D01*
X311133Y271572D01*
X311188Y271389D01*
X311238Y271205D01*
X311253Y271174D01*
X311263Y271141D01*
X311350Y270970D01*
X311432Y270798D01*
X311452Y270770D01*
X311467Y270739D01*
X311583Y270587D01*
X311694Y270432D01*
X311719Y270408D01*
X311739Y270381D01*
X311879Y270252D01*
X312016Y270118D01*
X312045Y270099D01*
X312071Y270075D01*
X312232Y269973D01*
X312389Y269866D01*
X312421Y269852D01*
X312450Y269834D01*
X312627Y269761D01*
X312801Y269684D01*
X312835Y269676D01*
X312867Y269663D01*
X313054Y269623D01*
X313239Y269577D01*
X313273Y269575D01*
X313307Y269568D01*
X313619Y269549D01*
X327685Y269549D01*
X327849Y269563D01*
X328013Y269570D01*
X328073Y269583D01*
X328134Y269589D01*
X328293Y269632D01*
X328453Y269668D01*
X328509Y269691D01*
X328568Y269707D01*
X328656Y269749D01*
X331463Y269749D01*
X345949Y255263D01*
X345949Y136564D01*
X282536Y73151D01*
X167415Y73151D01*
X167251Y73137D01*
X167087Y73130D01*
X167027Y73117D01*
X166966Y73111D01*
X166807Y73068D01*
X166647Y73032D01*
X166591Y73009D01*
X166532Y72993D01*
X166384Y72922D01*
X166231Y72859D01*
X166180Y72826D01*
X166125Y72799D01*
X165992Y72704D01*
X165853Y72614D01*
X165795Y72563D01*
X165759Y72537D01*
X165717Y72494D01*
X165619Y72408D01*
X130792Y37581D01*
X128786Y35574D01*
X128711Y35484D01*
X128628Y35401D01*
X128617Y35386D01*
X128610Y35379D01*
X128561Y35306D01*
X128497Y35229D01*
X128439Y35127D01*
X128372Y35031D01*
X128364Y35013D01*
X128358Y35006D01*
X128344Y34973D01*
X128305Y34892D01*
X128273Y34838D01*
X128261Y34804D01*
X128235Y34750D01*
X127060Y31913D01*
X123987Y28840D01*
X119973Y27177D01*
X115627Y27177D01*
G37*
%LPD*%
%LPC*%
G36*
X160403Y294890D02*
X160403Y294890D01*
X159510Y295783D01*
X159510Y309237D01*
X160403Y310130D01*
X173030Y310130D01*
X173193Y310144D01*
X173358Y310151D01*
X173417Y310164D01*
X173478Y310170D01*
X173637Y310213D01*
X173797Y310249D01*
X173854Y310272D01*
X173912Y310288D01*
X174061Y310359D01*
X174213Y310422D01*
X174264Y310455D01*
X174319Y310482D01*
X174453Y310577D01*
X174591Y310667D01*
X174649Y310718D01*
X174685Y310744D01*
X174728Y310787D01*
X174825Y310873D01*
X286298Y422346D01*
X287791Y422965D01*
X353804Y422965D01*
X353920Y422975D01*
X354037Y422975D01*
X354144Y422995D01*
X354252Y423005D01*
X354365Y423035D01*
X354480Y423056D01*
X354626Y423107D01*
X354686Y423123D01*
X354719Y423139D01*
X354775Y423158D01*
X354791Y423165D01*
X356409Y423165D01*
X356425Y423158D01*
X356536Y423123D01*
X356644Y423079D01*
X356751Y423056D01*
X356854Y423023D01*
X356970Y423009D01*
X357085Y422984D01*
X357238Y422974D01*
X357301Y422967D01*
X357337Y422968D01*
X357396Y422965D01*
X368681Y422965D01*
X368716Y422968D01*
X368750Y422966D01*
X368939Y422988D01*
X369130Y423005D01*
X369163Y423014D01*
X369197Y423018D01*
X369380Y423073D01*
X369564Y423123D01*
X369595Y423138D01*
X369628Y423148D01*
X369799Y423235D01*
X369971Y423317D01*
X369999Y423337D01*
X370030Y423352D01*
X370182Y423468D01*
X370337Y423579D01*
X370361Y423604D01*
X370388Y423624D01*
X370517Y423764D01*
X370651Y423901D01*
X370670Y423930D01*
X370694Y423956D01*
X370796Y424117D01*
X370903Y424274D01*
X370917Y424306D01*
X370935Y424335D01*
X371008Y424512D01*
X371085Y424686D01*
X371093Y424720D01*
X371106Y424752D01*
X371146Y424939D01*
X371192Y425124D01*
X371194Y425158D01*
X371201Y425192D01*
X371220Y425504D01*
X371220Y427787D01*
X372113Y428680D01*
X389887Y428680D01*
X390780Y427787D01*
X390780Y425504D01*
X390783Y425469D01*
X390781Y425435D01*
X390803Y425246D01*
X390820Y425055D01*
X390829Y425022D01*
X390833Y424988D01*
X390888Y424805D01*
X390938Y424621D01*
X390953Y424590D01*
X390963Y424557D01*
X391050Y424386D01*
X391132Y424214D01*
X391152Y424186D01*
X391167Y424155D01*
X391283Y424003D01*
X391394Y423848D01*
X391419Y423824D01*
X391439Y423797D01*
X391579Y423668D01*
X391716Y423534D01*
X391745Y423515D01*
X391771Y423491D01*
X391932Y423389D01*
X392089Y423282D01*
X392121Y423268D01*
X392150Y423250D01*
X392327Y423177D01*
X392501Y423100D01*
X392535Y423092D01*
X392567Y423079D01*
X392754Y423039D01*
X392939Y422993D01*
X392973Y422991D01*
X393007Y422984D01*
X393319Y422965D01*
X454246Y422965D01*
X454281Y422968D01*
X454315Y422966D01*
X454504Y422988D01*
X454695Y423005D01*
X454728Y423014D01*
X454762Y423018D01*
X454945Y423073D01*
X455129Y423123D01*
X455160Y423138D01*
X455193Y423148D01*
X455364Y423235D01*
X455536Y423317D01*
X455564Y423337D01*
X455595Y423352D01*
X455747Y423468D01*
X455902Y423579D01*
X455926Y423604D01*
X455953Y423624D01*
X456082Y423764D01*
X456216Y423901D01*
X456235Y423930D01*
X456259Y423956D01*
X456361Y424117D01*
X456468Y424274D01*
X456482Y424306D01*
X456500Y424335D01*
X456573Y424512D01*
X456650Y424686D01*
X456658Y424720D01*
X456671Y424752D01*
X456711Y424939D01*
X456757Y425124D01*
X456759Y425158D01*
X456766Y425192D01*
X456785Y425504D01*
X456785Y433939D01*
X458177Y437300D01*
X460750Y439873D01*
X464111Y441265D01*
X467749Y441265D01*
X471110Y439873D01*
X473683Y437300D01*
X475075Y433939D01*
X475075Y415061D01*
X473683Y411700D01*
X471110Y409127D01*
X467749Y407735D01*
X464111Y407735D01*
X460750Y409127D01*
X458177Y411700D01*
X457528Y413268D01*
X457430Y413456D01*
X457334Y413645D01*
X457326Y413655D01*
X457320Y413667D01*
X457190Y413834D01*
X457062Y414003D01*
X457052Y414012D01*
X457044Y414023D01*
X456887Y414164D01*
X456731Y414309D01*
X456719Y414316D01*
X456710Y414324D01*
X456530Y414436D01*
X456351Y414550D01*
X456338Y414555D01*
X456327Y414562D01*
X456130Y414641D01*
X455934Y414721D01*
X455921Y414724D01*
X455909Y414729D01*
X455701Y414771D01*
X455494Y414816D01*
X455478Y414817D01*
X455468Y414819D01*
X455429Y414820D01*
X455182Y414835D01*
X409843Y414835D01*
X409714Y414824D01*
X409584Y414822D01*
X409490Y414804D01*
X409395Y414795D01*
X409269Y414761D01*
X409142Y414736D01*
X409053Y414702D01*
X408961Y414677D01*
X408843Y414621D01*
X408722Y414574D01*
X408640Y414524D01*
X408554Y414483D01*
X408448Y414408D01*
X408337Y414340D01*
X408266Y414277D01*
X408188Y414221D01*
X408097Y414128D01*
X408000Y414042D01*
X407941Y413967D01*
X407874Y413899D01*
X407801Y413791D01*
X407720Y413689D01*
X407675Y413605D01*
X407622Y413526D01*
X407569Y413407D01*
X407508Y413292D01*
X407478Y413201D01*
X407439Y413114D01*
X407409Y412987D01*
X407368Y412864D01*
X407355Y412769D01*
X407333Y412676D01*
X407325Y412547D01*
X407307Y412418D01*
X407311Y412322D01*
X407305Y412227D01*
X407320Y412098D01*
X407325Y411968D01*
X407346Y411875D01*
X407357Y411780D01*
X407395Y411655D01*
X407423Y411528D01*
X407460Y411440D01*
X407487Y411349D01*
X407546Y411233D01*
X407597Y411113D01*
X407649Y411032D01*
X407692Y410947D01*
X407770Y410844D01*
X407841Y410735D01*
X407927Y410637D01*
X407964Y410589D01*
X407997Y410558D01*
X408048Y410500D01*
X478945Y339603D01*
X478946Y339603D01*
X479330Y339218D01*
X479420Y339143D01*
X479503Y339061D01*
X479546Y339031D01*
X479566Y339013D01*
X479608Y338986D01*
X479675Y338929D01*
X479777Y338871D01*
X479873Y338805D01*
X480012Y338737D01*
X480066Y338706D01*
X480100Y338694D01*
X480154Y338668D01*
X483528Y337270D01*
X486770Y334028D01*
X488525Y329792D01*
X488525Y305208D01*
X486770Y300972D01*
X483528Y297730D01*
X479292Y295975D01*
X474708Y295975D01*
X470472Y297730D01*
X467230Y300972D01*
X465475Y305208D01*
X465475Y329792D01*
X467230Y334028D01*
X468331Y335129D01*
X468353Y335156D01*
X468379Y335179D01*
X468497Y335328D01*
X468620Y335475D01*
X468637Y335505D01*
X468659Y335532D01*
X468749Y335700D01*
X468843Y335866D01*
X468855Y335898D01*
X468871Y335929D01*
X468930Y336110D01*
X468994Y336290D01*
X469000Y336324D01*
X469011Y336357D01*
X469037Y336546D01*
X469068Y336734D01*
X469067Y336769D01*
X469072Y336803D01*
X469064Y336994D01*
X469062Y337185D01*
X469055Y337219D01*
X469054Y337253D01*
X469012Y337439D01*
X468976Y337627D01*
X468963Y337659D01*
X468956Y337693D01*
X468882Y337869D01*
X468814Y338047D01*
X468796Y338076D01*
X468782Y338108D01*
X468679Y338269D01*
X468580Y338431D01*
X468557Y338457D01*
X468538Y338486D01*
X468331Y338721D01*
X395115Y411937D01*
X395015Y412021D01*
X394922Y412111D01*
X394842Y412165D01*
X394769Y412226D01*
X394656Y412291D01*
X394549Y412363D01*
X394461Y412402D01*
X394378Y412449D01*
X394256Y412493D01*
X394137Y412546D01*
X394044Y412568D01*
X393954Y412600D01*
X393825Y412621D01*
X393699Y412652D01*
X393604Y412658D01*
X393510Y412674D01*
X393379Y412672D01*
X393250Y412680D01*
X393155Y412669D01*
X393059Y412668D01*
X392932Y412643D01*
X392803Y412628D01*
X392711Y412600D01*
X392617Y412582D01*
X392496Y412535D01*
X392372Y412498D01*
X392287Y412454D01*
X392197Y412420D01*
X392086Y412352D01*
X391970Y412293D01*
X391894Y412236D01*
X391813Y412186D01*
X391715Y412100D01*
X391612Y412021D01*
X391547Y411951D01*
X391475Y411888D01*
X391395Y411786D01*
X391306Y411690D01*
X391255Y411609D01*
X391196Y411535D01*
X391135Y411420D01*
X391065Y411310D01*
X391028Y411222D01*
X390983Y411138D01*
X390943Y411014D01*
X390894Y410894D01*
X390874Y410800D01*
X390844Y410709D01*
X390826Y410581D01*
X390799Y410454D01*
X390791Y410324D01*
X390783Y410263D01*
X390784Y410219D01*
X390780Y410142D01*
X390780Y410013D01*
X389887Y409120D01*
X385125Y409120D01*
X385073Y409116D01*
X385021Y409118D01*
X384849Y409096D01*
X384676Y409080D01*
X384626Y409067D01*
X384574Y409060D01*
X384409Y409007D01*
X384242Y408962D01*
X384195Y408939D01*
X384145Y408924D01*
X383991Y408843D01*
X383835Y408768D01*
X383793Y408738D01*
X383747Y408714D01*
X383610Y408607D01*
X383469Y408506D01*
X383433Y408469D01*
X383392Y408437D01*
X383276Y408308D01*
X383155Y408184D01*
X383126Y408140D01*
X383091Y408102D01*
X383000Y407954D01*
X382903Y407811D01*
X382882Y407763D01*
X382854Y407718D01*
X382791Y407558D01*
X382721Y407399D01*
X382708Y407348D01*
X382689Y407300D01*
X382655Y407130D01*
X382614Y406961D01*
X382611Y406909D01*
X382601Y406858D01*
X382597Y406685D01*
X382586Y406512D01*
X382592Y406460D01*
X382591Y406408D01*
X382618Y406237D01*
X382638Y406065D01*
X382654Y406015D01*
X382662Y405963D01*
X382719Y405800D01*
X382769Y405634D01*
X382792Y405587D01*
X382810Y405538D01*
X382894Y405387D01*
X382973Y405232D01*
X383005Y405191D01*
X383030Y405145D01*
X383141Y405012D01*
X383245Y404874D01*
X383283Y404838D01*
X383317Y404798D01*
X383449Y404686D01*
X383576Y404569D01*
X383620Y404541D01*
X383660Y404507D01*
X383810Y404420D01*
X383956Y404327D01*
X384004Y404307D01*
X384049Y404281D01*
X384340Y404166D01*
X385144Y403905D01*
X386658Y403133D01*
X388033Y402135D01*
X389235Y400933D01*
X390233Y399558D01*
X391005Y398044D01*
X391526Y396439D01*
X381000Y396439D01*
X370474Y396439D01*
X370995Y398044D01*
X371767Y399558D01*
X372765Y400933D01*
X373967Y402135D01*
X375342Y403133D01*
X376856Y403905D01*
X377660Y404166D01*
X377708Y404186D01*
X377758Y404200D01*
X377914Y404275D01*
X378074Y404343D01*
X378118Y404371D01*
X378165Y404394D01*
X378306Y404494D01*
X378451Y404590D01*
X378489Y404625D01*
X378531Y404656D01*
X378652Y404780D01*
X378778Y404899D01*
X378809Y404941D01*
X378845Y404978D01*
X378942Y405122D01*
X379045Y405261D01*
X379068Y405308D01*
X379097Y405351D01*
X379167Y405510D01*
X379244Y405665D01*
X379258Y405716D01*
X379279Y405763D01*
X379320Y405932D01*
X379368Y406098D01*
X379374Y406150D01*
X379386Y406201D01*
X379397Y406374D01*
X379414Y406546D01*
X379410Y406598D01*
X379414Y406650D01*
X379394Y406822D01*
X379381Y406995D01*
X379368Y407046D01*
X379362Y407097D01*
X379311Y407264D01*
X379268Y407431D01*
X379246Y407478D01*
X379231Y407528D01*
X379152Y407683D01*
X379080Y407840D01*
X379051Y407883D01*
X379027Y407930D01*
X378922Y408067D01*
X378823Y408210D01*
X378786Y408247D01*
X378755Y408288D01*
X378628Y408406D01*
X378505Y408528D01*
X378462Y408558D01*
X378424Y408594D01*
X378278Y408687D01*
X378135Y408786D01*
X378088Y408807D01*
X378044Y408835D01*
X377884Y408901D01*
X377726Y408973D01*
X377676Y408987D01*
X377627Y409006D01*
X377458Y409043D01*
X377290Y409086D01*
X377238Y409090D01*
X377187Y409101D01*
X376875Y409120D01*
X372113Y409120D01*
X371220Y410013D01*
X371220Y412296D01*
X371217Y412331D01*
X371219Y412365D01*
X371197Y412554D01*
X371180Y412745D01*
X371171Y412778D01*
X371167Y412812D01*
X371112Y412995D01*
X371062Y413179D01*
X371047Y413210D01*
X371037Y413243D01*
X370950Y413414D01*
X370868Y413586D01*
X370848Y413614D01*
X370833Y413645D01*
X370717Y413797D01*
X370606Y413952D01*
X370581Y413976D01*
X370561Y414003D01*
X370421Y414132D01*
X370284Y414266D01*
X370255Y414285D01*
X370229Y414309D01*
X370068Y414411D01*
X369911Y414518D01*
X369879Y414532D01*
X369850Y414550D01*
X369673Y414623D01*
X369499Y414700D01*
X369465Y414708D01*
X369433Y414721D01*
X369246Y414761D01*
X369061Y414807D01*
X369027Y414809D01*
X368993Y414816D01*
X368681Y414835D01*
X291335Y414835D01*
X291172Y414821D01*
X291007Y414814D01*
X290948Y414801D01*
X290887Y414795D01*
X290728Y414752D01*
X290568Y414716D01*
X290511Y414693D01*
X290453Y414677D01*
X290304Y414606D01*
X290152Y414543D01*
X290101Y414510D01*
X290046Y414483D01*
X289912Y414388D01*
X289774Y414298D01*
X289716Y414247D01*
X289680Y414221D01*
X289637Y414178D01*
X289540Y414092D01*
X185653Y310205D01*
X185548Y310079D01*
X185436Y309958D01*
X185404Y309907D01*
X185365Y309860D01*
X185283Y309717D01*
X185195Y309578D01*
X185171Y309522D01*
X185141Y309469D01*
X185086Y309314D01*
X185024Y309162D01*
X185011Y309102D01*
X184990Y309045D01*
X184964Y308882D01*
X184929Y308721D01*
X184924Y308645D01*
X184917Y308600D01*
X184918Y308539D01*
X184910Y308410D01*
X184910Y295783D01*
X184017Y294890D01*
X160403Y294890D01*
G37*
%LPD*%
%LPC*%
G36*
X160403Y271780D02*
X160403Y271780D01*
X159510Y272673D01*
X159510Y273431D01*
X159507Y273466D01*
X159509Y273500D01*
X159487Y273689D01*
X159470Y273880D01*
X159461Y273913D01*
X159457Y273947D01*
X159402Y274130D01*
X159352Y274314D01*
X159337Y274345D01*
X159327Y274378D01*
X159240Y274549D01*
X159158Y274721D01*
X159138Y274749D01*
X159123Y274780D01*
X159007Y274932D01*
X158896Y275087D01*
X158871Y275111D01*
X158851Y275138D01*
X158711Y275267D01*
X158574Y275401D01*
X158545Y275420D01*
X158519Y275444D01*
X158358Y275546D01*
X158201Y275653D01*
X158169Y275667D01*
X158140Y275685D01*
X157963Y275758D01*
X157789Y275835D01*
X157755Y275843D01*
X157723Y275856D01*
X157536Y275896D01*
X157351Y275942D01*
X157317Y275944D01*
X157283Y275951D01*
X156971Y275970D01*
X150979Y275970D01*
X60070Y366879D01*
X60070Y407001D01*
X60051Y407213D01*
X60035Y407424D01*
X60032Y407437D01*
X60030Y407450D01*
X59974Y407655D01*
X59921Y407859D01*
X59915Y407871D01*
X59912Y407884D01*
X59821Y408075D01*
X59732Y408268D01*
X59724Y408279D01*
X59718Y408291D01*
X59596Y408462D01*
X59473Y408637D01*
X59464Y408646D01*
X59456Y408657D01*
X59304Y408805D01*
X59154Y408954D01*
X59143Y408962D01*
X59134Y408971D01*
X58958Y409090D01*
X58784Y409210D01*
X58769Y409217D01*
X58761Y409223D01*
X58725Y409239D01*
X58503Y409347D01*
X57313Y409840D01*
X54240Y412913D01*
X52577Y416927D01*
X52577Y421273D01*
X54240Y425287D01*
X57313Y428360D01*
X58604Y428895D01*
X58631Y428909D01*
X58660Y428919D01*
X58831Y429013D01*
X59003Y429103D01*
X59027Y429122D01*
X59054Y429137D01*
X59205Y429260D01*
X59359Y429379D01*
X59380Y429402D01*
X59403Y429421D01*
X59530Y429568D01*
X59661Y429713D01*
X59677Y429739D01*
X59697Y429762D01*
X59796Y429930D01*
X59899Y430096D01*
X59910Y430124D01*
X59925Y430150D01*
X59993Y430332D01*
X60065Y430514D01*
X60071Y430544D01*
X60082Y430572D01*
X60116Y430763D01*
X60156Y430955D01*
X60156Y430985D01*
X60162Y431015D01*
X60162Y431211D01*
X60166Y431405D01*
X60162Y431435D01*
X60162Y431466D01*
X60127Y431658D01*
X60097Y431850D01*
X60088Y431879D01*
X60082Y431909D01*
X60014Y432092D01*
X59951Y432276D01*
X59936Y432302D01*
X59926Y432331D01*
X59827Y432499D01*
X59732Y432669D01*
X59712Y432693D01*
X59697Y432719D01*
X59570Y432867D01*
X59446Y433017D01*
X59423Y433037D01*
X59404Y433060D01*
X59252Y433184D01*
X59104Y433310D01*
X59078Y433325D01*
X59054Y433344D01*
X58785Y433503D01*
X57243Y434289D01*
X55722Y435394D01*
X54394Y436722D01*
X53289Y438243D01*
X52436Y439917D01*
X51855Y441704D01*
X51815Y441961D01*
X63500Y441961D01*
X75185Y441961D01*
X75145Y441704D01*
X74564Y439917D01*
X73711Y438243D01*
X72606Y436722D01*
X71278Y435394D01*
X69757Y434289D01*
X68215Y433503D01*
X68189Y433487D01*
X68161Y433475D01*
X67998Y433367D01*
X67833Y433264D01*
X67811Y433244D01*
X67786Y433227D01*
X67644Y433092D01*
X67500Y432961D01*
X67482Y432937D01*
X67460Y432916D01*
X67345Y432759D01*
X67226Y432604D01*
X67212Y432577D01*
X67194Y432553D01*
X67108Y432378D01*
X67018Y432205D01*
X67009Y432176D01*
X66996Y432148D01*
X66943Y431961D01*
X66885Y431774D01*
X66881Y431744D01*
X66873Y431715D01*
X66854Y431521D01*
X66830Y431328D01*
X66832Y431297D01*
X66828Y431267D01*
X66844Y431072D01*
X66854Y430878D01*
X66861Y430848D01*
X66864Y430818D01*
X66913Y430630D01*
X66958Y430440D01*
X66970Y430412D01*
X66978Y430383D01*
X67059Y430206D01*
X67137Y430027D01*
X67154Y430002D01*
X67167Y429974D01*
X67279Y429814D01*
X67387Y429652D01*
X67408Y429630D01*
X67425Y429605D01*
X67563Y429468D01*
X67699Y429327D01*
X67723Y429309D01*
X67745Y429288D01*
X67904Y429177D01*
X68063Y429062D01*
X68090Y429049D01*
X68115Y429032D01*
X68396Y428895D01*
X69687Y428360D01*
X72760Y425287D01*
X74423Y421273D01*
X74423Y416927D01*
X72760Y412913D01*
X69687Y409840D01*
X68497Y409347D01*
X68309Y409249D01*
X68120Y409153D01*
X68110Y409145D01*
X68098Y409139D01*
X67930Y409009D01*
X67762Y408881D01*
X67753Y408871D01*
X67742Y408863D01*
X67601Y408706D01*
X67456Y408550D01*
X67449Y408538D01*
X67441Y408529D01*
X67329Y408350D01*
X67215Y408170D01*
X67210Y408158D01*
X67203Y408146D01*
X67124Y407950D01*
X67044Y407753D01*
X67041Y407741D01*
X67036Y407728D01*
X66993Y407520D01*
X66949Y407313D01*
X66948Y407297D01*
X66946Y407287D01*
X66945Y407248D01*
X66930Y407001D01*
X66930Y370772D01*
X66944Y370609D01*
X66951Y370444D01*
X66964Y370385D01*
X66970Y370324D01*
X67013Y370165D01*
X67049Y370005D01*
X67072Y369948D01*
X67088Y369890D01*
X67159Y369741D01*
X67222Y369589D01*
X67255Y369538D01*
X67282Y369483D01*
X67377Y369349D01*
X67467Y369211D01*
X67518Y369153D01*
X67544Y369117D01*
X67587Y369074D01*
X67673Y368977D01*
X153077Y283573D01*
X153203Y283468D01*
X153324Y283356D01*
X153375Y283324D01*
X153422Y283285D01*
X153565Y283203D01*
X153704Y283115D01*
X153760Y283091D01*
X153813Y283061D01*
X153968Y283006D01*
X154120Y282944D01*
X154180Y282931D01*
X154238Y282910D01*
X154400Y282884D01*
X154561Y282849D01*
X154637Y282844D01*
X154682Y282837D01*
X154743Y282838D01*
X154872Y282830D01*
X156971Y282830D01*
X157006Y282833D01*
X157040Y282831D01*
X157229Y282853D01*
X157420Y282870D01*
X157453Y282879D01*
X157487Y282883D01*
X157670Y282938D01*
X157854Y282988D01*
X157885Y283003D01*
X157918Y283013D01*
X158089Y283100D01*
X158261Y283182D01*
X158289Y283202D01*
X158320Y283217D01*
X158472Y283333D01*
X158627Y283444D01*
X158651Y283469D01*
X158678Y283489D01*
X158807Y283629D01*
X158941Y283766D01*
X158960Y283795D01*
X158984Y283821D01*
X159086Y283982D01*
X159193Y284139D01*
X159207Y284171D01*
X159225Y284200D01*
X159298Y284377D01*
X159375Y284551D01*
X159383Y284585D01*
X159396Y284617D01*
X159436Y284804D01*
X159482Y284989D01*
X159484Y285023D01*
X159491Y285057D01*
X159510Y285369D01*
X159510Y286127D01*
X160403Y287020D01*
X184017Y287020D01*
X184910Y286127D01*
X184910Y272673D01*
X184017Y271780D01*
X160403Y271780D01*
G37*
%LPD*%
%LPC*%
G36*
X191827Y103377D02*
X191827Y103377D01*
X187813Y105040D01*
X184740Y108113D01*
X183077Y112127D01*
X183077Y116473D01*
X184740Y120487D01*
X187813Y123560D01*
X191827Y125223D01*
X196173Y125223D01*
X197744Y124572D01*
X197947Y124508D01*
X198148Y124443D01*
X198161Y124441D01*
X198173Y124437D01*
X198385Y124410D01*
X198594Y124382D01*
X198607Y124382D01*
X198620Y124381D01*
X198831Y124391D01*
X199043Y124400D01*
X199057Y124403D01*
X199070Y124404D01*
X199275Y124451D01*
X199483Y124498D01*
X199495Y124503D01*
X199508Y124506D01*
X199702Y124589D01*
X199899Y124671D01*
X199910Y124678D01*
X199922Y124684D01*
X200099Y124801D01*
X200277Y124916D01*
X200288Y124926D01*
X200297Y124932D01*
X200326Y124959D01*
X200511Y125122D01*
X210517Y135129D01*
X261845Y135129D01*
X262009Y135143D01*
X262173Y135150D01*
X262233Y135163D01*
X262294Y135169D01*
X262453Y135212D01*
X262613Y135248D01*
X262669Y135271D01*
X262728Y135287D01*
X262876Y135358D01*
X263029Y135421D01*
X263080Y135454D01*
X263135Y135481D01*
X263268Y135576D01*
X263407Y135666D01*
X263465Y135717D01*
X263501Y135743D01*
X263543Y135786D01*
X263641Y135872D01*
X313990Y186221D01*
X314095Y186347D01*
X314207Y186468D01*
X314239Y186520D01*
X314278Y186566D01*
X314360Y186709D01*
X314448Y186848D01*
X314472Y186905D01*
X314502Y186957D01*
X314557Y187112D01*
X314619Y187265D01*
X314632Y187324D01*
X314653Y187382D01*
X314679Y187544D01*
X314714Y187705D01*
X314719Y187782D01*
X314726Y187826D01*
X314725Y187887D01*
X314733Y188017D01*
X314733Y189016D01*
X315541Y190966D01*
X317034Y192459D01*
X318984Y193267D01*
X321096Y193267D01*
X323046Y192459D01*
X324539Y190966D01*
X325347Y189016D01*
X325347Y186904D01*
X324539Y184954D01*
X323046Y183461D01*
X321096Y182653D01*
X320097Y182653D01*
X319933Y182639D01*
X319769Y182632D01*
X319709Y182619D01*
X319648Y182613D01*
X319489Y182570D01*
X319329Y182534D01*
X319273Y182511D01*
X319214Y182495D01*
X319066Y182424D01*
X318913Y182361D01*
X318862Y182328D01*
X318807Y182301D01*
X318674Y182206D01*
X318535Y182116D01*
X318477Y182065D01*
X318441Y182039D01*
X318399Y181996D01*
X318301Y181910D01*
X265423Y129031D01*
X241357Y129031D01*
X241227Y129020D01*
X241097Y129018D01*
X241004Y129000D01*
X240908Y128991D01*
X240783Y128957D01*
X240655Y128932D01*
X240566Y128898D01*
X240474Y128873D01*
X240357Y128817D01*
X240235Y128770D01*
X240153Y128720D01*
X240067Y128679D01*
X239962Y128604D01*
X239850Y128536D01*
X239779Y128473D01*
X239701Y128417D01*
X239610Y128324D01*
X239513Y128238D01*
X239454Y128163D01*
X239387Y128095D01*
X239314Y127987D01*
X239234Y127885D01*
X239189Y127801D01*
X239135Y127722D01*
X239082Y127603D01*
X239021Y127488D01*
X238991Y127397D01*
X238953Y127310D01*
X238922Y127183D01*
X238882Y127060D01*
X238869Y126965D01*
X238846Y126872D01*
X238838Y126743D01*
X238820Y126614D01*
X238824Y126518D01*
X238818Y126423D01*
X238833Y126294D01*
X238839Y126164D01*
X238859Y126071D01*
X238871Y125976D01*
X238908Y125851D01*
X238936Y125724D01*
X238973Y125636D01*
X239001Y125545D01*
X239060Y125429D01*
X239110Y125309D01*
X239162Y125229D01*
X239205Y125143D01*
X239284Y125040D01*
X239354Y124931D01*
X239440Y124833D01*
X239477Y124785D01*
X239510Y124754D01*
X239561Y124696D01*
X242830Y121428D01*
X244493Y117413D01*
X244493Y113068D01*
X242830Y109053D01*
X239757Y105981D01*
X235743Y104318D01*
X231398Y104318D01*
X227383Y105981D01*
X224310Y109053D01*
X222647Y113068D01*
X222647Y117413D01*
X224310Y121428D01*
X227579Y124696D01*
X227662Y124796D01*
X227753Y124889D01*
X227807Y124969D01*
X227868Y125042D01*
X227932Y125155D01*
X228005Y125262D01*
X228044Y125350D01*
X228091Y125433D01*
X228135Y125555D01*
X228188Y125674D01*
X228210Y125767D01*
X228242Y125857D01*
X228263Y125985D01*
X228294Y126112D01*
X228300Y126207D01*
X228316Y126301D01*
X228314Y126431D01*
X228322Y126561D01*
X228311Y126656D01*
X228310Y126752D01*
X228285Y126879D01*
X228270Y127008D01*
X228242Y127100D01*
X228224Y127194D01*
X228177Y127315D01*
X228140Y127439D01*
X228096Y127525D01*
X228062Y127614D01*
X227994Y127725D01*
X227935Y127841D01*
X227877Y127917D01*
X227828Y127998D01*
X227742Y128096D01*
X227663Y128199D01*
X227593Y128264D01*
X227530Y128336D01*
X227428Y128416D01*
X227332Y128505D01*
X227251Y128556D01*
X227177Y128615D01*
X227062Y128676D01*
X226952Y128746D01*
X226864Y128783D01*
X226780Y128828D01*
X226656Y128868D01*
X226536Y128917D01*
X226442Y128937D01*
X226351Y128967D01*
X226223Y128985D01*
X226096Y129012D01*
X225966Y129020D01*
X225905Y129028D01*
X225861Y129027D01*
X225784Y129031D01*
X214095Y129031D01*
X213931Y129017D01*
X213767Y129010D01*
X213707Y128997D01*
X213646Y128991D01*
X213487Y128948D01*
X213327Y128912D01*
X213271Y128889D01*
X213212Y128873D01*
X213064Y128802D01*
X212911Y128739D01*
X212860Y128706D01*
X212805Y128679D01*
X212672Y128584D01*
X212533Y128494D01*
X212475Y128443D01*
X212439Y128417D01*
X212397Y128374D01*
X212299Y128288D01*
X204822Y120811D01*
X204685Y120647D01*
X204549Y120487D01*
X204542Y120476D01*
X204534Y120466D01*
X204428Y120281D01*
X204321Y120098D01*
X204317Y120086D01*
X204310Y120075D01*
X204239Y119875D01*
X204166Y119676D01*
X204164Y119663D01*
X204159Y119650D01*
X204125Y119441D01*
X204088Y119232D01*
X204088Y119219D01*
X204086Y119206D01*
X204089Y118992D01*
X204089Y118782D01*
X204092Y118769D01*
X204092Y118756D01*
X204133Y118547D01*
X204170Y118339D01*
X204176Y118324D01*
X204178Y118314D01*
X204192Y118277D01*
X204272Y118044D01*
X204923Y116473D01*
X204923Y112127D01*
X203260Y108113D01*
X200187Y105040D01*
X196173Y103377D01*
X191827Y103377D01*
G37*
%LPD*%
%LPC*%
G36*
X231398Y28118D02*
X231398Y28118D01*
X227383Y29781D01*
X224310Y32853D01*
X222647Y36868D01*
X222647Y41213D01*
X224310Y45228D01*
X227383Y48300D01*
X231398Y49963D01*
X234546Y49963D01*
X234710Y49978D01*
X234874Y49985D01*
X234934Y49998D01*
X234994Y50003D01*
X235153Y50046D01*
X235314Y50082D01*
X235370Y50106D01*
X235429Y50122D01*
X235577Y50192D01*
X235729Y50256D01*
X235781Y50289D01*
X235835Y50315D01*
X235969Y50411D01*
X236107Y50500D01*
X236165Y50551D01*
X236202Y50577D01*
X236244Y50621D01*
X236342Y50707D01*
X247041Y61407D01*
X249571Y63936D01*
X356848Y63936D01*
X356931Y63944D01*
X357014Y63942D01*
X357155Y63964D01*
X357296Y63976D01*
X357377Y63998D01*
X357459Y64011D01*
X357594Y64057D01*
X357731Y64095D01*
X357806Y64131D01*
X357885Y64158D01*
X358009Y64227D01*
X358137Y64288D01*
X358205Y64337D01*
X358278Y64377D01*
X358388Y64467D01*
X358504Y64550D01*
X358562Y64610D01*
X358626Y64663D01*
X358718Y64771D01*
X358818Y64873D01*
X358864Y64942D01*
X358918Y65005D01*
X358990Y65128D01*
X359070Y65246D01*
X359103Y65322D01*
X359145Y65394D01*
X359194Y65528D01*
X359252Y65658D01*
X359272Y65739D01*
X359300Y65817D01*
X359325Y65957D01*
X359359Y66095D01*
X359364Y66178D01*
X359378Y66260D01*
X359378Y66403D01*
X359386Y66545D01*
X359382Y66578D01*
X359382Y71338D01*
X361045Y75352D01*
X364118Y78425D01*
X365409Y78960D01*
X365436Y78974D01*
X365465Y78984D01*
X365636Y79078D01*
X365808Y79168D01*
X365832Y79187D01*
X365859Y79201D01*
X366010Y79325D01*
X366164Y79444D01*
X366185Y79466D01*
X366208Y79486D01*
X366335Y79633D01*
X366466Y79778D01*
X366482Y79804D01*
X366502Y79827D01*
X366601Y79995D01*
X366704Y80160D01*
X366715Y80189D01*
X366731Y80215D01*
X366798Y80397D01*
X366871Y80579D01*
X366877Y80609D01*
X366887Y80637D01*
X366922Y80828D01*
X366961Y81020D01*
X366961Y81050D01*
X366967Y81080D01*
X366967Y81275D01*
X366971Y81470D01*
X366967Y81500D01*
X366967Y81530D01*
X366932Y81723D01*
X366903Y81915D01*
X366893Y81944D01*
X366887Y81974D01*
X366819Y82157D01*
X366756Y82341D01*
X366741Y82367D01*
X366731Y82396D01*
X366632Y82564D01*
X366537Y82734D01*
X366518Y82758D01*
X366502Y82784D01*
X366375Y82932D01*
X366252Y83082D01*
X366229Y83102D01*
X366209Y83125D01*
X366057Y83248D01*
X365909Y83375D01*
X365883Y83390D01*
X365859Y83409D01*
X365590Y83568D01*
X364048Y84354D01*
X362528Y85459D01*
X361199Y86787D01*
X360094Y88308D01*
X359241Y89982D01*
X358660Y91769D01*
X358620Y92026D01*
X370305Y92026D01*
X381990Y92026D01*
X381950Y91769D01*
X381369Y89982D01*
X380516Y88308D01*
X379411Y86787D01*
X378083Y85459D01*
X376562Y84354D01*
X375020Y83568D01*
X374994Y83552D01*
X374966Y83540D01*
X374803Y83432D01*
X374638Y83329D01*
X374616Y83309D01*
X374591Y83292D01*
X374449Y83157D01*
X374305Y83026D01*
X374287Y83002D01*
X374265Y82981D01*
X374150Y82824D01*
X374031Y82669D01*
X374017Y82642D01*
X373999Y82618D01*
X373913Y82443D01*
X373824Y82270D01*
X373815Y82240D01*
X373801Y82213D01*
X373748Y82026D01*
X373690Y81839D01*
X373687Y81809D01*
X373678Y81780D01*
X373659Y81585D01*
X373635Y81393D01*
X373637Y81362D01*
X373634Y81332D01*
X373649Y81137D01*
X373660Y80943D01*
X373667Y80913D01*
X373669Y80883D01*
X373718Y80695D01*
X373763Y80505D01*
X373775Y80477D01*
X373783Y80448D01*
X373865Y80271D01*
X373942Y80092D01*
X373959Y80066D01*
X373972Y80039D01*
X374084Y79879D01*
X374192Y79717D01*
X374213Y79695D01*
X374230Y79670D01*
X374368Y79533D01*
X374504Y79392D01*
X374528Y79374D01*
X374550Y79353D01*
X374710Y79242D01*
X374868Y79127D01*
X374895Y79114D01*
X374920Y79097D01*
X375201Y78960D01*
X376492Y78425D01*
X379565Y75352D01*
X381228Y71338D01*
X381228Y66992D01*
X379565Y62978D01*
X376492Y59905D01*
X372478Y58242D01*
X368132Y58242D01*
X366562Y58893D01*
X366361Y58956D01*
X366158Y59022D01*
X366144Y59024D01*
X366132Y59028D01*
X365923Y59054D01*
X365711Y59083D01*
X365698Y59083D01*
X365685Y59084D01*
X365473Y59074D01*
X365262Y59065D01*
X365249Y59062D01*
X365236Y59061D01*
X365030Y59013D01*
X364822Y58967D01*
X364810Y58962D01*
X364797Y58959D01*
X364603Y58876D01*
X364407Y58794D01*
X364396Y58787D01*
X364383Y58781D01*
X364206Y58664D01*
X364028Y58549D01*
X364017Y58539D01*
X364008Y58533D01*
X363979Y58506D01*
X363794Y58342D01*
X363291Y57839D01*
X356306Y57839D01*
X356143Y57824D01*
X355978Y57818D01*
X355919Y57804D01*
X355858Y57799D01*
X355699Y57756D01*
X355539Y57720D01*
X355482Y57696D01*
X355424Y57680D01*
X355275Y57610D01*
X355123Y57546D01*
X355072Y57513D01*
X355017Y57487D01*
X354883Y57391D01*
X354745Y57302D01*
X354687Y57251D01*
X354651Y57225D01*
X354608Y57181D01*
X354511Y57095D01*
X354167Y56752D01*
X351642Y56752D01*
X351298Y57095D01*
X351172Y57201D01*
X351051Y57312D01*
X351000Y57345D01*
X350953Y57384D01*
X350810Y57466D01*
X350671Y57554D01*
X350615Y57577D01*
X350562Y57607D01*
X350407Y57662D01*
X350255Y57725D01*
X350195Y57738D01*
X350138Y57758D01*
X349975Y57785D01*
X349815Y57820D01*
X349738Y57824D01*
X349693Y57832D01*
X349632Y57831D01*
X349503Y57839D01*
X253148Y57839D01*
X252985Y57824D01*
X252820Y57818D01*
X252761Y57804D01*
X252700Y57799D01*
X252541Y57756D01*
X252381Y57720D01*
X252324Y57697D01*
X252265Y57680D01*
X252117Y57610D01*
X251965Y57546D01*
X251914Y57513D01*
X251859Y57487D01*
X251725Y57391D01*
X251587Y57302D01*
X251529Y57251D01*
X251493Y57225D01*
X251450Y57181D01*
X251353Y57095D01*
X242953Y48696D01*
X242931Y48669D01*
X242905Y48646D01*
X242787Y48497D01*
X242664Y48350D01*
X242647Y48320D01*
X242626Y48293D01*
X242536Y48125D01*
X242441Y47959D01*
X242429Y47927D01*
X242413Y47896D01*
X242354Y47715D01*
X242290Y47535D01*
X242284Y47501D01*
X242274Y47468D01*
X242248Y47278D01*
X242217Y47091D01*
X242217Y47056D01*
X242212Y47022D01*
X242220Y46831D01*
X242223Y46641D01*
X242229Y46606D01*
X242231Y46572D01*
X242272Y46386D01*
X242308Y46198D01*
X242321Y46166D01*
X242328Y46132D01*
X242402Y45956D01*
X242471Y45778D01*
X242489Y45749D01*
X242502Y45717D01*
X242605Y45557D01*
X242705Y45394D01*
X242728Y45368D01*
X242746Y45339D01*
X242817Y45258D01*
X244493Y41213D01*
X244493Y36868D01*
X242830Y32853D01*
X239757Y29781D01*
X235743Y28118D01*
X231398Y28118D01*
G37*
%LPD*%
%LPC*%
G36*
X284249Y491749D02*
X284249Y491749D01*
X280888Y493141D01*
X278315Y495714D01*
X276923Y499075D01*
X276923Y502713D01*
X278315Y506074D01*
X280888Y508647D01*
X284249Y510039D01*
X303127Y510039D01*
X306488Y508647D01*
X309326Y505808D01*
X309340Y505791D01*
X309350Y505781D01*
X309358Y505770D01*
X309515Y505629D01*
X309671Y505485D01*
X309682Y505478D01*
X309693Y505469D01*
X309871Y505358D01*
X310051Y505244D01*
X310063Y505238D01*
X310075Y505231D01*
X310271Y505153D01*
X310467Y505073D01*
X310481Y505070D01*
X310493Y505065D01*
X310701Y505022D01*
X310907Y504978D01*
X310924Y504977D01*
X310934Y504975D01*
X310975Y504974D01*
X311219Y504959D01*
X341181Y504959D01*
X341394Y504978D01*
X341607Y504995D01*
X341618Y504998D01*
X341629Y504999D01*
X341835Y505055D01*
X342042Y505109D01*
X342053Y505114D01*
X342064Y505117D01*
X342254Y505208D01*
X342451Y505299D01*
X342460Y505306D01*
X342470Y505311D01*
X342643Y505434D01*
X342819Y505558D01*
X342827Y505566D01*
X342836Y505573D01*
X342943Y505682D01*
X342982Y505717D01*
X345912Y508647D01*
X349273Y510039D01*
X368151Y510039D01*
X371512Y508647D01*
X374085Y506074D01*
X375477Y502713D01*
X375477Y499075D01*
X374085Y495714D01*
X371512Y493141D01*
X368151Y491749D01*
X349273Y491749D01*
X345912Y493141D01*
X343074Y495979D01*
X343060Y495997D01*
X343052Y496005D01*
X343045Y496014D01*
X342984Y496069D01*
X342982Y496071D01*
X342979Y496074D01*
X342887Y496157D01*
X342729Y496303D01*
X342720Y496309D01*
X342711Y496316D01*
X342532Y496428D01*
X342349Y496544D01*
X342339Y496549D01*
X342329Y496555D01*
X342132Y496634D01*
X341933Y496715D01*
X341922Y496718D01*
X341911Y496722D01*
X341702Y496765D01*
X341493Y496810D01*
X341479Y496811D01*
X341470Y496813D01*
X341434Y496814D01*
X341181Y496829D01*
X311219Y496829D01*
X311008Y496810D01*
X310798Y496794D01*
X310784Y496791D01*
X310771Y496789D01*
X310567Y496734D01*
X310362Y496680D01*
X310349Y496674D01*
X310336Y496671D01*
X310147Y496581D01*
X309953Y496491D01*
X309942Y496483D01*
X309930Y496477D01*
X309758Y496354D01*
X309584Y496233D01*
X309575Y496223D01*
X309564Y496215D01*
X309457Y496106D01*
X309418Y496071D01*
X306488Y493141D01*
X303127Y491749D01*
X284249Y491749D01*
G37*
%LPD*%
%LPC*%
G36*
X252944Y489993D02*
X252944Y489993D01*
X250994Y490801D01*
X249501Y492294D01*
X248693Y494244D01*
X248693Y496356D01*
X249501Y498306D01*
X250208Y499012D01*
X250313Y499139D01*
X250425Y499259D01*
X250457Y499311D01*
X250496Y499358D01*
X250578Y499500D01*
X250666Y499639D01*
X250690Y499696D01*
X250720Y499749D01*
X250775Y499904D01*
X250837Y500056D01*
X250850Y500115D01*
X250871Y500173D01*
X250897Y500335D01*
X250932Y500496D01*
X250937Y500573D01*
X250944Y500617D01*
X250943Y500678D01*
X250951Y500808D01*
X250951Y543785D01*
X250937Y543949D01*
X250930Y544113D01*
X250917Y544173D01*
X250911Y544234D01*
X250868Y544393D01*
X250832Y544553D01*
X250809Y544609D01*
X250793Y544668D01*
X250722Y544816D01*
X250659Y544969D01*
X250626Y545020D01*
X250599Y545075D01*
X250504Y545208D01*
X250414Y545347D01*
X250363Y545405D01*
X250337Y545441D01*
X250294Y545483D01*
X250208Y545581D01*
X243481Y552308D01*
X243355Y552413D01*
X243234Y552525D01*
X243182Y552557D01*
X243136Y552596D01*
X242993Y552678D01*
X242854Y552766D01*
X242797Y552790D01*
X242745Y552820D01*
X242590Y552875D01*
X242437Y552937D01*
X242378Y552950D01*
X242320Y552971D01*
X242158Y552997D01*
X241997Y553032D01*
X241920Y553037D01*
X241876Y553044D01*
X241815Y553043D01*
X241685Y553051D01*
X223784Y553051D01*
X223749Y553048D01*
X223715Y553050D01*
X223526Y553028D01*
X223335Y553011D01*
X223302Y553002D01*
X223268Y552998D01*
X223085Y552943D01*
X222901Y552893D01*
X222870Y552878D01*
X222837Y552868D01*
X222666Y552781D01*
X222494Y552699D01*
X222466Y552679D01*
X222435Y552664D01*
X222283Y552548D01*
X222128Y552437D01*
X222104Y552412D01*
X222077Y552392D01*
X221948Y552252D01*
X221814Y552115D01*
X221795Y552086D01*
X221771Y552060D01*
X221669Y551899D01*
X221562Y551742D01*
X221548Y551710D01*
X221530Y551681D01*
X221457Y551504D01*
X221380Y551330D01*
X221372Y551296D01*
X221359Y551264D01*
X221319Y551077D01*
X221273Y550892D01*
X221271Y550858D01*
X221264Y550824D01*
X221245Y550512D01*
X221245Y546661D01*
X219853Y543300D01*
X217280Y540727D01*
X213919Y539335D01*
X210281Y539335D01*
X206920Y540727D01*
X204347Y543300D01*
X202955Y546661D01*
X202955Y565539D01*
X204347Y568900D01*
X206920Y571473D01*
X210281Y572865D01*
X213919Y572865D01*
X217280Y571473D01*
X219853Y568900D01*
X221245Y565539D01*
X221245Y561688D01*
X221248Y561653D01*
X221246Y561619D01*
X221268Y561430D01*
X221285Y561239D01*
X221294Y561206D01*
X221298Y561172D01*
X221353Y560989D01*
X221403Y560805D01*
X221418Y560774D01*
X221428Y560741D01*
X221515Y560570D01*
X221597Y560398D01*
X221617Y560370D01*
X221632Y560339D01*
X221748Y560187D01*
X221859Y560032D01*
X221884Y560008D01*
X221904Y559981D01*
X222044Y559852D01*
X222181Y559718D01*
X222210Y559699D01*
X222236Y559675D01*
X222397Y559573D01*
X222554Y559466D01*
X222586Y559452D01*
X222615Y559434D01*
X222792Y559361D01*
X222966Y559284D01*
X223000Y559276D01*
X223032Y559263D01*
X223219Y559223D01*
X223404Y559177D01*
X223438Y559175D01*
X223472Y559168D01*
X223784Y559149D01*
X245263Y559149D01*
X257049Y547363D01*
X257049Y500808D01*
X257063Y500644D01*
X257070Y500480D01*
X257083Y500420D01*
X257089Y500359D01*
X257132Y500201D01*
X257168Y500040D01*
X257191Y499984D01*
X257207Y499925D01*
X257278Y499777D01*
X257341Y499625D01*
X257374Y499573D01*
X257401Y499518D01*
X257496Y499385D01*
X257586Y499247D01*
X257637Y499189D01*
X257663Y499152D01*
X257706Y499110D01*
X257792Y499012D01*
X258499Y498306D01*
X259307Y496356D01*
X259307Y494244D01*
X258499Y492294D01*
X257006Y490801D01*
X255056Y489993D01*
X252944Y489993D01*
G37*
%LPD*%
%LPC*%
G36*
X495708Y353975D02*
X495708Y353975D01*
X491472Y355730D01*
X488230Y358972D01*
X486475Y363208D01*
X486475Y367792D01*
X488230Y372028D01*
X491472Y375270D01*
X495708Y377025D01*
X520292Y377025D01*
X524528Y375270D01*
X527770Y372028D01*
X529525Y367792D01*
X529525Y363208D01*
X527770Y358972D01*
X524528Y355730D01*
X520292Y353975D01*
X495708Y353975D01*
G37*
%LPD*%
%LPC*%
G36*
X63500Y447039D02*
X63500Y447039D01*
X51815Y447039D01*
X51855Y447296D01*
X52436Y449083D01*
X53289Y450757D01*
X54394Y452278D01*
X55722Y453606D01*
X57243Y454711D01*
X58785Y455497D01*
X58811Y455513D01*
X58839Y455525D01*
X59002Y455633D01*
X59167Y455736D01*
X59189Y455756D01*
X59214Y455773D01*
X59356Y455908D01*
X59500Y456039D01*
X59518Y456063D01*
X59540Y456084D01*
X59655Y456241D01*
X59774Y456396D01*
X59788Y456423D01*
X59806Y456447D01*
X59892Y456622D01*
X59982Y456795D01*
X59991Y456824D01*
X60004Y456852D01*
X60057Y457039D01*
X60115Y457226D01*
X60119Y457256D01*
X60127Y457285D01*
X60146Y457479D01*
X60170Y457672D01*
X60168Y457703D01*
X60172Y457733D01*
X60156Y457928D01*
X60146Y458122D01*
X60139Y458152D01*
X60136Y458182D01*
X60087Y458370D01*
X60042Y458560D01*
X60030Y458588D01*
X60022Y458617D01*
X59941Y458794D01*
X59863Y458973D01*
X59846Y458998D01*
X59833Y459026D01*
X59721Y459186D01*
X59613Y459348D01*
X59592Y459370D01*
X59575Y459395D01*
X59437Y459532D01*
X59301Y459673D01*
X59277Y459691D01*
X59255Y459712D01*
X59096Y459823D01*
X58937Y459938D01*
X58910Y459951D01*
X58885Y459968D01*
X58604Y460105D01*
X57313Y460640D01*
X54240Y463713D01*
X52577Y467727D01*
X52577Y472073D01*
X54240Y476087D01*
X57313Y479160D01*
X61327Y480823D01*
X65673Y480823D01*
X69687Y479160D01*
X72760Y476087D01*
X74423Y472073D01*
X74423Y467727D01*
X72760Y463713D01*
X69687Y460640D01*
X68396Y460105D01*
X68369Y460091D01*
X68340Y460081D01*
X68169Y459987D01*
X67997Y459897D01*
X67973Y459878D01*
X67946Y459863D01*
X67795Y459740D01*
X67641Y459621D01*
X67620Y459598D01*
X67597Y459579D01*
X67470Y459432D01*
X67339Y459287D01*
X67323Y459261D01*
X67303Y459238D01*
X67204Y459070D01*
X67101Y458904D01*
X67090Y458876D01*
X67075Y458850D01*
X67007Y458668D01*
X66935Y458486D01*
X66929Y458456D01*
X66918Y458428D01*
X66884Y458237D01*
X66844Y458045D01*
X66844Y458015D01*
X66838Y457985D01*
X66838Y457789D01*
X66834Y457595D01*
X66838Y457565D01*
X66838Y457534D01*
X66873Y457342D01*
X66903Y457150D01*
X66912Y457121D01*
X66918Y457091D01*
X66986Y456908D01*
X67049Y456724D01*
X67064Y456698D01*
X67074Y456669D01*
X67173Y456501D01*
X67268Y456331D01*
X67288Y456307D01*
X67303Y456281D01*
X67430Y456133D01*
X67554Y455983D01*
X67577Y455963D01*
X67596Y455940D01*
X67748Y455816D01*
X67896Y455690D01*
X67922Y455675D01*
X67946Y455656D01*
X68215Y455497D01*
X69757Y454711D01*
X71278Y453606D01*
X72606Y452278D01*
X73711Y450757D01*
X74564Y449083D01*
X75145Y447296D01*
X75185Y447039D01*
X63500Y447039D01*
X63500Y447039D01*
G37*
%LPD*%
%LPC*%
G36*
X349273Y536961D02*
X349273Y536961D01*
X345912Y538353D01*
X343339Y540926D01*
X341947Y544287D01*
X341947Y547925D01*
X343339Y551286D01*
X345912Y553859D01*
X349273Y555251D01*
X368151Y555251D01*
X371512Y553859D01*
X374085Y551286D01*
X375477Y547925D01*
X375477Y544287D01*
X374085Y540926D01*
X371512Y538353D01*
X368151Y536961D01*
X349273Y536961D01*
G37*
%LPD*%
%LPC*%
G36*
X505181Y199535D02*
X505181Y199535D01*
X501820Y200927D01*
X499247Y203500D01*
X497855Y206861D01*
X497855Y225739D01*
X499247Y229100D01*
X501820Y231673D01*
X505181Y233065D01*
X508819Y233065D01*
X512180Y231673D01*
X514753Y229100D01*
X516145Y225739D01*
X516145Y206861D01*
X514753Y203500D01*
X512180Y200927D01*
X508819Y199535D01*
X505181Y199535D01*
G37*
%LPD*%
%LPC*%
G36*
X284249Y536961D02*
X284249Y536961D01*
X280888Y538353D01*
X278315Y540926D01*
X276923Y544287D01*
X276923Y547925D01*
X278315Y551286D01*
X280888Y553859D01*
X284249Y555251D01*
X303127Y555251D01*
X306488Y553859D01*
X309061Y551286D01*
X310453Y547925D01*
X310453Y544287D01*
X309061Y540926D01*
X306488Y538353D01*
X303127Y536961D01*
X284249Y536961D01*
G37*
%LPD*%
%LPC*%
G36*
X159481Y539335D02*
X159481Y539335D01*
X156120Y540727D01*
X153547Y543300D01*
X152155Y546661D01*
X152155Y565539D01*
X153547Y568900D01*
X156120Y571473D01*
X159481Y572865D01*
X163119Y572865D01*
X166480Y571473D01*
X169053Y568900D01*
X170445Y565539D01*
X170445Y546661D01*
X169053Y543300D01*
X166480Y540727D01*
X163119Y539335D01*
X159481Y539335D01*
G37*
%LPD*%
%LPC*%
G36*
X134081Y539335D02*
X134081Y539335D01*
X130720Y540727D01*
X128147Y543300D01*
X126755Y546661D01*
X126755Y565539D01*
X128147Y568900D01*
X130720Y571473D01*
X134081Y572865D01*
X137719Y572865D01*
X141080Y571473D01*
X143653Y568900D01*
X145045Y565539D01*
X145045Y546661D01*
X143653Y543300D01*
X141080Y540727D01*
X137719Y539335D01*
X134081Y539335D01*
G37*
%LPD*%
%LPC*%
G36*
X83281Y539335D02*
X83281Y539335D01*
X79920Y540727D01*
X77347Y543300D01*
X75955Y546661D01*
X75955Y565539D01*
X77347Y568900D01*
X79920Y571473D01*
X83281Y572865D01*
X86919Y572865D01*
X90280Y571473D01*
X92853Y568900D01*
X94245Y565539D01*
X94245Y546661D01*
X92853Y543300D01*
X90280Y540727D01*
X86919Y539335D01*
X83281Y539335D01*
G37*
%LPD*%
%LPC*%
G36*
X492051Y407735D02*
X492051Y407735D01*
X488690Y409127D01*
X486117Y411700D01*
X484725Y415061D01*
X484725Y433939D01*
X486117Y437300D01*
X488690Y439873D01*
X492051Y441265D01*
X495689Y441265D01*
X499050Y439873D01*
X501623Y437300D01*
X503015Y433939D01*
X503015Y415061D01*
X501623Y411700D01*
X499050Y409127D01*
X495689Y407735D01*
X492051Y407735D01*
G37*
%LPD*%
%LPC*%
G36*
X57881Y539335D02*
X57881Y539335D01*
X54520Y540727D01*
X51947Y543300D01*
X50555Y546661D01*
X50555Y565539D01*
X51947Y568900D01*
X54520Y571473D01*
X57881Y572865D01*
X61519Y572865D01*
X64880Y571473D01*
X67453Y568900D01*
X68845Y565539D01*
X68845Y546661D01*
X67453Y543300D01*
X64880Y540727D01*
X61519Y539335D01*
X57881Y539335D01*
G37*
%LPD*%
%LPC*%
G36*
X530581Y199535D02*
X530581Y199535D01*
X527220Y200927D01*
X524647Y203500D01*
X523255Y206861D01*
X523255Y225739D01*
X524647Y229100D01*
X527220Y231673D01*
X530581Y233065D01*
X534219Y233065D01*
X537580Y231673D01*
X540153Y229100D01*
X541545Y225739D01*
X541545Y206861D01*
X540153Y203500D01*
X537580Y200927D01*
X534219Y199535D01*
X530581Y199535D01*
G37*
%LPD*%
%LPC*%
G36*
X389174Y278229D02*
X389174Y278229D01*
X389174Y288755D01*
X390778Y288234D01*
X392293Y287462D01*
X393667Y286464D01*
X394869Y285262D01*
X395868Y283887D01*
X396639Y282373D01*
X396900Y281569D01*
X396921Y281521D01*
X396935Y281471D01*
X397009Y281315D01*
X397077Y281155D01*
X397106Y281111D01*
X397128Y281064D01*
X397229Y280924D01*
X397324Y280778D01*
X397360Y280741D01*
X397390Y280698D01*
X397514Y280577D01*
X397633Y280451D01*
X397675Y280420D01*
X397713Y280384D01*
X397856Y280287D01*
X397996Y280184D01*
X398043Y280161D01*
X398086Y280132D01*
X398244Y280062D01*
X398400Y279985D01*
X398450Y279971D01*
X398498Y279950D01*
X398666Y279909D01*
X398833Y279861D01*
X398884Y279855D01*
X398935Y279843D01*
X399108Y279832D01*
X399280Y279815D01*
X399332Y279819D01*
X399384Y279815D01*
X399557Y279835D01*
X399729Y279848D01*
X399780Y279861D01*
X399832Y279867D01*
X399998Y279918D01*
X400165Y279961D01*
X400213Y279983D01*
X400263Y279998D01*
X400417Y280076D01*
X400575Y280149D01*
X400617Y280179D01*
X400664Y280202D01*
X400802Y280307D01*
X400944Y280406D01*
X400981Y280443D01*
X401023Y280474D01*
X401140Y280602D01*
X401263Y280724D01*
X401292Y280767D01*
X401328Y280805D01*
X401421Y280952D01*
X401520Y281094D01*
X401542Y281141D01*
X401570Y281185D01*
X401636Y281345D01*
X401708Y281503D01*
X401721Y281553D01*
X401741Y281602D01*
X401777Y281771D01*
X401820Y281939D01*
X401824Y281991D01*
X401835Y282042D01*
X401855Y282354D01*
X401855Y287116D01*
X402748Y288009D01*
X420521Y288009D01*
X421414Y287116D01*
X421414Y269342D01*
X420521Y268449D01*
X402748Y268449D01*
X401855Y269342D01*
X401855Y274104D01*
X401850Y274156D01*
X401852Y274208D01*
X401830Y274380D01*
X401815Y274553D01*
X401801Y274603D01*
X401794Y274655D01*
X401742Y274820D01*
X401696Y274987D01*
X401674Y275034D01*
X401658Y275084D01*
X401577Y275238D01*
X401503Y275394D01*
X401473Y275436D01*
X401448Y275482D01*
X401342Y275619D01*
X401241Y275760D01*
X401203Y275796D01*
X401171Y275837D01*
X401042Y275953D01*
X400918Y276074D01*
X400875Y276103D01*
X400836Y276138D01*
X400689Y276229D01*
X400545Y276326D01*
X400497Y276347D01*
X400453Y276374D01*
X400292Y276438D01*
X400133Y276508D01*
X400083Y276521D01*
X400034Y276540D01*
X399864Y276574D01*
X399696Y276615D01*
X399644Y276618D01*
X399593Y276628D01*
X399419Y276632D01*
X399246Y276643D01*
X399194Y276637D01*
X399142Y276638D01*
X398972Y276611D01*
X398799Y276590D01*
X398749Y276575D01*
X398698Y276567D01*
X398535Y276511D01*
X398368Y276460D01*
X398321Y276436D01*
X398272Y276419D01*
X398121Y276334D01*
X397967Y276256D01*
X397925Y276224D01*
X397880Y276199D01*
X397746Y276088D01*
X397608Y275984D01*
X397573Y275945D01*
X397532Y275912D01*
X397421Y275780D01*
X397303Y275653D01*
X397275Y275609D01*
X397241Y275569D01*
X397154Y275419D01*
X397061Y275273D01*
X397041Y275225D01*
X397015Y275180D01*
X396900Y274889D01*
X396639Y274085D01*
X395868Y272571D01*
X394869Y271196D01*
X393667Y269994D01*
X392293Y268996D01*
X390778Y268224D01*
X389174Y267703D01*
X389174Y278229D01*
G37*
%LPD*%
%LPC*%
G36*
X115627Y103377D02*
X115627Y103377D01*
X111613Y105040D01*
X108540Y108113D01*
X106877Y112127D01*
X106877Y116473D01*
X108540Y120487D01*
X111613Y123560D01*
X115627Y125223D01*
X119973Y125223D01*
X123987Y123560D01*
X127060Y120487D01*
X128723Y116473D01*
X128723Y112127D01*
X127060Y108113D01*
X123987Y105040D01*
X119973Y103377D01*
X115627Y103377D01*
G37*
%LPD*%
%LPC*%
G36*
X269882Y102689D02*
X269882Y102689D01*
X265868Y104352D01*
X262795Y107424D01*
X261132Y111439D01*
X261132Y115784D01*
X262795Y119799D01*
X265868Y122872D01*
X269882Y124534D01*
X274228Y124534D01*
X278242Y122872D01*
X281315Y119799D01*
X282978Y115784D01*
X282978Y111439D01*
X281315Y107424D01*
X278242Y104352D01*
X274228Y102689D01*
X269882Y102689D01*
G37*
%LPD*%
%LPC*%
G36*
X137527Y471677D02*
X137527Y471677D01*
X133513Y473340D01*
X130440Y476413D01*
X128777Y480427D01*
X128777Y484773D01*
X130440Y488787D01*
X133513Y491860D01*
X137527Y493523D01*
X141873Y493523D01*
X145887Y491860D01*
X148960Y488787D01*
X150623Y484773D01*
X150623Y480427D01*
X148960Y476413D01*
X145887Y473340D01*
X141873Y471677D01*
X137527Y471677D01*
G37*
%LPD*%
%LPC*%
G36*
X213727Y395477D02*
X213727Y395477D01*
X209713Y397140D01*
X206640Y400213D01*
X204977Y404227D01*
X204977Y408573D01*
X206640Y412587D01*
X209713Y415660D01*
X213727Y417323D01*
X218073Y417323D01*
X222087Y415660D01*
X225160Y412587D01*
X226823Y408573D01*
X226823Y404227D01*
X225160Y400213D01*
X222087Y397140D01*
X218073Y395477D01*
X213727Y395477D01*
G37*
%LPD*%
%LPC*%
G36*
X175627Y395477D02*
X175627Y395477D01*
X171613Y397140D01*
X168540Y400213D01*
X166877Y404227D01*
X166877Y408573D01*
X168540Y412587D01*
X171613Y415660D01*
X175627Y417323D01*
X179973Y417323D01*
X183987Y415660D01*
X187060Y412587D01*
X188723Y408573D01*
X188723Y404227D01*
X187060Y400213D01*
X183987Y397140D01*
X179973Y395477D01*
X175627Y395477D01*
G37*
%LPD*%
%LPC*%
G36*
X137527Y395477D02*
X137527Y395477D01*
X133513Y397140D01*
X130440Y400213D01*
X128777Y404227D01*
X128777Y408573D01*
X130440Y412587D01*
X133513Y415660D01*
X137527Y417323D01*
X141873Y417323D01*
X145887Y415660D01*
X148960Y412587D01*
X150623Y408573D01*
X150623Y404227D01*
X148960Y400213D01*
X145887Y397140D01*
X141873Y395477D01*
X137527Y395477D01*
G37*
%LPD*%
%LPC*%
G36*
X153727Y103377D02*
X153727Y103377D01*
X149713Y105040D01*
X146640Y108113D01*
X144977Y112127D01*
X144977Y116473D01*
X146640Y120487D01*
X149713Y123560D01*
X153727Y125223D01*
X158073Y125223D01*
X162087Y123560D01*
X165160Y120487D01*
X166823Y116473D01*
X166823Y112127D01*
X165160Y108113D01*
X162087Y105040D01*
X158073Y103377D01*
X153727Y103377D01*
G37*
%LPD*%
%LPC*%
G36*
X175627Y471677D02*
X175627Y471677D01*
X171613Y473340D01*
X168540Y476413D01*
X166877Y480427D01*
X166877Y484773D01*
X168540Y488787D01*
X171613Y491860D01*
X175627Y493523D01*
X179973Y493523D01*
X183987Y491860D01*
X187060Y488787D01*
X188723Y484773D01*
X188723Y480427D01*
X187060Y476413D01*
X183987Y473340D01*
X179973Y471677D01*
X175627Y471677D01*
G37*
%LPD*%
%LPC*%
G36*
X153727Y27177D02*
X153727Y27177D01*
X149713Y28840D01*
X146640Y31913D01*
X144977Y35927D01*
X144977Y40273D01*
X146640Y44287D01*
X149713Y47360D01*
X153727Y49023D01*
X158073Y49023D01*
X162087Y47360D01*
X165160Y44287D01*
X166823Y40273D01*
X166823Y35927D01*
X165160Y31913D01*
X162087Y28840D01*
X158073Y27177D01*
X153727Y27177D01*
G37*
%LPD*%
%LPC*%
G36*
X269882Y26489D02*
X269882Y26489D01*
X265868Y28152D01*
X262795Y31224D01*
X261132Y35239D01*
X261132Y39584D01*
X262795Y43599D01*
X265868Y46672D01*
X269882Y48334D01*
X274228Y48334D01*
X278242Y46672D01*
X281315Y43599D01*
X282978Y39584D01*
X282978Y35239D01*
X281315Y31224D01*
X278242Y28152D01*
X274228Y26489D01*
X269882Y26489D01*
G37*
%LPD*%
%LPC*%
G36*
X540539Y320039D02*
X540539Y320039D01*
X540539Y339795D01*
X540937Y339732D01*
X542814Y339122D01*
X544573Y338226D01*
X546170Y337066D01*
X547566Y335670D01*
X548726Y334073D01*
X549622Y332314D01*
X550232Y330437D01*
X550541Y328487D01*
X550541Y320039D01*
X540539Y320039D01*
G37*
%LPD*%
%LPC*%
G36*
X540539Y314961D02*
X540539Y314961D01*
X550541Y314961D01*
X550541Y306513D01*
X550232Y304563D01*
X549622Y302686D01*
X548726Y300927D01*
X547566Y299330D01*
X546170Y297934D01*
X544573Y296774D01*
X542814Y295878D01*
X540937Y295268D01*
X540539Y295205D01*
X540539Y314961D01*
G37*
%LPD*%
%LPC*%
G36*
X525459Y320039D02*
X525459Y320039D01*
X525459Y328487D01*
X525768Y330437D01*
X526378Y332314D01*
X527274Y334073D01*
X528434Y335670D01*
X529830Y337066D01*
X531427Y338226D01*
X533186Y339122D01*
X535063Y339732D01*
X535461Y339795D01*
X535461Y320039D01*
X525459Y320039D01*
G37*
%LPD*%
%LPC*%
G36*
X535063Y295268D02*
X535063Y295268D01*
X533186Y295878D01*
X531427Y296774D01*
X529830Y297934D01*
X528434Y299330D01*
X527274Y300927D01*
X526378Y302686D01*
X525768Y304563D01*
X525459Y306513D01*
X525459Y314961D01*
X535461Y314961D01*
X535461Y295205D01*
X535063Y295268D01*
G37*
%LPD*%
%LPC*%
G36*
X484139Y218839D02*
X484139Y218839D01*
X484139Y233779D01*
X485500Y233336D01*
X486925Y232610D01*
X488219Y231670D01*
X489350Y230539D01*
X490290Y229245D01*
X491016Y227820D01*
X491511Y226299D01*
X491761Y224720D01*
X491761Y218839D01*
X484139Y218839D01*
G37*
%LPD*%
%LPC*%
G36*
X189239Y558639D02*
X189239Y558639D01*
X189239Y573579D01*
X190600Y573136D01*
X192025Y572410D01*
X193319Y571470D01*
X194450Y570339D01*
X195390Y569045D01*
X196116Y567620D01*
X196611Y566099D01*
X196861Y564520D01*
X196861Y558639D01*
X189239Y558639D01*
G37*
%LPD*%
%LPC*%
G36*
X189239Y553561D02*
X189239Y553561D01*
X196861Y553561D01*
X196861Y547680D01*
X196611Y546101D01*
X196116Y544580D01*
X195390Y543155D01*
X194450Y541861D01*
X193319Y540730D01*
X192025Y539790D01*
X190600Y539064D01*
X189239Y538621D01*
X189239Y553561D01*
G37*
%LPD*%
%LPC*%
G36*
X484139Y213761D02*
X484139Y213761D01*
X491761Y213761D01*
X491761Y207880D01*
X491511Y206301D01*
X491016Y204780D01*
X490290Y203355D01*
X489350Y202061D01*
X488219Y200930D01*
X486925Y199990D01*
X485500Y199264D01*
X484139Y198821D01*
X484139Y213761D01*
G37*
%LPD*%
%LPC*%
G36*
X176539Y558639D02*
X176539Y558639D01*
X176539Y564520D01*
X176789Y566099D01*
X177284Y567620D01*
X178010Y569045D01*
X178950Y570339D01*
X180081Y571470D01*
X181375Y572410D01*
X182800Y573136D01*
X184161Y573579D01*
X184161Y558639D01*
X176539Y558639D01*
G37*
%LPD*%
%LPC*%
G36*
X471439Y218839D02*
X471439Y218839D01*
X471439Y224720D01*
X471689Y226299D01*
X472184Y227820D01*
X472910Y229245D01*
X473850Y230539D01*
X474981Y231670D01*
X476275Y232610D01*
X477700Y233336D01*
X479061Y233779D01*
X479061Y218839D01*
X471439Y218839D01*
G37*
%LPD*%
%LPC*%
G36*
X182800Y539064D02*
X182800Y539064D01*
X181375Y539790D01*
X180081Y540730D01*
X178950Y541861D01*
X178010Y543155D01*
X177284Y544580D01*
X176789Y546101D01*
X176539Y547680D01*
X176539Y553561D01*
X184161Y553561D01*
X184161Y538621D01*
X182800Y539064D01*
G37*
%LPD*%
%LPC*%
G36*
X477700Y199264D02*
X477700Y199264D01*
X476275Y199990D01*
X474981Y200930D01*
X473850Y202061D01*
X472910Y203355D01*
X472184Y204780D01*
X471689Y206301D01*
X471439Y207880D01*
X471439Y213761D01*
X479061Y213761D01*
X479061Y198821D01*
X477700Y199264D01*
G37*
%LPD*%
%LPC*%
G36*
X218439Y485139D02*
X218439Y485139D01*
X218439Y494285D01*
X218696Y494245D01*
X220483Y493664D01*
X222157Y492811D01*
X223678Y491706D01*
X225006Y490378D01*
X226111Y488857D01*
X226964Y487183D01*
X227545Y485396D01*
X227585Y485139D01*
X218439Y485139D01*
G37*
%LPD*%
%LPC*%
G36*
X372845Y97104D02*
X372845Y97104D01*
X372845Y106250D01*
X373101Y106210D01*
X374888Y105629D01*
X376562Y104776D01*
X378083Y103671D01*
X379411Y102342D01*
X380516Y100822D01*
X381369Y99148D01*
X381950Y97361D01*
X381990Y97104D01*
X372845Y97104D01*
G37*
%LPD*%
%LPC*%
G36*
X196539Y40639D02*
X196539Y40639D01*
X196539Y49785D01*
X196796Y49745D01*
X198583Y49164D01*
X200257Y48311D01*
X201778Y47206D01*
X203106Y45878D01*
X204211Y44357D01*
X205064Y42683D01*
X205645Y40896D01*
X205685Y40639D01*
X196539Y40639D01*
G37*
%LPD*%
%LPC*%
G36*
X182315Y40639D02*
X182315Y40639D01*
X182355Y40896D01*
X182936Y42683D01*
X183789Y44357D01*
X184894Y45878D01*
X186222Y47206D01*
X187743Y48311D01*
X189417Y49164D01*
X191204Y49745D01*
X191461Y49785D01*
X191461Y40639D01*
X182315Y40639D01*
G37*
%LPD*%
%LPC*%
G36*
X218439Y480061D02*
X218439Y480061D01*
X227585Y480061D01*
X227545Y479804D01*
X226964Y478017D01*
X226111Y476343D01*
X225006Y474822D01*
X223678Y473494D01*
X222157Y472389D01*
X220483Y471536D01*
X218696Y470955D01*
X218439Y470915D01*
X218439Y480061D01*
G37*
%LPD*%
%LPC*%
G36*
X358620Y97104D02*
X358620Y97104D01*
X358660Y97361D01*
X359241Y99148D01*
X360094Y100822D01*
X361199Y102342D01*
X362528Y103671D01*
X364048Y104776D01*
X365722Y105629D01*
X367509Y106210D01*
X367766Y106250D01*
X367766Y97104D01*
X358620Y97104D01*
G37*
%LPD*%
%LPC*%
G36*
X196539Y35561D02*
X196539Y35561D01*
X205685Y35561D01*
X205645Y35304D01*
X205064Y33517D01*
X204211Y31843D01*
X203106Y30322D01*
X201778Y28994D01*
X200257Y27889D01*
X198583Y27036D01*
X196796Y26455D01*
X196539Y26415D01*
X196539Y35561D01*
G37*
%LPD*%
%LPC*%
G36*
X204215Y485139D02*
X204215Y485139D01*
X204255Y485396D01*
X204836Y487183D01*
X205689Y488857D01*
X206794Y490378D01*
X208122Y491706D01*
X209643Y492811D01*
X211317Y493664D01*
X213104Y494245D01*
X213361Y494285D01*
X213361Y485139D01*
X204215Y485139D01*
G37*
%LPD*%
%LPC*%
G36*
X191204Y26455D02*
X191204Y26455D01*
X189417Y27036D01*
X187743Y27889D01*
X186222Y28994D01*
X184894Y30322D01*
X183789Y31843D01*
X182936Y33517D01*
X182355Y35304D01*
X182315Y35561D01*
X191461Y35561D01*
X191461Y26415D01*
X191204Y26455D01*
G37*
%LPD*%
%LPC*%
G36*
X213104Y470955D02*
X213104Y470955D01*
X211317Y471536D01*
X209643Y472389D01*
X208122Y473494D01*
X206794Y474822D01*
X205689Y476343D01*
X204836Y478017D01*
X204255Y479804D01*
X204215Y480061D01*
X213361Y480061D01*
X213361Y470915D01*
X213104Y470955D01*
G37*
%LPD*%
%LPC*%
G36*
X175257Y259337D02*
X175257Y259337D01*
X175257Y264926D01*
X183720Y264926D01*
X184366Y264753D01*
X184945Y264418D01*
X185418Y263945D01*
X185753Y263366D01*
X185926Y262720D01*
X185926Y259337D01*
X175257Y259337D01*
G37*
%LPD*%
%LPC*%
G36*
X158494Y259337D02*
X158494Y259337D01*
X158494Y262720D01*
X158667Y263366D01*
X159002Y263945D01*
X159475Y264418D01*
X160054Y264753D01*
X160700Y264926D01*
X169163Y264926D01*
X169163Y259337D01*
X158494Y259337D01*
G37*
%LPD*%
%LPC*%
G36*
X175257Y247654D02*
X175257Y247654D01*
X175257Y253243D01*
X185926Y253243D01*
X185926Y249860D01*
X185753Y249214D01*
X185418Y248635D01*
X184945Y248162D01*
X184366Y247827D01*
X183720Y247654D01*
X175257Y247654D01*
G37*
%LPD*%
%LPC*%
G36*
X160700Y247654D02*
X160700Y247654D01*
X160054Y247827D01*
X159475Y248162D01*
X159002Y248635D01*
X158667Y249214D01*
X158494Y249860D01*
X158494Y253243D01*
X169163Y253243D01*
X169163Y247654D01*
X160700Y247654D01*
G37*
%LPD*%
%LPC*%
G36*
X50439Y129539D02*
X50439Y129539D01*
X50439Y137526D01*
X52044Y137005D01*
X53558Y136233D01*
X54933Y135235D01*
X56135Y134033D01*
X57133Y132658D01*
X57905Y131144D01*
X58426Y129539D01*
X50439Y129539D01*
G37*
%LPD*%
%LPC*%
G36*
X383539Y391361D02*
X383539Y391361D01*
X391526Y391361D01*
X391005Y389756D01*
X390233Y388242D01*
X389235Y386867D01*
X388033Y385665D01*
X386658Y384667D01*
X385144Y383895D01*
X383539Y383374D01*
X383539Y391361D01*
G37*
%LPD*%
%LPC*%
G36*
X231139Y150061D02*
X231139Y150061D01*
X239126Y150061D01*
X238605Y148456D01*
X237833Y146942D01*
X236835Y145567D01*
X235633Y144365D01*
X234258Y143367D01*
X232744Y142595D01*
X231139Y142074D01*
X231139Y150061D01*
G37*
%LPD*%
%LPC*%
G36*
X50439Y124461D02*
X50439Y124461D01*
X58426Y124461D01*
X57905Y122856D01*
X57133Y121342D01*
X56135Y119967D01*
X54933Y118765D01*
X53558Y117767D01*
X52044Y116995D01*
X50439Y116474D01*
X50439Y124461D01*
G37*
%LPD*%
%LPC*%
G36*
X303839Y238961D02*
X303839Y238961D01*
X311826Y238961D01*
X311305Y237356D01*
X310533Y235842D01*
X309535Y234467D01*
X308333Y233265D01*
X306958Y232267D01*
X305444Y231495D01*
X303839Y230974D01*
X303839Y238961D01*
G37*
%LPD*%
%LPC*%
G36*
X376108Y280768D02*
X376108Y280768D01*
X376630Y282373D01*
X377401Y283887D01*
X378400Y285262D01*
X379602Y286464D01*
X380976Y287462D01*
X382490Y288234D01*
X384095Y288755D01*
X384095Y280768D01*
X376108Y280768D01*
G37*
%LPD*%
%LPC*%
G36*
X382490Y268224D02*
X382490Y268224D01*
X380976Y268996D01*
X379602Y269994D01*
X378400Y271196D01*
X377401Y272571D01*
X376630Y274085D01*
X376108Y275690D01*
X384095Y275690D01*
X384095Y267703D01*
X382490Y268224D01*
G37*
%LPD*%
%LPC*%
G36*
X224456Y142595D02*
X224456Y142595D01*
X222942Y143367D01*
X221567Y144365D01*
X220365Y145567D01*
X219367Y146942D01*
X218595Y148456D01*
X218074Y150061D01*
X226061Y150061D01*
X226061Y142074D01*
X224456Y142595D01*
G37*
%LPD*%
%LPC*%
G36*
X376856Y383895D02*
X376856Y383895D01*
X375342Y384667D01*
X373967Y385665D01*
X372765Y386867D01*
X371767Y388242D01*
X370995Y389756D01*
X370474Y391361D01*
X378461Y391361D01*
X378461Y383374D01*
X376856Y383895D01*
G37*
%LPD*%
%LPC*%
G36*
X297156Y231495D02*
X297156Y231495D01*
X295642Y232267D01*
X294267Y233265D01*
X293065Y234467D01*
X292067Y235842D01*
X291295Y237356D01*
X290774Y238961D01*
X298761Y238961D01*
X298761Y230974D01*
X297156Y231495D01*
G37*
%LPD*%
D10*
X172210Y256290D03*
X172210Y279400D03*
X172210Y302510D03*
D11*
X234190Y279400D03*
D12*
X477000Y307500D02*
X477000Y327500D01*
X538000Y327500D02*
X538000Y307500D01*
X518000Y365500D02*
X498000Y365500D01*
D13*
X370305Y69165D03*
X370305Y94565D03*
D14*
X366332Y546106D02*
X351092Y546106D01*
X351092Y500894D02*
X366332Y500894D01*
X301308Y546106D02*
X286068Y546106D01*
X286068Y500894D02*
X301308Y500894D01*
X212100Y548480D02*
X212100Y563720D01*
X186700Y563720D02*
X186700Y548480D01*
X161300Y548480D02*
X161300Y563720D01*
X135900Y563720D02*
X135900Y548480D01*
X110500Y548480D02*
X110500Y563720D01*
X85100Y563720D02*
X85100Y548480D01*
X59700Y548480D02*
X59700Y563720D01*
X532400Y223920D02*
X532400Y208680D01*
X507000Y208680D02*
X507000Y223920D01*
X481600Y223920D02*
X481600Y208680D01*
D13*
X117800Y38100D03*
X117800Y114300D03*
X155900Y114300D03*
X155900Y38100D03*
X139700Y482600D03*
X139700Y406400D03*
X177800Y482600D03*
X177800Y406400D03*
X215900Y482600D03*
X215900Y406400D03*
X194000Y114300D03*
X194000Y38100D03*
X233570Y39041D03*
X233570Y115241D03*
D15*
X411634Y278229D03*
D16*
X386634Y278229D03*
D15*
X381000Y418900D03*
D16*
X381000Y393900D03*
D15*
X301300Y266500D03*
D16*
X301300Y241500D03*
D15*
X228600Y177600D03*
D16*
X228600Y152600D03*
D15*
X22900Y127000D03*
D16*
X47900Y127000D03*
D13*
X63500Y469900D03*
X63500Y444500D03*
X63500Y419100D03*
D14*
X465930Y416880D02*
X465930Y432120D01*
X493870Y432120D02*
X493870Y416880D01*
D13*
X272055Y113612D03*
X272055Y37412D03*
D17*
X215900Y482600D02*
X186700Y511800D01*
X186700Y556100D01*
X73500Y152600D02*
X47900Y127000D01*
X215900Y457200D02*
X215900Y482600D01*
X215900Y457200D02*
X203200Y444500D01*
X63500Y444500D01*
X88900Y444500D01*
D18*
X137410Y256290D02*
X172210Y256290D01*
X137410Y256290D02*
X13462Y380238D01*
X13462Y431800D01*
X26162Y444500D01*
X63500Y444500D01*
D19*
X228600Y330200D03*
D18*
X203200Y304800D01*
X203200Y266700D01*
X192790Y256290D01*
X177800Y256290D01*
X172210Y256290D01*
D17*
X203200Y152600D02*
X228600Y152600D01*
X203200Y152600D02*
X73500Y152600D01*
X177800Y178000D02*
X203200Y152600D01*
X177800Y178000D02*
X177800Y256290D01*
X381000Y393900D02*
X386634Y388266D01*
X386634Y278229D01*
D18*
X212600Y215900D02*
X172210Y256290D01*
X212600Y215900D02*
X215900Y215900D01*
D19*
X215900Y215900D03*
X254000Y215900D03*
D18*
X330200Y215900D01*
D19*
X330200Y215900D03*
D18*
X481600Y216300D02*
X481600Y261100D01*
X538000Y317500D01*
D17*
X234190Y279400D02*
X234190Y266700D01*
X234190Y183190D01*
X228700Y177700D02*
X228600Y177600D01*
X234390Y266500D02*
X301300Y266500D01*
X234390Y266500D02*
X234190Y266700D01*
X301300Y266500D02*
X330000Y266500D01*
X330200Y266700D01*
X342900Y254000D01*
X165100Y76200D02*
X127000Y38100D01*
X117800Y38100D01*
X342900Y137827D02*
X342900Y254000D01*
X281273Y76200D02*
X165100Y76200D01*
X281273Y76200D02*
X342900Y137827D01*
D18*
X234190Y183190D02*
X234190Y279400D01*
X234190Y183190D02*
X228700Y177700D01*
D20*
X172210Y279400D02*
X152400Y279400D01*
X63500Y368300D01*
X63500Y419100D01*
D18*
X293688Y500894D02*
X358712Y500894D01*
D19*
X25400Y546100D03*
D17*
X25400Y571500D01*
X38100Y584200D01*
X101600Y584200D02*
X110500Y575300D01*
X110500Y556100D01*
X101600Y584200D02*
X38100Y584200D01*
D19*
X254000Y495300D03*
D17*
X254000Y546100D01*
X244000Y556100D01*
X212100Y556100D01*
X211780Y132080D02*
X194000Y114300D01*
X264160Y132080D02*
X320040Y187960D01*
D19*
X320040Y187960D03*
D17*
X264160Y132080D02*
X211780Y132080D01*
D18*
X477000Y317500D02*
X477000Y335800D01*
X393900Y418900D02*
X381000Y418900D01*
X393900Y418900D02*
X477000Y335800D01*
X355800Y418900D02*
X355600Y419100D01*
X355800Y418900D02*
X381000Y418900D01*
X288600Y418900D01*
X172210Y302510D01*
X393900Y418900D02*
X460330Y418900D01*
X465930Y424500D01*
D17*
X233570Y43624D02*
X233570Y39041D01*
X233570Y43624D02*
X250834Y60888D01*
X351817Y60888D01*
X352905Y59800D01*
X351817Y60888D02*
X362028Y60888D01*
X370305Y69165D01*
M02*
