G04 EAGLE Gerber RS-274X export*
G75*
%MOMM*%
%FSLAX34Y34*%
%LPD*%
%INTop Copper*%
%IPPOS*%
%AMOC8*
5,1,8,0,0,1.08239X$1,22.5*%
G01*
%ADD10C,2.000000*%
%ADD11C,1.879600*%
%ADD12C,1.524000*%
%ADD13C,0.170000*%
%ADD14R,1.000000X2.500000*%
%ADD15R,1.651000X1.651000*%
%ADD16C,1.651000*%
%ADD17C,0.304800*%
%ADD18C,0.508000*%
%ADD19C,0.756400*%

G36*
X560075Y10924D02*
X560075Y10924D01*
X560080Y10923D01*
X560173Y10944D01*
X560267Y10962D01*
X560271Y10965D01*
X560276Y10966D01*
X560354Y11022D01*
X560432Y11075D01*
X560435Y11079D01*
X560439Y11082D01*
X560490Y11164D01*
X560542Y11243D01*
X560542Y11248D01*
X560545Y11253D01*
X560577Y11430D01*
X560577Y585470D01*
X560576Y585475D01*
X560577Y585480D01*
X560556Y585573D01*
X560538Y585667D01*
X560535Y585671D01*
X560534Y585676D01*
X560478Y585754D01*
X560425Y585832D01*
X560421Y585835D01*
X560418Y585839D01*
X560336Y585890D01*
X560257Y585942D01*
X560252Y585942D01*
X560247Y585945D01*
X560070Y585977D01*
X79959Y585977D01*
X79956Y585977D01*
X79954Y585977D01*
X79859Y585957D01*
X79762Y585938D01*
X79760Y585936D01*
X79758Y585936D01*
X79677Y585880D01*
X79597Y585825D01*
X79595Y585823D01*
X79593Y585821D01*
X79540Y585738D01*
X79487Y585657D01*
X79487Y585654D01*
X79485Y585652D01*
X79469Y585556D01*
X79452Y585460D01*
X79452Y585457D01*
X79452Y585455D01*
X79474Y585361D01*
X79495Y585264D01*
X79497Y585262D01*
X79497Y585259D01*
X79600Y585111D01*
X88149Y576563D01*
X88149Y572694D01*
X88150Y572688D01*
X88149Y572681D01*
X88170Y572590D01*
X88188Y572498D01*
X88192Y572492D01*
X88193Y572486D01*
X88248Y572410D01*
X88301Y572332D01*
X88306Y572328D01*
X88310Y572323D01*
X88462Y572226D01*
X90280Y571473D01*
X92853Y568900D01*
X94245Y565539D01*
X94245Y546661D01*
X92853Y543300D01*
X90280Y540727D01*
X89615Y540452D01*
X88391Y539945D01*
X87166Y539438D01*
X86919Y539335D01*
X83281Y539335D01*
X79920Y540727D01*
X77347Y543300D01*
X75955Y546661D01*
X75955Y565539D01*
X77347Y568900D01*
X79920Y571473D01*
X79922Y571474D01*
X79923Y571474D01*
X81147Y571981D01*
X81738Y572226D01*
X81744Y572229D01*
X81750Y572231D01*
X81827Y572285D01*
X81905Y572337D01*
X81908Y572343D01*
X81913Y572347D01*
X81963Y572427D01*
X82015Y572505D01*
X82016Y572511D01*
X82019Y572517D01*
X82051Y572694D01*
X82051Y573827D01*
X82050Y573835D01*
X82051Y573843D01*
X82030Y573932D01*
X82012Y574024D01*
X82007Y574030D01*
X82005Y574038D01*
X81903Y574186D01*
X74832Y581257D01*
X74825Y581261D01*
X74821Y581267D01*
X74742Y581316D01*
X74665Y581368D01*
X74657Y581369D01*
X74650Y581373D01*
X74473Y581405D01*
X39827Y581405D01*
X39819Y581404D01*
X39811Y581405D01*
X39722Y581384D01*
X39630Y581366D01*
X39624Y581361D01*
X39616Y581359D01*
X39468Y581257D01*
X15897Y557686D01*
X15893Y557679D01*
X15887Y557675D01*
X15838Y557596D01*
X15786Y557519D01*
X15785Y557511D01*
X15781Y557504D01*
X15749Y557327D01*
X15749Y381073D01*
X15750Y381065D01*
X15749Y381057D01*
X15770Y380968D01*
X15788Y380876D01*
X15793Y380870D01*
X15795Y380862D01*
X15897Y380714D01*
X23509Y373102D01*
X23512Y373101D01*
X23513Y373099D01*
X23594Y373046D01*
X23676Y372991D01*
X23679Y372991D01*
X23681Y372989D01*
X23777Y372972D01*
X23873Y372954D01*
X23876Y372954D01*
X23878Y372954D01*
X23975Y372975D01*
X24069Y372995D01*
X24071Y372997D01*
X24074Y372997D01*
X24154Y373054D01*
X24234Y373110D01*
X24235Y373112D01*
X24237Y373113D01*
X24289Y373196D01*
X24341Y373279D01*
X24342Y373281D01*
X24343Y373284D01*
X24375Y373461D01*
X24375Y374034D01*
X25766Y375425D01*
X36034Y375425D01*
X37425Y374034D01*
X37425Y348766D01*
X36034Y347375D01*
X25766Y347375D01*
X24375Y348766D01*
X24375Y363403D01*
X24374Y363411D01*
X24375Y363419D01*
X24354Y363508D01*
X24336Y363600D01*
X24331Y363606D01*
X24329Y363614D01*
X24227Y363762D01*
X11789Y376200D01*
X11786Y376201D01*
X11785Y376203D01*
X11704Y376256D01*
X11622Y376311D01*
X11619Y376311D01*
X11617Y376313D01*
X11521Y376330D01*
X11425Y376348D01*
X11422Y376348D01*
X11420Y376348D01*
X11323Y376327D01*
X11229Y376307D01*
X11227Y376305D01*
X11224Y376305D01*
X11144Y376248D01*
X11064Y376192D01*
X11063Y376190D01*
X11061Y376189D01*
X11009Y376106D01*
X10957Y376023D01*
X10956Y376021D01*
X10955Y376018D01*
X10923Y375841D01*
X10923Y11430D01*
X10924Y11425D01*
X10923Y11420D01*
X10944Y11327D01*
X10962Y11233D01*
X10965Y11229D01*
X10966Y11224D01*
X11022Y11146D01*
X11075Y11068D01*
X11079Y11065D01*
X11082Y11061D01*
X11164Y11010D01*
X11243Y10958D01*
X11248Y10958D01*
X11253Y10955D01*
X11430Y10923D01*
X560070Y10923D01*
X560075Y10924D01*
G37*
%LPC*%
G36*
X115627Y103377D02*
X115627Y103377D01*
X111613Y105040D01*
X108540Y108113D01*
X107370Y110938D01*
X107366Y110944D01*
X107365Y110950D01*
X107310Y111027D01*
X107258Y111105D01*
X107253Y111108D01*
X107249Y111113D01*
X107169Y111163D01*
X107091Y111215D01*
X107084Y111216D01*
X107079Y111219D01*
X106901Y111251D01*
X87637Y111251D01*
X27851Y171037D01*
X27851Y174715D01*
X27851Y174718D01*
X27851Y174720D01*
X27831Y174815D01*
X27812Y174912D01*
X27810Y174914D01*
X27810Y174916D01*
X27754Y174997D01*
X27699Y175077D01*
X27697Y175079D01*
X27695Y175081D01*
X27612Y175134D01*
X27531Y175187D01*
X27528Y175187D01*
X27526Y175189D01*
X27430Y175205D01*
X27334Y175222D01*
X27331Y175222D01*
X27329Y175222D01*
X27234Y175200D01*
X27138Y175179D01*
X27136Y175177D01*
X27133Y175177D01*
X26985Y175074D01*
X26097Y174186D01*
X26093Y174179D01*
X26087Y174175D01*
X26038Y174096D01*
X25986Y174019D01*
X25985Y174011D01*
X25981Y174004D01*
X25949Y173827D01*
X25949Y137287D01*
X25950Y137282D01*
X25949Y137277D01*
X25970Y137184D01*
X25988Y137090D01*
X25991Y137086D01*
X25992Y137081D01*
X26048Y137003D01*
X26101Y136925D01*
X26105Y136922D01*
X26108Y136918D01*
X26190Y136867D01*
X26269Y136815D01*
X26274Y136815D01*
X26279Y136812D01*
X26456Y136780D01*
X31787Y136780D01*
X32680Y135887D01*
X32680Y118113D01*
X31787Y117220D01*
X14013Y117220D01*
X13120Y118113D01*
X13120Y135887D01*
X14013Y136780D01*
X19344Y136780D01*
X19349Y136781D01*
X19354Y136780D01*
X19447Y136801D01*
X19541Y136819D01*
X19545Y136822D01*
X19550Y136823D01*
X19628Y136879D01*
X19706Y136932D01*
X19709Y136936D01*
X19713Y136939D01*
X19764Y137021D01*
X19816Y137100D01*
X19816Y137105D01*
X19819Y137110D01*
X19851Y137287D01*
X19851Y176563D01*
X25798Y182509D01*
X25799Y182512D01*
X25801Y182513D01*
X25854Y182594D01*
X25909Y182676D01*
X25909Y182679D01*
X25911Y182681D01*
X25928Y182777D01*
X25946Y182873D01*
X25946Y182876D01*
X25946Y182878D01*
X25925Y182975D01*
X25905Y183069D01*
X25903Y183071D01*
X25903Y183074D01*
X25846Y183154D01*
X25790Y183234D01*
X25788Y183235D01*
X25787Y183237D01*
X25704Y183289D01*
X25621Y183341D01*
X25619Y183342D01*
X25616Y183343D01*
X25439Y183375D01*
X25268Y183375D01*
X24375Y184268D01*
X24375Y210532D01*
X25268Y211425D01*
X27344Y211425D01*
X27349Y211426D01*
X27354Y211425D01*
X27447Y211446D01*
X27541Y211464D01*
X27545Y211467D01*
X27550Y211468D01*
X27628Y211524D01*
X27706Y211577D01*
X27709Y211581D01*
X27713Y211584D01*
X27764Y211666D01*
X27816Y211745D01*
X27816Y211750D01*
X27819Y211755D01*
X27851Y211932D01*
X27851Y222663D01*
X36837Y231649D01*
X189027Y231649D01*
X189035Y231650D01*
X189043Y231649D01*
X189132Y231670D01*
X189224Y231688D01*
X189230Y231693D01*
X189238Y231695D01*
X189386Y231797D01*
X250803Y293214D01*
X250807Y293221D01*
X250813Y293225D01*
X250862Y293304D01*
X250914Y293381D01*
X250915Y293389D01*
X250919Y293396D01*
X250951Y293573D01*
X250951Y490634D01*
X250950Y490642D01*
X250951Y490649D01*
X250930Y490739D01*
X250912Y490830D01*
X250907Y490837D01*
X250905Y490844D01*
X250803Y490992D01*
X248693Y493102D01*
X248693Y497498D01*
X251802Y500607D01*
X256198Y500607D01*
X259307Y497498D01*
X259307Y493102D01*
X257197Y490992D01*
X257193Y490986D01*
X257187Y490981D01*
X257138Y490903D01*
X257086Y490825D01*
X257085Y490818D01*
X257081Y490811D01*
X257049Y490634D01*
X257049Y290837D01*
X191763Y225551D01*
X39573Y225551D01*
X39565Y225550D01*
X39557Y225551D01*
X39468Y225530D01*
X39376Y225512D01*
X39370Y225507D01*
X39362Y225505D01*
X39214Y225403D01*
X34097Y220286D01*
X34093Y220279D01*
X34087Y220275D01*
X34038Y220196D01*
X33986Y220119D01*
X33985Y220111D01*
X33981Y220104D01*
X33949Y219927D01*
X33949Y211932D01*
X33950Y211927D01*
X33949Y211922D01*
X33970Y211829D01*
X33988Y211735D01*
X33991Y211731D01*
X33992Y211726D01*
X34048Y211648D01*
X34101Y211570D01*
X34105Y211567D01*
X34108Y211563D01*
X34190Y211512D01*
X34269Y211460D01*
X34274Y211460D01*
X34279Y211457D01*
X34456Y211425D01*
X36532Y211425D01*
X37425Y210532D01*
X37425Y184268D01*
X36532Y183375D01*
X34456Y183375D01*
X34451Y183374D01*
X34446Y183375D01*
X34353Y183354D01*
X34259Y183336D01*
X34255Y183333D01*
X34250Y183332D01*
X34172Y183276D01*
X34094Y183223D01*
X34091Y183219D01*
X34087Y183216D01*
X34036Y183134D01*
X33984Y183055D01*
X33984Y183050D01*
X33981Y183045D01*
X33949Y182868D01*
X33949Y173773D01*
X33950Y173765D01*
X33949Y173757D01*
X33970Y173668D01*
X33988Y173576D01*
X33993Y173570D01*
X33995Y173562D01*
X34097Y173414D01*
X90014Y117497D01*
X90021Y117493D01*
X90025Y117487D01*
X90104Y117438D01*
X90181Y117386D01*
X90189Y117385D01*
X90196Y117381D01*
X90373Y117349D01*
X106901Y117349D01*
X106908Y117350D01*
X106914Y117349D01*
X107006Y117370D01*
X107098Y117388D01*
X107103Y117392D01*
X107110Y117393D01*
X107186Y117448D01*
X107264Y117501D01*
X107267Y117506D01*
X107272Y117510D01*
X107370Y117662D01*
X108540Y120487D01*
X111613Y123560D01*
X111642Y123572D01*
X112866Y124079D01*
X114091Y124586D01*
X115315Y125094D01*
X115316Y125094D01*
X115627Y125223D01*
X119973Y125223D01*
X123987Y123560D01*
X127060Y120487D01*
X128723Y116473D01*
X128723Y112127D01*
X127060Y108113D01*
X123987Y105040D01*
X123225Y104724D01*
X122000Y104217D01*
X120776Y103710D01*
X119973Y103377D01*
X115627Y103377D01*
G37*
%LPD*%
%LPC*%
G36*
X292413Y256720D02*
X292413Y256720D01*
X291520Y257613D01*
X291520Y275387D01*
X292413Y276280D01*
X297744Y276280D01*
X297749Y276281D01*
X297754Y276280D01*
X297847Y276301D01*
X297941Y276319D01*
X297945Y276322D01*
X297950Y276323D01*
X298028Y276379D01*
X298106Y276432D01*
X298109Y276436D01*
X298113Y276439D01*
X298164Y276521D01*
X298216Y276600D01*
X298216Y276605D01*
X298219Y276610D01*
X298251Y276787D01*
X298251Y491242D01*
X298250Y491247D01*
X298251Y491252D01*
X298230Y491345D01*
X298212Y491439D01*
X298209Y491443D01*
X298208Y491448D01*
X298152Y491526D01*
X298099Y491604D01*
X298095Y491607D01*
X298092Y491611D01*
X298010Y491662D01*
X297931Y491714D01*
X297926Y491714D01*
X297921Y491717D01*
X297744Y491749D01*
X284249Y491749D01*
X280888Y493141D01*
X278315Y495714D01*
X276923Y499075D01*
X276923Y502713D01*
X278315Y506074D01*
X280897Y508656D01*
X280900Y508660D01*
X280904Y508663D01*
X280956Y508744D01*
X281008Y508823D01*
X281009Y508828D01*
X281012Y508832D01*
X281028Y508926D01*
X281046Y509020D01*
X281045Y509025D01*
X281046Y509030D01*
X281024Y509122D01*
X281004Y509216D01*
X281001Y509220D01*
X281000Y509225D01*
X280897Y509373D01*
X272768Y517503D01*
X272761Y517507D01*
X272757Y517513D01*
X272678Y517562D01*
X272601Y517614D01*
X272593Y517615D01*
X272586Y517619D01*
X272409Y517651D01*
X217373Y517651D01*
X217365Y517650D01*
X217357Y517651D01*
X217268Y517630D01*
X217176Y517612D01*
X217170Y517607D01*
X217162Y517605D01*
X217014Y517503D01*
X187662Y488151D01*
X187659Y488145D01*
X187653Y488142D01*
X187604Y488062D01*
X187551Y487984D01*
X187550Y487977D01*
X187547Y487972D01*
X187531Y487879D01*
X187514Y487787D01*
X187515Y487781D01*
X187514Y487774D01*
X187552Y487598D01*
X188723Y484773D01*
X188723Y480427D01*
X187060Y476413D01*
X183987Y473340D01*
X183137Y472988D01*
X181912Y472481D01*
X180688Y471973D01*
X179973Y471677D01*
X175627Y471677D01*
X171613Y473340D01*
X168540Y476413D01*
X167370Y479238D01*
X167366Y479244D01*
X167365Y479250D01*
X167310Y479327D01*
X167258Y479405D01*
X167253Y479408D01*
X167249Y479413D01*
X167169Y479463D01*
X167091Y479515D01*
X167084Y479516D01*
X167079Y479519D01*
X166901Y479551D01*
X150599Y479551D01*
X150592Y479550D01*
X150586Y479551D01*
X150494Y479530D01*
X150402Y479512D01*
X150397Y479508D01*
X150390Y479507D01*
X150314Y479452D01*
X150236Y479399D01*
X150233Y479394D01*
X150228Y479390D01*
X150130Y479238D01*
X148960Y476413D01*
X145887Y473340D01*
X145037Y472988D01*
X143812Y472481D01*
X142588Y471973D01*
X141873Y471677D01*
X137527Y471677D01*
X133513Y473340D01*
X130440Y476413D01*
X128777Y480427D01*
X128777Y484773D01*
X130440Y488787D01*
X133513Y491860D01*
X134678Y492343D01*
X135903Y492850D01*
X137127Y493357D01*
X137128Y493357D01*
X137527Y493523D01*
X141873Y493523D01*
X145887Y491860D01*
X148960Y488787D01*
X150130Y485962D01*
X150134Y485956D01*
X150135Y485950D01*
X150190Y485873D01*
X150242Y485795D01*
X150247Y485792D01*
X150251Y485787D01*
X150331Y485737D01*
X150409Y485685D01*
X150416Y485684D01*
X150421Y485681D01*
X150599Y485649D01*
X166901Y485649D01*
X166908Y485650D01*
X166914Y485649D01*
X167006Y485670D01*
X167098Y485688D01*
X167103Y485692D01*
X167110Y485693D01*
X167186Y485748D01*
X167264Y485801D01*
X167267Y485806D01*
X167272Y485810D01*
X167370Y485962D01*
X168540Y488787D01*
X171613Y491860D01*
X172778Y492343D01*
X174003Y492850D01*
X175227Y493357D01*
X175228Y493357D01*
X175627Y493523D01*
X179973Y493523D01*
X182798Y492352D01*
X182804Y492351D01*
X182810Y492348D01*
X182903Y492332D01*
X182995Y492314D01*
X183001Y492315D01*
X183008Y492314D01*
X183099Y492335D01*
X183191Y492354D01*
X183196Y492358D01*
X183203Y492360D01*
X183351Y492462D01*
X207674Y516785D01*
X207675Y516788D01*
X207677Y516789D01*
X207730Y516870D01*
X207785Y516952D01*
X207785Y516955D01*
X207787Y516957D01*
X207804Y517053D01*
X207822Y517149D01*
X207822Y517152D01*
X207822Y517154D01*
X207801Y517251D01*
X207781Y517345D01*
X207779Y517347D01*
X207779Y517350D01*
X207722Y517430D01*
X207666Y517510D01*
X207664Y517511D01*
X207663Y517513D01*
X207580Y517565D01*
X207497Y517617D01*
X207495Y517618D01*
X207492Y517619D01*
X207315Y517651D01*
X151137Y517651D01*
X132851Y535937D01*
X132851Y539506D01*
X132850Y539512D01*
X132851Y539519D01*
X132830Y539610D01*
X132812Y539702D01*
X132808Y539708D01*
X132807Y539714D01*
X132752Y539790D01*
X132699Y539868D01*
X132694Y539872D01*
X132690Y539877D01*
X132538Y539974D01*
X130720Y540727D01*
X128147Y543300D01*
X126755Y546661D01*
X126755Y565539D01*
X128147Y568900D01*
X130720Y571473D01*
X130722Y571474D01*
X130723Y571474D01*
X131947Y571981D01*
X133172Y572488D01*
X134081Y572865D01*
X137719Y572865D01*
X141080Y571473D01*
X143653Y568900D01*
X145045Y565539D01*
X145045Y546661D01*
X143653Y543300D01*
X141080Y540727D01*
X140415Y540452D01*
X139262Y539974D01*
X139256Y539971D01*
X139250Y539969D01*
X139173Y539915D01*
X139095Y539863D01*
X139092Y539857D01*
X139087Y539853D01*
X139037Y539773D01*
X138985Y539695D01*
X138984Y539689D01*
X138981Y539683D01*
X138949Y539506D01*
X138949Y538673D01*
X138950Y538665D01*
X138949Y538657D01*
X138970Y538567D01*
X138988Y538476D01*
X138993Y538470D01*
X138995Y538462D01*
X139097Y538314D01*
X153514Y523897D01*
X153519Y523894D01*
X153522Y523890D01*
X153524Y523889D01*
X153525Y523887D01*
X153604Y523838D01*
X153681Y523786D01*
X153689Y523785D01*
X153696Y523781D01*
X153873Y523749D01*
X275145Y523749D01*
X288706Y510187D01*
X288713Y510183D01*
X288717Y510177D01*
X288796Y510128D01*
X288873Y510076D01*
X288881Y510075D01*
X288888Y510071D01*
X289065Y510039D01*
X303127Y510039D01*
X306488Y508647D01*
X309061Y506074D01*
X310453Y502713D01*
X310453Y499075D01*
X309061Y495714D01*
X306488Y493141D01*
X305593Y492771D01*
X304662Y492385D01*
X304656Y492381D01*
X304650Y492380D01*
X304573Y492325D01*
X304495Y492273D01*
X304492Y492268D01*
X304487Y492264D01*
X304437Y492184D01*
X304385Y492106D01*
X304384Y492099D01*
X304381Y492094D01*
X304349Y491916D01*
X304349Y276787D01*
X304350Y276782D01*
X304349Y276777D01*
X304370Y276684D01*
X304388Y276590D01*
X304391Y276586D01*
X304392Y276581D01*
X304448Y276503D01*
X304501Y276425D01*
X304505Y276422D01*
X304508Y276418D01*
X304590Y276367D01*
X304669Y276315D01*
X304674Y276315D01*
X304679Y276312D01*
X304856Y276280D01*
X310187Y276280D01*
X311080Y275387D01*
X311080Y257613D01*
X310187Y256720D01*
X292413Y256720D01*
G37*
%LPD*%
%LPC*%
G36*
X317842Y182653D02*
X317842Y182653D01*
X314733Y185762D01*
X314733Y190158D01*
X316843Y192268D01*
X316847Y192274D01*
X316853Y192279D01*
X316902Y192357D01*
X316954Y192435D01*
X316955Y192442D01*
X316959Y192449D01*
X316991Y192626D01*
X316991Y468623D01*
X321923Y473554D01*
X321927Y473561D01*
X321933Y473565D01*
X321982Y473644D01*
X322034Y473721D01*
X322035Y473729D01*
X322039Y473736D01*
X322071Y473913D01*
X322071Y529583D01*
X324463Y531974D01*
X333664Y541175D01*
X333665Y541178D01*
X333667Y541179D01*
X333720Y541260D01*
X333775Y541342D01*
X333775Y541345D01*
X333777Y541347D01*
X333794Y541443D01*
X333812Y541539D01*
X333812Y541542D01*
X333812Y541544D01*
X333791Y541641D01*
X333771Y541735D01*
X333769Y541737D01*
X333769Y541740D01*
X333712Y541820D01*
X333656Y541900D01*
X333654Y541901D01*
X333653Y541903D01*
X333570Y541955D01*
X333487Y542007D01*
X333485Y542008D01*
X333482Y542009D01*
X333305Y542041D01*
X309861Y542041D01*
X309855Y542040D01*
X309849Y542041D01*
X309757Y542020D01*
X309665Y542002D01*
X309659Y541998D01*
X309653Y541997D01*
X309577Y541942D01*
X309499Y541889D01*
X309496Y541884D01*
X309490Y541880D01*
X309393Y541728D01*
X309061Y540926D01*
X306488Y538353D01*
X305432Y537916D01*
X304207Y537409D01*
X303127Y536961D01*
X284249Y536961D01*
X280888Y538353D01*
X278315Y540926D01*
X276923Y544287D01*
X276923Y547925D01*
X278315Y551286D01*
X280888Y553859D01*
X281778Y554227D01*
X283002Y554734D01*
X284227Y555242D01*
X284249Y555251D01*
X303127Y555251D01*
X306488Y553859D01*
X309061Y551286D01*
X309393Y550484D01*
X309396Y550478D01*
X309398Y550472D01*
X309452Y550395D01*
X309505Y550317D01*
X309510Y550314D01*
X309514Y550309D01*
X309594Y550259D01*
X309672Y550207D01*
X309679Y550206D01*
X309684Y550203D01*
X309861Y550171D01*
X342539Y550171D01*
X342545Y550172D01*
X342551Y550171D01*
X342643Y550192D01*
X342735Y550210D01*
X342741Y550214D01*
X342747Y550215D01*
X342823Y550270D01*
X342901Y550323D01*
X342904Y550328D01*
X342910Y550332D01*
X343007Y550484D01*
X343339Y551286D01*
X345912Y553859D01*
X346802Y554227D01*
X348026Y554734D01*
X349251Y555242D01*
X349273Y555251D01*
X368151Y555251D01*
X371512Y553859D01*
X374085Y551286D01*
X375477Y547925D01*
X375477Y544287D01*
X374085Y540926D01*
X371512Y538353D01*
X370456Y537916D01*
X369231Y537409D01*
X368151Y536961D01*
X349273Y536961D01*
X345912Y538353D01*
X343339Y540926D01*
X343249Y541145D01*
X343246Y541148D01*
X343246Y541152D01*
X343191Y541232D01*
X343137Y541312D01*
X343134Y541314D01*
X343131Y541317D01*
X343050Y541368D01*
X342969Y541422D01*
X342965Y541422D01*
X342962Y541425D01*
X342867Y541441D01*
X342772Y541458D01*
X342768Y541457D01*
X342765Y541458D01*
X342671Y541436D01*
X342576Y541416D01*
X342573Y541413D01*
X342569Y541413D01*
X342421Y541310D01*
X328774Y527663D01*
X328317Y527206D01*
X328313Y527199D01*
X328307Y527195D01*
X328258Y527116D01*
X328206Y527039D01*
X328205Y527031D01*
X328201Y527024D01*
X328169Y526847D01*
X328169Y471177D01*
X323237Y466246D01*
X323233Y466239D01*
X323227Y466235D01*
X323178Y466156D01*
X323126Y466079D01*
X323125Y466071D01*
X323121Y466064D01*
X323089Y465887D01*
X323089Y192626D01*
X323090Y192618D01*
X323089Y192611D01*
X323110Y192521D01*
X323128Y192430D01*
X323133Y192423D01*
X323135Y192416D01*
X323237Y192268D01*
X325347Y190158D01*
X325347Y185762D01*
X322238Y182653D01*
X317842Y182653D01*
G37*
%LPD*%
%LPC*%
G36*
X505181Y199535D02*
X505181Y199535D01*
X501820Y200927D01*
X499247Y203500D01*
X497855Y206861D01*
X497855Y225739D01*
X499247Y229100D01*
X501820Y231673D01*
X502622Y232005D01*
X502628Y232008D01*
X502634Y232010D01*
X502711Y232064D01*
X502789Y232117D01*
X502792Y232122D01*
X502797Y232126D01*
X502847Y232206D01*
X502899Y232284D01*
X502900Y232291D01*
X502903Y232296D01*
X502935Y232473D01*
X502935Y240406D01*
X502934Y240414D01*
X502935Y240422D01*
X502914Y240512D01*
X502896Y240603D01*
X502891Y240609D01*
X502889Y240617D01*
X502787Y240765D01*
X493765Y249787D01*
X493758Y249791D01*
X493754Y249797D01*
X493675Y249846D01*
X493598Y249898D01*
X493590Y249899D01*
X493584Y249903D01*
X493406Y249935D01*
X434180Y249935D01*
X415814Y268301D01*
X415808Y268305D01*
X415803Y268311D01*
X415724Y268360D01*
X415647Y268412D01*
X415640Y268413D01*
X415633Y268417D01*
X415456Y268449D01*
X402748Y268449D01*
X401855Y269342D01*
X401855Y287116D01*
X402748Y288009D01*
X407062Y288009D01*
X407067Y288010D01*
X407073Y288009D01*
X407166Y288030D01*
X407259Y288048D01*
X407263Y288051D01*
X407268Y288052D01*
X407346Y288108D01*
X407425Y288161D01*
X407428Y288165D01*
X407432Y288168D01*
X407482Y288250D01*
X407534Y288329D01*
X407535Y288334D01*
X407538Y288339D01*
X407570Y288516D01*
X407570Y324418D01*
X410099Y326948D01*
X489657Y406505D01*
X489661Y406512D01*
X489667Y406516D01*
X489716Y406595D01*
X489768Y406672D01*
X489769Y406680D01*
X489773Y406686D01*
X489805Y406864D01*
X489805Y408327D01*
X489804Y408333D01*
X489805Y408339D01*
X489784Y408431D01*
X489766Y408523D01*
X489762Y408529D01*
X489761Y408535D01*
X489706Y408611D01*
X489653Y408689D01*
X489648Y408692D01*
X489644Y408698D01*
X489492Y408795D01*
X488690Y409127D01*
X486117Y411700D01*
X484725Y415061D01*
X484725Y433939D01*
X486117Y437300D01*
X488690Y439873D01*
X489229Y440096D01*
X490454Y440603D01*
X491678Y441110D01*
X492051Y441265D01*
X495689Y441265D01*
X499050Y439873D01*
X501623Y437300D01*
X503015Y433939D01*
X503015Y415061D01*
X501623Y411700D01*
X499050Y409127D01*
X498248Y408795D01*
X498242Y408792D01*
X498236Y408790D01*
X498160Y408736D01*
X498081Y408683D01*
X498078Y408678D01*
X498073Y408674D01*
X498023Y408595D01*
X497971Y408516D01*
X497970Y408509D01*
X497967Y408504D01*
X497935Y408327D01*
X497935Y403286D01*
X495405Y400757D01*
X415848Y321199D01*
X415843Y321193D01*
X415837Y321188D01*
X415788Y321109D01*
X415737Y321032D01*
X415735Y321025D01*
X415731Y321018D01*
X415699Y320841D01*
X415699Y288516D01*
X415700Y288511D01*
X415699Y288506D01*
X415720Y288413D01*
X415739Y288319D01*
X415742Y288315D01*
X415743Y288310D01*
X415798Y288232D01*
X415851Y288154D01*
X415856Y288151D01*
X415859Y288147D01*
X415940Y288096D01*
X416019Y288044D01*
X416025Y288044D01*
X416029Y288041D01*
X416206Y288009D01*
X420521Y288009D01*
X421414Y287116D01*
X421414Y274408D01*
X421416Y274400D01*
X421414Y274392D01*
X421435Y274302D01*
X421454Y274211D01*
X421458Y274205D01*
X421460Y274197D01*
X421563Y274049D01*
X437398Y258213D01*
X437405Y258209D01*
X437410Y258203D01*
X437488Y258154D01*
X437565Y258102D01*
X437573Y258101D01*
X437580Y258097D01*
X437757Y258065D01*
X496984Y258065D01*
X511065Y243984D01*
X511065Y232473D01*
X511066Y232467D01*
X511065Y232461D01*
X511086Y232369D01*
X511104Y232277D01*
X511108Y232271D01*
X511109Y232265D01*
X511164Y232189D01*
X511217Y232111D01*
X511222Y232108D01*
X511226Y232102D01*
X511378Y232005D01*
X512180Y231673D01*
X514753Y229100D01*
X516145Y225739D01*
X516145Y206861D01*
X514753Y203500D01*
X512180Y200927D01*
X511377Y200595D01*
X511376Y200595D01*
X510152Y200087D01*
X508927Y199580D01*
X508819Y199535D01*
X505181Y199535D01*
G37*
%LPD*%
%LPC*%
G36*
X269882Y26489D02*
X269882Y26489D01*
X265868Y28152D01*
X262795Y31224D01*
X261132Y35239D01*
X261132Y39584D01*
X262795Y43599D01*
X265868Y46672D01*
X266605Y46977D01*
X266606Y46977D01*
X267830Y47484D01*
X269055Y47992D01*
X269882Y48334D01*
X274228Y48334D01*
X278242Y46672D01*
X281315Y43599D01*
X282485Y40774D01*
X282489Y40768D01*
X282490Y40762D01*
X282545Y40685D01*
X282597Y40607D01*
X282603Y40604D01*
X282606Y40598D01*
X282686Y40549D01*
X282765Y40497D01*
X282771Y40496D01*
X282777Y40492D01*
X282954Y40460D01*
X416939Y40460D01*
X416946Y40462D01*
X416954Y40461D01*
X417044Y40482D01*
X417135Y40500D01*
X417142Y40504D01*
X417149Y40506D01*
X417297Y40609D01*
X529203Y152514D01*
X529207Y152521D01*
X529213Y152525D01*
X529262Y152604D01*
X529314Y152681D01*
X529315Y152689D01*
X529319Y152696D01*
X529351Y152873D01*
X529351Y199706D01*
X529350Y199712D01*
X529351Y199719D01*
X529330Y199810D01*
X529312Y199902D01*
X529308Y199908D01*
X529307Y199914D01*
X529252Y199990D01*
X529199Y200068D01*
X529194Y200072D01*
X529190Y200077D01*
X529038Y200174D01*
X527220Y200927D01*
X524647Y203500D01*
X523255Y206861D01*
X523255Y225739D01*
X524647Y229100D01*
X527220Y231673D01*
X528308Y232123D01*
X529533Y232631D01*
X530581Y233065D01*
X534219Y233065D01*
X537580Y231673D01*
X540153Y229100D01*
X541545Y225739D01*
X541545Y206861D01*
X540153Y203500D01*
X537580Y200927D01*
X536777Y200595D01*
X536776Y200595D01*
X535762Y200174D01*
X535756Y200171D01*
X535750Y200169D01*
X535673Y200115D01*
X535595Y200063D01*
X535592Y200057D01*
X535587Y200053D01*
X535537Y199973D01*
X535485Y199895D01*
X535484Y199889D01*
X535481Y199883D01*
X535449Y199706D01*
X535449Y154873D01*
X535450Y154865D01*
X535449Y154857D01*
X535470Y154768D01*
X535488Y154676D01*
X535493Y154670D01*
X535495Y154662D01*
X535597Y154514D01*
X536449Y153663D01*
X536449Y151137D01*
X419674Y34363D01*
X282954Y34363D01*
X282948Y34362D01*
X282941Y34363D01*
X282849Y34342D01*
X282757Y34323D01*
X282752Y34320D01*
X282746Y34318D01*
X282669Y34263D01*
X282592Y34211D01*
X282588Y34205D01*
X282583Y34201D01*
X282485Y34050D01*
X281315Y31224D01*
X278242Y28152D01*
X278189Y28130D01*
X276964Y27622D01*
X275740Y27115D01*
X274515Y26608D01*
X274228Y26489D01*
X269882Y26489D01*
G37*
%LPD*%
%LPC*%
G36*
X105268Y347375D02*
X105268Y347375D01*
X104375Y348268D01*
X104375Y374532D01*
X105268Y375425D01*
X107344Y375425D01*
X107349Y375426D01*
X107354Y375425D01*
X107447Y375446D01*
X107541Y375464D01*
X107545Y375467D01*
X107550Y375468D01*
X107628Y375524D01*
X107706Y375577D01*
X107709Y375581D01*
X107713Y375584D01*
X107764Y375666D01*
X107816Y375745D01*
X107816Y375750D01*
X107819Y375755D01*
X107851Y375932D01*
X107851Y391563D01*
X123803Y407514D01*
X123807Y407521D01*
X123813Y407525D01*
X123862Y407604D01*
X123914Y407681D01*
X123915Y407689D01*
X123919Y407696D01*
X123951Y407873D01*
X123951Y455727D01*
X123950Y455735D01*
X123951Y455743D01*
X123930Y455832D01*
X123912Y455924D01*
X123907Y455930D01*
X123905Y455938D01*
X123803Y456086D01*
X58586Y521303D01*
X56651Y523237D01*
X56651Y539506D01*
X56650Y539512D01*
X56651Y539519D01*
X56630Y539610D01*
X56612Y539702D01*
X56608Y539708D01*
X56607Y539714D01*
X56552Y539790D01*
X56499Y539868D01*
X56494Y539872D01*
X56490Y539877D01*
X56338Y539974D01*
X54520Y540727D01*
X51947Y543300D01*
X50555Y546661D01*
X50555Y565539D01*
X51947Y568900D01*
X54520Y571473D01*
X54522Y571474D01*
X54523Y571474D01*
X55747Y571981D01*
X56972Y572488D01*
X57881Y572865D01*
X61519Y572865D01*
X64880Y571473D01*
X67453Y568900D01*
X68845Y565539D01*
X68845Y546661D01*
X67453Y543300D01*
X64880Y540727D01*
X64215Y540452D01*
X63062Y539974D01*
X63056Y539971D01*
X63050Y539969D01*
X62973Y539915D01*
X62895Y539863D01*
X62892Y539857D01*
X62887Y539853D01*
X62837Y539773D01*
X62785Y539695D01*
X62784Y539689D01*
X62781Y539683D01*
X62749Y539506D01*
X62749Y525973D01*
X62750Y525965D01*
X62749Y525957D01*
X62770Y525868D01*
X62788Y525776D01*
X62793Y525770D01*
X62795Y525762D01*
X62897Y525614D01*
X130049Y458463D01*
X130049Y413420D01*
X130049Y413418D01*
X130049Y413415D01*
X130069Y413320D01*
X130088Y413224D01*
X130090Y413222D01*
X130090Y413219D01*
X130146Y413139D01*
X130201Y413058D01*
X130203Y413057D01*
X130205Y413055D01*
X130288Y413001D01*
X130369Y412949D01*
X130372Y412948D01*
X130374Y412947D01*
X130470Y412931D01*
X130566Y412913D01*
X130569Y412914D01*
X130571Y412913D01*
X130665Y412935D01*
X130762Y412957D01*
X130764Y412958D01*
X130767Y412959D01*
X130915Y413062D01*
X133513Y415660D01*
X133725Y415748D01*
X134950Y416255D01*
X136174Y416762D01*
X137399Y417270D01*
X137527Y417323D01*
X141873Y417323D01*
X145887Y415660D01*
X148960Y412587D01*
X150623Y408573D01*
X150623Y404227D01*
X148960Y400213D01*
X145887Y397140D01*
X145309Y396900D01*
X145308Y396900D01*
X144084Y396393D01*
X142859Y395886D01*
X141873Y395477D01*
X137527Y395477D01*
X133513Y397140D01*
X130440Y400213D01*
X129270Y403038D01*
X129266Y403044D01*
X129265Y403050D01*
X129210Y403127D01*
X129158Y403205D01*
X129153Y403208D01*
X129149Y403213D01*
X129069Y403263D01*
X128991Y403315D01*
X128984Y403316D01*
X128979Y403319D01*
X128801Y403351D01*
X128473Y403351D01*
X128465Y403350D01*
X128457Y403351D01*
X128368Y403330D01*
X128276Y403312D01*
X128270Y403307D01*
X128262Y403305D01*
X128114Y403203D01*
X114097Y389186D01*
X114093Y389179D01*
X114087Y389175D01*
X114038Y389096D01*
X113986Y389019D01*
X113985Y389012D01*
X113984Y389011D01*
X113984Y389010D01*
X113981Y389004D01*
X113949Y388827D01*
X113949Y375932D01*
X113950Y375927D01*
X113949Y375922D01*
X113970Y375829D01*
X113988Y375735D01*
X113991Y375731D01*
X113992Y375726D01*
X114048Y375648D01*
X114101Y375570D01*
X114105Y375567D01*
X114108Y375563D01*
X114190Y375512D01*
X114269Y375460D01*
X114274Y375460D01*
X114279Y375457D01*
X114456Y375425D01*
X116532Y375425D01*
X117425Y374532D01*
X117425Y348268D01*
X116532Y347375D01*
X105268Y347375D01*
G37*
%LPD*%
%LPC*%
G36*
X269882Y102689D02*
X269882Y102689D01*
X265868Y104352D01*
X262795Y107424D01*
X261132Y111439D01*
X261132Y115784D01*
X262795Y119799D01*
X264564Y121567D01*
X264567Y121572D01*
X264571Y121575D01*
X264622Y121655D01*
X264675Y121734D01*
X264676Y121739D01*
X264678Y121744D01*
X264694Y121838D01*
X264712Y121931D01*
X264711Y121936D01*
X264712Y121941D01*
X264690Y122034D01*
X264671Y122127D01*
X264668Y122132D01*
X264666Y122137D01*
X264564Y122285D01*
X252886Y133963D01*
X252879Y133967D01*
X252875Y133973D01*
X252796Y134022D01*
X252719Y134074D01*
X252711Y134075D01*
X252704Y134079D01*
X252527Y134111D01*
X212097Y134111D01*
X186846Y159363D01*
X186839Y159367D01*
X186835Y159373D01*
X186756Y159422D01*
X186679Y159474D01*
X186671Y159475D01*
X186664Y159479D01*
X186487Y159511D01*
X140977Y159511D01*
X129031Y171457D01*
X129031Y182868D01*
X129030Y182873D01*
X129031Y182878D01*
X129010Y182971D01*
X128992Y183065D01*
X128989Y183069D01*
X128988Y183074D01*
X128932Y183152D01*
X128879Y183230D01*
X128875Y183233D01*
X128872Y183237D01*
X128790Y183288D01*
X128711Y183340D01*
X128706Y183340D01*
X128701Y183343D01*
X128524Y183375D01*
X125268Y183375D01*
X124375Y184268D01*
X124375Y210532D01*
X125268Y211425D01*
X136532Y211425D01*
X137425Y210532D01*
X137425Y184268D01*
X136532Y183375D01*
X135636Y183375D01*
X135631Y183374D01*
X135626Y183375D01*
X135533Y183354D01*
X135439Y183336D01*
X135435Y183333D01*
X135430Y183332D01*
X135352Y183276D01*
X135274Y183223D01*
X135271Y183219D01*
X135267Y183216D01*
X135216Y183134D01*
X135164Y183055D01*
X135164Y183050D01*
X135161Y183045D01*
X135129Y182868D01*
X135129Y174193D01*
X135130Y174185D01*
X135129Y174177D01*
X135150Y174088D01*
X135168Y173996D01*
X135173Y173990D01*
X135175Y173982D01*
X135277Y173834D01*
X143354Y165757D01*
X143361Y165753D01*
X143365Y165747D01*
X143444Y165698D01*
X143521Y165646D01*
X143529Y165645D01*
X143536Y165641D01*
X143713Y165609D01*
X189223Y165609D01*
X214474Y140357D01*
X214481Y140353D01*
X214485Y140347D01*
X214564Y140298D01*
X214641Y140246D01*
X214649Y140245D01*
X214656Y140241D01*
X214833Y140209D01*
X255263Y140209D01*
X270789Y124683D01*
X270795Y124679D01*
X270800Y124672D01*
X270878Y124623D01*
X270956Y124572D01*
X270963Y124571D01*
X270970Y124566D01*
X271147Y124534D01*
X274228Y124534D01*
X278242Y122872D01*
X281315Y119799D01*
X282978Y115784D01*
X282978Y111439D01*
X281315Y107424D01*
X278242Y104352D01*
X277917Y104217D01*
X276693Y103710D01*
X275468Y103203D01*
X274243Y102695D01*
X274228Y102689D01*
X269882Y102689D01*
G37*
%LPD*%
%LPC*%
G36*
X231397Y104318D02*
X231397Y104318D01*
X227383Y105981D01*
X224310Y109053D01*
X223140Y111879D01*
X223136Y111884D01*
X223135Y111890D01*
X223080Y111967D01*
X223028Y112045D01*
X223023Y112049D01*
X223019Y112054D01*
X222939Y112104D01*
X222861Y112155D01*
X222854Y112156D01*
X222849Y112160D01*
X222671Y112192D01*
X218777Y112192D01*
X202086Y128883D01*
X202079Y128887D01*
X202075Y128893D01*
X201996Y128942D01*
X201919Y128994D01*
X201911Y128995D01*
X201904Y128999D01*
X201727Y129031D01*
X186697Y129031D01*
X166526Y149203D01*
X166519Y149207D01*
X166515Y149213D01*
X166436Y149262D01*
X166359Y149314D01*
X166351Y149315D01*
X166344Y149319D01*
X166167Y149351D01*
X115577Y149351D01*
X108711Y156217D01*
X108711Y182868D01*
X108710Y182873D01*
X108711Y182878D01*
X108690Y182971D01*
X108672Y183065D01*
X108669Y183069D01*
X108668Y183074D01*
X108612Y183152D01*
X108559Y183230D01*
X108555Y183233D01*
X108552Y183237D01*
X108470Y183288D01*
X108391Y183340D01*
X108386Y183340D01*
X108381Y183343D01*
X108204Y183375D01*
X105268Y183375D01*
X104375Y184268D01*
X104375Y210532D01*
X105268Y211425D01*
X116532Y211425D01*
X117425Y210532D01*
X117425Y184268D01*
X116532Y183375D01*
X115316Y183375D01*
X115311Y183374D01*
X115306Y183375D01*
X115213Y183354D01*
X115119Y183336D01*
X115115Y183333D01*
X115110Y183332D01*
X115032Y183276D01*
X114954Y183223D01*
X114951Y183219D01*
X114947Y183216D01*
X114896Y183134D01*
X114844Y183055D01*
X114844Y183050D01*
X114841Y183045D01*
X114809Y182868D01*
X114809Y158953D01*
X114810Y158945D01*
X114809Y158937D01*
X114830Y158848D01*
X114848Y158756D01*
X114853Y158750D01*
X114855Y158742D01*
X114957Y158594D01*
X117954Y155597D01*
X117961Y155593D01*
X117965Y155587D01*
X118044Y155538D01*
X118121Y155486D01*
X118129Y155485D01*
X118136Y155481D01*
X118313Y155449D01*
X168903Y155449D01*
X189074Y135277D01*
X189081Y135273D01*
X189085Y135267D01*
X189164Y135217D01*
X189241Y135166D01*
X189249Y135165D01*
X189256Y135161D01*
X189433Y135129D01*
X204463Y135129D01*
X221154Y118438D01*
X221160Y118433D01*
X221165Y118427D01*
X221244Y118378D01*
X221321Y118327D01*
X221328Y118325D01*
X221335Y118321D01*
X221512Y118289D01*
X222671Y118289D01*
X222678Y118291D01*
X222684Y118289D01*
X222776Y118310D01*
X222868Y118329D01*
X222873Y118333D01*
X222880Y118334D01*
X222956Y118389D01*
X223034Y118441D01*
X223037Y118447D01*
X223043Y118451D01*
X223140Y118602D01*
X224310Y121428D01*
X227383Y124500D01*
X227590Y124586D01*
X227591Y124586D01*
X228815Y125094D01*
X230040Y125601D01*
X231264Y126108D01*
X231397Y126163D01*
X235743Y126163D01*
X239757Y124500D01*
X242830Y121428D01*
X244493Y117413D01*
X244493Y113068D01*
X242830Y109053D01*
X239757Y105981D01*
X239174Y105739D01*
X237949Y105232D01*
X236725Y104724D01*
X236724Y104724D01*
X235743Y104318D01*
X231397Y104318D01*
G37*
%LPD*%
%LPC*%
G36*
X191827Y103377D02*
X191827Y103377D01*
X187813Y105040D01*
X184740Y108113D01*
X183076Y112130D01*
X183077Y112137D01*
X183056Y112226D01*
X183038Y112318D01*
X183033Y112324D01*
X183031Y112332D01*
X182929Y112480D01*
X156366Y139043D01*
X156359Y139047D01*
X156355Y139053D01*
X156276Y139102D01*
X156199Y139154D01*
X156191Y139155D01*
X156184Y139159D01*
X156007Y139191D01*
X100337Y139191D01*
X98403Y141126D01*
X88391Y151137D01*
X88391Y182868D01*
X88390Y182873D01*
X88391Y182878D01*
X88370Y182971D01*
X88352Y183065D01*
X88349Y183069D01*
X88348Y183074D01*
X88292Y183152D01*
X88239Y183230D01*
X88235Y183233D01*
X88232Y183237D01*
X88150Y183288D01*
X88071Y183340D01*
X88066Y183340D01*
X88061Y183343D01*
X87884Y183375D01*
X85268Y183375D01*
X84375Y184268D01*
X84375Y210532D01*
X85268Y211425D01*
X96532Y211425D01*
X97425Y210532D01*
X97425Y184268D01*
X96532Y183375D01*
X94996Y183375D01*
X94991Y183374D01*
X94986Y183375D01*
X94893Y183354D01*
X94799Y183336D01*
X94795Y183333D01*
X94790Y183332D01*
X94712Y183276D01*
X94634Y183223D01*
X94631Y183219D01*
X94627Y183216D01*
X94576Y183134D01*
X94524Y183055D01*
X94524Y183050D01*
X94521Y183045D01*
X94489Y182868D01*
X94489Y153873D01*
X94490Y153865D01*
X94489Y153857D01*
X94510Y153768D01*
X94528Y153676D01*
X94533Y153670D01*
X94535Y153662D01*
X94637Y153514D01*
X102714Y145437D01*
X102721Y145433D01*
X102725Y145427D01*
X102804Y145378D01*
X102881Y145326D01*
X102889Y145325D01*
X102896Y145321D01*
X103073Y145289D01*
X158743Y145289D01*
X183853Y120178D01*
X183856Y120176D01*
X183859Y120173D01*
X183940Y120121D01*
X184020Y120068D01*
X184024Y120067D01*
X184027Y120065D01*
X184123Y120048D01*
X184217Y120030D01*
X184221Y120031D01*
X184225Y120030D01*
X184319Y120052D01*
X184413Y120072D01*
X184416Y120074D01*
X184420Y120075D01*
X184499Y120131D01*
X184578Y120186D01*
X184580Y120189D01*
X184583Y120191D01*
X184680Y120343D01*
X184740Y120487D01*
X187813Y123560D01*
X187842Y123572D01*
X189066Y124079D01*
X190291Y124586D01*
X191515Y125094D01*
X191516Y125094D01*
X191827Y125223D01*
X196173Y125223D01*
X200187Y123560D01*
X203260Y120487D01*
X204923Y116473D01*
X204923Y112127D01*
X203260Y108113D01*
X200187Y105040D01*
X199425Y104724D01*
X198200Y104217D01*
X196976Y103710D01*
X196173Y103377D01*
X191827Y103377D01*
G37*
%LPD*%
%LPC*%
G36*
X45268Y347375D02*
X45268Y347375D01*
X44375Y348268D01*
X44375Y374532D01*
X45268Y375425D01*
X47244Y375425D01*
X47249Y375426D01*
X47254Y375425D01*
X47347Y375446D01*
X47441Y375464D01*
X47445Y375467D01*
X47450Y375468D01*
X47528Y375524D01*
X47606Y375577D01*
X47609Y375581D01*
X47613Y375584D01*
X47664Y375666D01*
X47716Y375745D01*
X47716Y375750D01*
X47719Y375755D01*
X47751Y375932D01*
X47751Y379527D01*
X47750Y379535D01*
X47751Y379543D01*
X47730Y379632D01*
X47712Y379724D01*
X47707Y379730D01*
X47705Y379738D01*
X47603Y379886D01*
X22351Y405137D01*
X22351Y541434D01*
X22350Y541442D01*
X22351Y541449D01*
X22330Y541539D01*
X22312Y541630D01*
X22307Y541637D01*
X22305Y541644D01*
X22203Y541792D01*
X20093Y543902D01*
X20093Y548298D01*
X23202Y551407D01*
X27598Y551407D01*
X30707Y548298D01*
X30707Y543902D01*
X28597Y541792D01*
X28593Y541786D01*
X28587Y541781D01*
X28538Y541703D01*
X28486Y541625D01*
X28485Y541618D01*
X28481Y541611D01*
X28449Y541434D01*
X28449Y407873D01*
X28450Y407865D01*
X28449Y407857D01*
X28470Y407768D01*
X28488Y407676D01*
X28493Y407670D01*
X28495Y407662D01*
X28597Y407514D01*
X53849Y382263D01*
X53849Y375932D01*
X53850Y375927D01*
X53849Y375922D01*
X53870Y375829D01*
X53888Y375735D01*
X53891Y375731D01*
X53892Y375726D01*
X53948Y375648D01*
X54001Y375570D01*
X54005Y375567D01*
X54008Y375563D01*
X54090Y375512D01*
X54169Y375460D01*
X54174Y375460D01*
X54179Y375457D01*
X54356Y375425D01*
X56532Y375425D01*
X57425Y374532D01*
X57425Y348268D01*
X56532Y347375D01*
X45268Y347375D01*
G37*
%LPD*%
%LPC*%
G36*
X153727Y103377D02*
X153727Y103377D01*
X149713Y105040D01*
X146640Y108113D01*
X144977Y112127D01*
X144977Y116473D01*
X146148Y119298D01*
X146149Y119304D01*
X146152Y119310D01*
X146168Y119403D01*
X146186Y119495D01*
X146185Y119501D01*
X146186Y119508D01*
X146165Y119599D01*
X146146Y119691D01*
X146142Y119696D01*
X146140Y119703D01*
X146038Y119851D01*
X137006Y128883D01*
X136999Y128887D01*
X136995Y128893D01*
X136916Y128942D01*
X136839Y128994D01*
X136831Y128995D01*
X136824Y128999D01*
X136647Y129031D01*
X95257Y129031D01*
X67851Y156437D01*
X67851Y182868D01*
X67850Y182873D01*
X67851Y182878D01*
X67830Y182971D01*
X67812Y183065D01*
X67809Y183069D01*
X67808Y183074D01*
X67752Y183152D01*
X67699Y183230D01*
X67695Y183233D01*
X67692Y183237D01*
X67610Y183288D01*
X67531Y183340D01*
X67526Y183340D01*
X67521Y183343D01*
X67344Y183375D01*
X65268Y183375D01*
X64375Y184268D01*
X64375Y210532D01*
X65268Y211425D01*
X76532Y211425D01*
X77425Y210532D01*
X77425Y184268D01*
X76532Y183375D01*
X74456Y183375D01*
X74451Y183374D01*
X74446Y183375D01*
X74353Y183354D01*
X74259Y183336D01*
X74255Y183333D01*
X74250Y183332D01*
X74172Y183276D01*
X74094Y183223D01*
X74091Y183219D01*
X74087Y183216D01*
X74036Y183134D01*
X73984Y183055D01*
X73984Y183050D01*
X73981Y183045D01*
X73949Y182868D01*
X73949Y159173D01*
X73950Y159165D01*
X73949Y159157D01*
X73970Y159068D01*
X73988Y158976D01*
X73993Y158970D01*
X73995Y158962D01*
X74097Y158814D01*
X97634Y135277D01*
X97641Y135273D01*
X97645Y135267D01*
X97724Y135217D01*
X97801Y135166D01*
X97809Y135165D01*
X97816Y135161D01*
X97993Y135129D01*
X139383Y135129D01*
X150349Y124162D01*
X150355Y124159D01*
X150358Y124153D01*
X150438Y124104D01*
X150516Y124051D01*
X150523Y124050D01*
X150528Y124047D01*
X150621Y124031D01*
X150713Y124014D01*
X150719Y124015D01*
X150726Y124014D01*
X150902Y124052D01*
X150966Y124079D01*
X152191Y124586D01*
X153415Y125094D01*
X153416Y125094D01*
X153727Y125223D01*
X158073Y125223D01*
X162087Y123560D01*
X165160Y120487D01*
X166823Y116473D01*
X166823Y112127D01*
X165160Y108113D01*
X162087Y105040D01*
X161325Y104724D01*
X160100Y104217D01*
X158876Y103710D01*
X158073Y103377D01*
X153727Y103377D01*
G37*
%LPD*%
%LPC*%
G36*
X65268Y347375D02*
X65268Y347375D01*
X64375Y348268D01*
X64375Y374532D01*
X65268Y375425D01*
X67344Y375425D01*
X67349Y375426D01*
X67354Y375425D01*
X67447Y375446D01*
X67541Y375464D01*
X67545Y375467D01*
X67550Y375468D01*
X67628Y375524D01*
X67706Y375577D01*
X67709Y375581D01*
X67713Y375584D01*
X67764Y375666D01*
X67816Y375745D01*
X67816Y375750D01*
X67819Y375755D01*
X67851Y375932D01*
X67851Y389663D01*
X85703Y407514D01*
X85707Y407521D01*
X85713Y407525D01*
X85762Y407604D01*
X85814Y407681D01*
X85815Y407689D01*
X85819Y407696D01*
X85851Y407873D01*
X85851Y455727D01*
X85850Y455735D01*
X85851Y455743D01*
X85830Y455832D01*
X85812Y455924D01*
X85807Y455930D01*
X85805Y455938D01*
X85703Y456086D01*
X75086Y466703D01*
X75079Y466707D01*
X75075Y466713D01*
X74996Y466762D01*
X74919Y466814D01*
X74911Y466815D01*
X74904Y466819D01*
X74727Y466851D01*
X74399Y466851D01*
X74392Y466850D01*
X74386Y466851D01*
X74294Y466830D01*
X74202Y466812D01*
X74197Y466808D01*
X74190Y466807D01*
X74114Y466752D01*
X74036Y466699D01*
X74033Y466694D01*
X74028Y466690D01*
X73930Y466538D01*
X72760Y463713D01*
X69687Y460640D01*
X68882Y460307D01*
X67658Y459799D01*
X67657Y459799D01*
X66433Y459292D01*
X65673Y458977D01*
X61327Y458977D01*
X57313Y460640D01*
X54240Y463713D01*
X52577Y467727D01*
X52577Y472073D01*
X54240Y476087D01*
X57313Y479160D01*
X58523Y479661D01*
X58524Y479661D01*
X59748Y480169D01*
X60973Y480676D01*
X61327Y480823D01*
X65673Y480823D01*
X69687Y479160D01*
X72760Y476087D01*
X73930Y473262D01*
X73934Y473256D01*
X73935Y473250D01*
X73990Y473173D01*
X74042Y473095D01*
X74047Y473092D01*
X74051Y473087D01*
X74131Y473037D01*
X74209Y472985D01*
X74216Y472984D01*
X74221Y472981D01*
X74399Y472949D01*
X77463Y472949D01*
X91949Y458463D01*
X91949Y405137D01*
X74097Y387286D01*
X74093Y387279D01*
X74087Y387275D01*
X74038Y387196D01*
X73986Y387119D01*
X73985Y387111D01*
X73981Y387104D01*
X73949Y386927D01*
X73949Y375932D01*
X73950Y375927D01*
X73949Y375922D01*
X73970Y375829D01*
X73988Y375735D01*
X73991Y375731D01*
X73992Y375726D01*
X74048Y375648D01*
X74101Y375570D01*
X74105Y375567D01*
X74108Y375563D01*
X74190Y375512D01*
X74269Y375460D01*
X74274Y375460D01*
X74279Y375457D01*
X74456Y375425D01*
X76532Y375425D01*
X77425Y374532D01*
X77425Y348268D01*
X76532Y347375D01*
X65268Y347375D01*
G37*
%LPD*%
%LPC*%
G36*
X145268Y347375D02*
X145268Y347375D01*
X144375Y348268D01*
X144375Y374532D01*
X145268Y375425D01*
X147383Y375425D01*
X147391Y375426D01*
X147399Y375425D01*
X147488Y375446D01*
X147580Y375464D01*
X147586Y375469D01*
X147594Y375471D01*
X147742Y375573D01*
X163837Y391669D01*
X199187Y391669D01*
X199195Y391670D01*
X199203Y391669D01*
X199292Y391690D01*
X199384Y391708D01*
X199390Y391713D01*
X199398Y391715D01*
X199546Y391817D01*
X206932Y399204D01*
X206935Y399208D01*
X206939Y399211D01*
X206990Y399291D01*
X207043Y399371D01*
X207044Y399376D01*
X207047Y399380D01*
X207063Y399474D01*
X207081Y399567D01*
X207079Y399573D01*
X207080Y399578D01*
X207059Y399670D01*
X207039Y399763D01*
X207036Y399768D01*
X207035Y399773D01*
X206932Y399921D01*
X206640Y400213D01*
X204977Y404227D01*
X204977Y408573D01*
X206640Y412587D01*
X209713Y415660D01*
X209925Y415748D01*
X211150Y416255D01*
X212374Y416762D01*
X213599Y417270D01*
X213727Y417323D01*
X218073Y417323D01*
X222087Y415660D01*
X225160Y412587D01*
X226823Y408573D01*
X226823Y404227D01*
X225160Y400213D01*
X222087Y397140D01*
X221509Y396900D01*
X221508Y396900D01*
X220284Y396393D01*
X219059Y395886D01*
X218073Y395477D01*
X213727Y395477D01*
X212698Y395904D01*
X212692Y395905D01*
X212686Y395908D01*
X212593Y395924D01*
X212501Y395942D01*
X212495Y395941D01*
X212488Y395942D01*
X212397Y395921D01*
X212305Y395902D01*
X212300Y395898D01*
X212293Y395896D01*
X212145Y395794D01*
X201923Y385571D01*
X166573Y385571D01*
X166565Y385570D01*
X166557Y385571D01*
X166468Y385550D01*
X166376Y385532D01*
X166370Y385527D01*
X166362Y385525D01*
X166214Y385423D01*
X156733Y375941D01*
X156730Y375937D01*
X156725Y375934D01*
X156674Y375853D01*
X156622Y375774D01*
X156621Y375769D01*
X156618Y375764D01*
X156602Y375671D01*
X156584Y375577D01*
X156585Y375572D01*
X156584Y375567D01*
X156606Y375474D01*
X156626Y375381D01*
X156629Y375377D01*
X156630Y375372D01*
X156733Y375224D01*
X157425Y374532D01*
X157425Y348268D01*
X156532Y347375D01*
X145268Y347375D01*
G37*
%LPD*%
%LPC*%
G36*
X219713Y167820D02*
X219713Y167820D01*
X218820Y168713D01*
X218820Y173028D01*
X218819Y173033D01*
X218820Y173038D01*
X218799Y173131D01*
X218781Y173225D01*
X218778Y173229D01*
X218777Y173234D01*
X218721Y173312D01*
X218668Y173390D01*
X218664Y173393D01*
X218661Y173397D01*
X218579Y173448D01*
X218500Y173500D01*
X218495Y173500D01*
X218490Y173503D01*
X218313Y173535D01*
X188066Y173535D01*
X177263Y184339D01*
X177258Y184342D01*
X177255Y184346D01*
X177175Y184397D01*
X177096Y184450D01*
X177091Y184451D01*
X177086Y184454D01*
X176992Y184470D01*
X176899Y184488D01*
X176894Y184486D01*
X176888Y184487D01*
X176796Y184466D01*
X176703Y184446D01*
X176698Y184443D01*
X176693Y184442D01*
X176545Y184339D01*
X175582Y183375D01*
X164318Y183375D01*
X163425Y184268D01*
X163425Y210532D01*
X164318Y211425D01*
X175582Y211425D01*
X176475Y210532D01*
X176475Y196834D01*
X176476Y196826D01*
X176475Y196818D01*
X176496Y196728D01*
X176514Y196637D01*
X176519Y196631D01*
X176521Y196623D01*
X176623Y196475D01*
X191285Y181813D01*
X191292Y181809D01*
X191296Y181803D01*
X191375Y181754D01*
X191452Y181702D01*
X191460Y181701D01*
X191466Y181697D01*
X191644Y181665D01*
X218313Y181665D01*
X218318Y181666D01*
X218323Y181665D01*
X218416Y181686D01*
X218510Y181704D01*
X218514Y181707D01*
X218519Y181708D01*
X218597Y181764D01*
X218675Y181817D01*
X218678Y181821D01*
X218682Y181824D01*
X218733Y181906D01*
X218785Y181985D01*
X218785Y181990D01*
X218788Y181995D01*
X218820Y182172D01*
X218820Y186487D01*
X219713Y187380D01*
X237487Y187380D01*
X238380Y186487D01*
X238380Y168713D01*
X237487Y167820D01*
X219713Y167820D01*
G37*
%LPD*%
%LPC*%
G36*
X125268Y347375D02*
X125268Y347375D01*
X124375Y348268D01*
X124375Y374532D01*
X125268Y375425D01*
X127344Y375425D01*
X127349Y375426D01*
X127354Y375425D01*
X127447Y375446D01*
X127541Y375464D01*
X127545Y375467D01*
X127550Y375468D01*
X127628Y375524D01*
X127706Y375577D01*
X127709Y375581D01*
X127713Y375584D01*
X127764Y375666D01*
X127816Y375745D01*
X127816Y375750D01*
X127819Y375755D01*
X127851Y375932D01*
X127851Y376003D01*
X161297Y409449D01*
X166901Y409449D01*
X166908Y409450D01*
X166914Y409449D01*
X167006Y409470D01*
X167098Y409488D01*
X167103Y409492D01*
X167110Y409493D01*
X167186Y409548D01*
X167264Y409601D01*
X167267Y409606D01*
X167272Y409610D01*
X167370Y409762D01*
X168540Y412587D01*
X171613Y415660D01*
X171825Y415748D01*
X173050Y416255D01*
X174274Y416762D01*
X175499Y417270D01*
X175627Y417323D01*
X179973Y417323D01*
X183987Y415660D01*
X187060Y412587D01*
X188723Y408573D01*
X188723Y404227D01*
X187060Y400213D01*
X183987Y397140D01*
X183409Y396900D01*
X183408Y396900D01*
X182184Y396393D01*
X180959Y395886D01*
X179973Y395477D01*
X175627Y395477D01*
X171613Y397140D01*
X168540Y400213D01*
X167370Y403038D01*
X167366Y403044D01*
X167365Y403050D01*
X167310Y403127D01*
X167258Y403205D01*
X167253Y403208D01*
X167249Y403213D01*
X167169Y403263D01*
X167091Y403315D01*
X167084Y403316D01*
X167079Y403319D01*
X166901Y403351D01*
X164033Y403351D01*
X164025Y403350D01*
X164017Y403351D01*
X163928Y403330D01*
X163836Y403312D01*
X163830Y403307D01*
X163822Y403305D01*
X163674Y403203D01*
X136573Y376101D01*
X136570Y376097D01*
X136565Y376094D01*
X136514Y376013D01*
X136462Y375934D01*
X136461Y375929D01*
X136458Y375924D01*
X136442Y375831D01*
X136424Y375737D01*
X136425Y375732D01*
X136424Y375727D01*
X136446Y375634D01*
X136466Y375541D01*
X136469Y375537D01*
X136470Y375532D01*
X136573Y375384D01*
X137425Y374532D01*
X137425Y348268D01*
X136532Y347375D01*
X125268Y347375D01*
G37*
%LPD*%
%LPC*%
G36*
X495708Y353975D02*
X495708Y353975D01*
X491472Y355730D01*
X488230Y358972D01*
X486475Y363208D01*
X486475Y367792D01*
X488230Y372028D01*
X491472Y375270D01*
X492449Y375675D01*
X493674Y376182D01*
X494898Y376690D01*
X494899Y376690D01*
X495708Y377025D01*
X520292Y377025D01*
X524528Y375270D01*
X527770Y372028D01*
X529525Y367792D01*
X529525Y363208D01*
X527770Y358972D01*
X524528Y355730D01*
X523505Y355306D01*
X522280Y354799D01*
X521056Y354291D01*
X520292Y353975D01*
X495708Y353975D01*
G37*
%LPD*%
%LPC*%
G36*
X474708Y295975D02*
X474708Y295975D01*
X470472Y297730D01*
X467230Y300972D01*
X465475Y305208D01*
X465475Y329792D01*
X467230Y334028D01*
X470472Y337270D01*
X471344Y337631D01*
X472568Y338139D01*
X473793Y338646D01*
X474708Y339025D01*
X479292Y339025D01*
X483528Y337270D01*
X486770Y334028D01*
X488525Y329792D01*
X488525Y305208D01*
X486770Y300972D01*
X483528Y297730D01*
X482924Y297479D01*
X481699Y296972D01*
X480475Y296465D01*
X480474Y296465D01*
X479292Y295975D01*
X474708Y295975D01*
G37*
%LPD*%
%LPC*%
G36*
X115627Y27177D02*
X115627Y27177D01*
X111613Y28840D01*
X108540Y31913D01*
X106877Y35927D01*
X106877Y40273D01*
X108540Y44287D01*
X111613Y47360D01*
X111913Y47484D01*
X113138Y47992D01*
X114362Y48499D01*
X114363Y48499D01*
X115587Y49006D01*
X115627Y49023D01*
X119973Y49023D01*
X123987Y47360D01*
X127060Y44287D01*
X128230Y41462D01*
X128234Y41456D01*
X128235Y41450D01*
X128290Y41373D01*
X128342Y41295D01*
X128347Y41292D01*
X128351Y41287D01*
X128431Y41237D01*
X128509Y41185D01*
X128516Y41184D01*
X128521Y41181D01*
X128699Y41149D01*
X145001Y41149D01*
X145008Y41150D01*
X145014Y41149D01*
X145106Y41170D01*
X145198Y41188D01*
X145203Y41192D01*
X145210Y41193D01*
X145286Y41248D01*
X145364Y41301D01*
X145367Y41306D01*
X145372Y41310D01*
X145470Y41462D01*
X146640Y44287D01*
X149713Y47360D01*
X150013Y47484D01*
X151238Y47992D01*
X152462Y48499D01*
X152463Y48499D01*
X153687Y49006D01*
X153727Y49023D01*
X158073Y49023D01*
X162087Y47360D01*
X165160Y44287D01*
X166823Y40273D01*
X166823Y35927D01*
X165160Y31913D01*
X162087Y28840D01*
X161597Y28637D01*
X161596Y28637D01*
X160372Y28130D01*
X159147Y27622D01*
X158073Y27177D01*
X153727Y27177D01*
X149713Y28840D01*
X146640Y31913D01*
X145470Y34738D01*
X145466Y34744D01*
X145465Y34750D01*
X145410Y34827D01*
X145358Y34905D01*
X145353Y34908D01*
X145349Y34913D01*
X145269Y34963D01*
X145191Y35015D01*
X145184Y35016D01*
X145179Y35019D01*
X145001Y35051D01*
X128699Y35051D01*
X128692Y35050D01*
X128686Y35051D01*
X128594Y35030D01*
X128502Y35012D01*
X128497Y35008D01*
X128490Y35007D01*
X128414Y34952D01*
X128336Y34899D01*
X128333Y34894D01*
X128328Y34890D01*
X128230Y34738D01*
X127060Y31913D01*
X123987Y28840D01*
X123497Y28637D01*
X123496Y28637D01*
X122272Y28130D01*
X121047Y27622D01*
X119973Y27177D01*
X115627Y27177D01*
G37*
%LPD*%
%LPC*%
G36*
X464111Y407735D02*
X464111Y407735D01*
X460750Y409127D01*
X458177Y411700D01*
X456785Y415061D01*
X456785Y433939D01*
X458177Y437300D01*
X460750Y439873D01*
X461289Y440096D01*
X462514Y440603D01*
X463738Y441110D01*
X464111Y441265D01*
X467749Y441265D01*
X471110Y439873D01*
X473683Y437300D01*
X475075Y433939D01*
X475075Y415061D01*
X473683Y411700D01*
X471110Y409127D01*
X470982Y409074D01*
X469757Y408567D01*
X468533Y408060D01*
X467749Y407735D01*
X464111Y407735D01*
G37*
%LPD*%
%LPC*%
G36*
X349273Y491749D02*
X349273Y491749D01*
X345912Y493141D01*
X343339Y495714D01*
X341947Y499075D01*
X341947Y502713D01*
X343339Y506074D01*
X345912Y508647D01*
X346963Y509082D01*
X348187Y509589D01*
X348188Y509589D01*
X349273Y510039D01*
X368151Y510039D01*
X371512Y508647D01*
X374085Y506074D01*
X375477Y502713D01*
X375477Y499075D01*
X374085Y495714D01*
X371512Y493141D01*
X370617Y492771D01*
X369392Y492263D01*
X368168Y491756D01*
X368167Y491756D01*
X368151Y491749D01*
X349273Y491749D01*
G37*
%LPD*%
%LPC*%
G36*
X108681Y539335D02*
X108681Y539335D01*
X105320Y540727D01*
X102747Y543300D01*
X101355Y546661D01*
X101355Y565539D01*
X102747Y568900D01*
X105320Y571473D01*
X105322Y571474D01*
X105323Y571474D01*
X106547Y571981D01*
X107772Y572488D01*
X108681Y572865D01*
X112319Y572865D01*
X115680Y571473D01*
X118253Y568900D01*
X119645Y565539D01*
X119645Y546661D01*
X118253Y543300D01*
X115680Y540727D01*
X115015Y540452D01*
X113791Y539945D01*
X112566Y539438D01*
X112319Y539335D01*
X108681Y539335D01*
G37*
%LPD*%
%LPC*%
G36*
X159481Y539335D02*
X159481Y539335D01*
X156120Y540727D01*
X153547Y543300D01*
X152155Y546661D01*
X152155Y565539D01*
X153547Y568900D01*
X156120Y571473D01*
X156122Y571474D01*
X156123Y571474D01*
X157347Y571981D01*
X158572Y572488D01*
X159481Y572865D01*
X163119Y572865D01*
X166480Y571473D01*
X169053Y568900D01*
X170445Y565539D01*
X170445Y546661D01*
X169053Y543300D01*
X166480Y540727D01*
X165815Y540452D01*
X164591Y539945D01*
X163366Y539438D01*
X163119Y539335D01*
X159481Y539335D01*
G37*
%LPD*%
%LPC*%
G36*
X210281Y539335D02*
X210281Y539335D01*
X206920Y540727D01*
X204347Y543300D01*
X202955Y546661D01*
X202955Y565539D01*
X204347Y568900D01*
X206920Y571473D01*
X206922Y571474D01*
X206923Y571474D01*
X208147Y571981D01*
X209372Y572488D01*
X210281Y572865D01*
X213919Y572865D01*
X217280Y571473D01*
X219853Y568900D01*
X221245Y565539D01*
X221245Y546661D01*
X219853Y543300D01*
X217280Y540727D01*
X216615Y540452D01*
X215391Y539945D01*
X214166Y539438D01*
X213919Y539335D01*
X210281Y539335D01*
G37*
%LPD*%
%LPC*%
G36*
X372113Y409120D02*
X372113Y409120D01*
X371220Y410013D01*
X371220Y427787D01*
X372113Y428680D01*
X389887Y428680D01*
X390780Y427787D01*
X390780Y410013D01*
X389887Y409120D01*
X372113Y409120D01*
G37*
%LPD*%
%LPC*%
G36*
X61327Y408177D02*
X61327Y408177D01*
X57313Y409840D01*
X54240Y412913D01*
X52577Y416927D01*
X52577Y421273D01*
X54240Y425287D01*
X57313Y428360D01*
X57480Y428429D01*
X58704Y428936D01*
X58705Y428936D01*
X59929Y429444D01*
X61154Y429951D01*
X61327Y430023D01*
X65673Y430023D01*
X69687Y428360D01*
X72760Y425287D01*
X74423Y421273D01*
X74423Y416927D01*
X72760Y412913D01*
X69687Y409840D01*
X69063Y409582D01*
X67839Y409074D01*
X67838Y409074D01*
X66614Y408567D01*
X65673Y408177D01*
X61327Y408177D01*
G37*
%LPD*%
%LPC*%
G36*
X368132Y58242D02*
X368132Y58242D01*
X364118Y59905D01*
X361045Y62978D01*
X359382Y66992D01*
X359382Y71338D01*
X361045Y75352D01*
X364118Y78425D01*
X364122Y78427D01*
X365347Y78934D01*
X366571Y79441D01*
X366572Y79441D01*
X367796Y79948D01*
X368132Y80088D01*
X372478Y80088D01*
X376492Y78425D01*
X379565Y75352D01*
X381228Y71338D01*
X381228Y66992D01*
X379565Y62978D01*
X376492Y59905D01*
X375706Y59579D01*
X375705Y59579D01*
X374481Y59072D01*
X373256Y58565D01*
X372478Y58242D01*
X368132Y58242D01*
G37*
%LPD*%
%LPC*%
G36*
X231397Y28118D02*
X231397Y28118D01*
X227383Y29781D01*
X224310Y32853D01*
X222647Y36868D01*
X222647Y41213D01*
X224310Y45228D01*
X227383Y48300D01*
X227862Y48499D01*
X229087Y49006D01*
X230311Y49513D01*
X231397Y49963D01*
X235743Y49963D01*
X239757Y48300D01*
X242830Y45228D01*
X244493Y41213D01*
X244493Y36868D01*
X242830Y32853D01*
X239757Y29781D01*
X239445Y29651D01*
X238221Y29144D01*
X236996Y28637D01*
X235772Y28130D01*
X235771Y28130D01*
X235743Y28118D01*
X231397Y28118D01*
G37*
%LPD*%
%LPC*%
G36*
X85268Y347375D02*
X85268Y347375D01*
X84375Y348268D01*
X84375Y374532D01*
X85268Y375425D01*
X96532Y375425D01*
X97425Y374532D01*
X97425Y348268D01*
X96532Y347375D01*
X85268Y347375D01*
G37*
%LPD*%
%LPC*%
G36*
X45268Y183375D02*
X45268Y183375D01*
X44375Y184268D01*
X44375Y210532D01*
X45268Y211425D01*
X56532Y211425D01*
X57425Y210532D01*
X57425Y184268D01*
X56532Y183375D01*
X45268Y183375D01*
G37*
%LPD*%
%LPC*%
G36*
X145268Y183375D02*
X145268Y183375D01*
X144375Y184268D01*
X144375Y210532D01*
X145268Y211425D01*
X156532Y211425D01*
X157425Y210532D01*
X157425Y184268D01*
X156532Y183375D01*
X145268Y183375D01*
G37*
%LPD*%
%LPC*%
G36*
X539015Y318515D02*
X539015Y318515D01*
X539015Y340036D01*
X540937Y339732D01*
X542814Y339122D01*
X544573Y338226D01*
X546170Y337066D01*
X547566Y335670D01*
X548726Y334073D01*
X549622Y332314D01*
X550232Y330437D01*
X550541Y328487D01*
X550541Y318515D01*
X539015Y318515D01*
G37*
%LPD*%
%LPC*%
G36*
X539015Y316485D02*
X539015Y316485D01*
X550541Y316485D01*
X550541Y306513D01*
X550232Y304563D01*
X549622Y302686D01*
X548726Y300927D01*
X547566Y299330D01*
X546170Y297934D01*
X544573Y296774D01*
X542814Y295878D01*
X540937Y295268D01*
X539015Y294964D01*
X539015Y316485D01*
G37*
%LPD*%
%LPC*%
G36*
X525459Y318515D02*
X525459Y318515D01*
X525459Y328487D01*
X525768Y330437D01*
X526378Y332314D01*
X527274Y334073D01*
X528434Y335670D01*
X529830Y337066D01*
X531427Y338226D01*
X533186Y339122D01*
X535063Y339732D01*
X536985Y340036D01*
X536985Y318515D01*
X525459Y318515D01*
G37*
%LPD*%
%LPC*%
G36*
X535063Y295268D02*
X535063Y295268D01*
X533186Y295878D01*
X531427Y296774D01*
X529830Y297934D01*
X528434Y299330D01*
X527274Y300927D01*
X526378Y302686D01*
X525768Y304563D01*
X525459Y306513D01*
X525459Y316485D01*
X536985Y316485D01*
X536985Y294964D01*
X535063Y295268D01*
G37*
%LPD*%
%LPC*%
G36*
X482615Y217315D02*
X482615Y217315D01*
X482615Y234047D01*
X483979Y233831D01*
X485500Y233336D01*
X486925Y232610D01*
X488219Y231670D01*
X489350Y230539D01*
X490290Y229245D01*
X491016Y227820D01*
X491511Y226299D01*
X491761Y224720D01*
X491761Y217315D01*
X482615Y217315D01*
G37*
%LPD*%
%LPC*%
G36*
X187715Y557115D02*
X187715Y557115D01*
X187715Y573847D01*
X189079Y573631D01*
X190600Y573136D01*
X192025Y572410D01*
X193319Y571470D01*
X194450Y570339D01*
X195390Y569045D01*
X196116Y567620D01*
X196611Y566099D01*
X196861Y564520D01*
X196861Y557115D01*
X187715Y557115D01*
G37*
%LPD*%
%LPC*%
G36*
X187715Y555085D02*
X187715Y555085D01*
X196861Y555085D01*
X196861Y547680D01*
X196611Y546101D01*
X196116Y544580D01*
X195390Y543155D01*
X194450Y541861D01*
X193319Y540730D01*
X192025Y539790D01*
X190600Y539064D01*
X189079Y538569D01*
X187715Y538353D01*
X187715Y555085D01*
G37*
%LPD*%
%LPC*%
G36*
X482615Y215285D02*
X482615Y215285D01*
X491761Y215285D01*
X491761Y207880D01*
X491511Y206301D01*
X491016Y204780D01*
X490290Y203355D01*
X489350Y202061D01*
X488219Y200930D01*
X486925Y199990D01*
X485500Y199264D01*
X483979Y198769D01*
X482615Y198553D01*
X482615Y215285D01*
G37*
%LPD*%
%LPC*%
G36*
X471439Y217315D02*
X471439Y217315D01*
X471439Y224720D01*
X471689Y226299D01*
X472184Y227820D01*
X472910Y229245D01*
X473850Y230539D01*
X474981Y231670D01*
X476275Y232610D01*
X477700Y233336D01*
X479221Y233831D01*
X480585Y234047D01*
X480585Y217315D01*
X471439Y217315D01*
G37*
%LPD*%
%LPC*%
G36*
X176539Y557115D02*
X176539Y557115D01*
X176539Y564520D01*
X176789Y566099D01*
X177284Y567620D01*
X178010Y569045D01*
X178950Y570339D01*
X180081Y571470D01*
X181375Y572410D01*
X182800Y573136D01*
X184321Y573631D01*
X185685Y573847D01*
X185685Y557115D01*
X176539Y557115D01*
G37*
%LPD*%
%LPC*%
G36*
X184321Y538569D02*
X184321Y538569D01*
X182800Y539064D01*
X181375Y539790D01*
X180081Y540730D01*
X178950Y541861D01*
X178010Y543155D01*
X177284Y544580D01*
X176789Y546101D01*
X176539Y547680D01*
X176539Y555085D01*
X185685Y555085D01*
X185685Y538353D01*
X184321Y538569D01*
G37*
%LPD*%
%LPC*%
G36*
X479221Y198769D02*
X479221Y198769D01*
X477700Y199264D01*
X476275Y199990D01*
X474981Y200930D01*
X473850Y202061D01*
X472910Y203355D01*
X472184Y204780D01*
X471689Y206301D01*
X471439Y207880D01*
X471439Y215285D01*
X480585Y215285D01*
X480585Y198553D01*
X479221Y198769D01*
G37*
%LPD*%
%LPC*%
G36*
X170965Y362415D02*
X170965Y362415D01*
X170965Y376441D01*
X175285Y376441D01*
X175931Y376268D01*
X176510Y375933D01*
X176983Y375460D01*
X177318Y374881D01*
X177491Y374234D01*
X177491Y362415D01*
X170965Y362415D01*
G37*
%LPD*%
%LPC*%
G36*
X170965Y346359D02*
X170965Y346359D01*
X170965Y360385D01*
X177491Y360385D01*
X177491Y348565D01*
X177318Y347919D01*
X176983Y347340D01*
X176510Y346867D01*
X175931Y346532D01*
X175285Y346359D01*
X170965Y346359D01*
G37*
%LPD*%
%LPC*%
G36*
X162409Y362415D02*
X162409Y362415D01*
X162409Y374234D01*
X162582Y374881D01*
X162917Y375460D01*
X163390Y375933D01*
X163969Y376268D01*
X164615Y376441D01*
X168935Y376441D01*
X168935Y362415D01*
X162409Y362415D01*
G37*
%LPD*%
%LPC*%
G36*
X164615Y346359D02*
X164615Y346359D01*
X163969Y346532D01*
X163390Y346867D01*
X162917Y347340D01*
X162582Y347919D01*
X162409Y348565D01*
X162409Y360385D01*
X168935Y360385D01*
X168935Y346359D01*
X164615Y346359D01*
G37*
%LPD*%
%LPC*%
G36*
X195015Y39115D02*
X195015Y39115D01*
X195015Y50027D01*
X196796Y49745D01*
X198583Y49164D01*
X200257Y48311D01*
X201778Y47206D01*
X203106Y45878D01*
X204211Y44357D01*
X205064Y42683D01*
X205645Y40896D01*
X205927Y39115D01*
X195015Y39115D01*
G37*
%LPD*%
%LPC*%
G36*
X371320Y95580D02*
X371320Y95580D01*
X371320Y106492D01*
X373101Y106210D01*
X374888Y105629D01*
X376562Y104776D01*
X378083Y103671D01*
X379412Y102342D01*
X380516Y100822D01*
X381369Y99148D01*
X381950Y97360D01*
X382232Y95580D01*
X371320Y95580D01*
G37*
%LPD*%
%LPC*%
G36*
X216915Y483615D02*
X216915Y483615D01*
X216915Y494527D01*
X218696Y494245D01*
X220483Y493664D01*
X222157Y492811D01*
X223678Y491706D01*
X225006Y490378D01*
X226111Y488857D01*
X226964Y487183D01*
X227545Y485396D01*
X227827Y483615D01*
X216915Y483615D01*
G37*
%LPD*%
%LPC*%
G36*
X64515Y445515D02*
X64515Y445515D01*
X64515Y456427D01*
X66296Y456145D01*
X68083Y455564D01*
X69757Y454711D01*
X71278Y453606D01*
X72606Y452278D01*
X73711Y450757D01*
X74564Y449083D01*
X75145Y447296D01*
X75427Y445515D01*
X64515Y445515D01*
G37*
%LPD*%
%LPC*%
G36*
X358378Y95580D02*
X358378Y95580D01*
X358660Y97360D01*
X359241Y99148D01*
X360094Y100822D01*
X361199Y102342D01*
X362528Y103671D01*
X364048Y104776D01*
X365722Y105629D01*
X367510Y106210D01*
X369290Y106492D01*
X369290Y95580D01*
X358378Y95580D01*
G37*
%LPD*%
%LPC*%
G36*
X203973Y483615D02*
X203973Y483615D01*
X204255Y485396D01*
X204836Y487183D01*
X205689Y488857D01*
X206794Y490378D01*
X208122Y491706D01*
X209643Y492811D01*
X211317Y493664D01*
X213104Y494245D01*
X214885Y494527D01*
X214885Y483615D01*
X203973Y483615D01*
G37*
%LPD*%
%LPC*%
G36*
X371320Y93550D02*
X371320Y93550D01*
X382232Y93550D01*
X381950Y91769D01*
X381369Y89982D01*
X380516Y88308D01*
X379412Y86787D01*
X378083Y85459D01*
X376562Y84354D01*
X374888Y83501D01*
X373101Y82920D01*
X371320Y82638D01*
X371320Y93550D01*
G37*
%LPD*%
%LPC*%
G36*
X216915Y481585D02*
X216915Y481585D01*
X227827Y481585D01*
X227545Y479804D01*
X226964Y478017D01*
X226111Y476343D01*
X225006Y474822D01*
X223678Y473494D01*
X222157Y472389D01*
X220483Y471536D01*
X218696Y470955D01*
X216915Y470673D01*
X216915Y481585D01*
G37*
%LPD*%
%LPC*%
G36*
X182073Y39115D02*
X182073Y39115D01*
X182355Y40896D01*
X182936Y42683D01*
X183789Y44357D01*
X184894Y45878D01*
X186222Y47206D01*
X187743Y48311D01*
X189417Y49164D01*
X191204Y49745D01*
X192985Y50027D01*
X192985Y39115D01*
X182073Y39115D01*
G37*
%LPD*%
%LPC*%
G36*
X64515Y443485D02*
X64515Y443485D01*
X75427Y443485D01*
X75145Y441704D01*
X74564Y439917D01*
X73711Y438243D01*
X72606Y436722D01*
X71278Y435394D01*
X69757Y434289D01*
X68083Y433436D01*
X66296Y432855D01*
X64515Y432573D01*
X64515Y443485D01*
G37*
%LPD*%
%LPC*%
G36*
X195015Y37085D02*
X195015Y37085D01*
X205927Y37085D01*
X205645Y35304D01*
X205064Y33517D01*
X204211Y31843D01*
X203106Y30322D01*
X201778Y28994D01*
X200257Y27889D01*
X198583Y27036D01*
X196796Y26455D01*
X195015Y26173D01*
X195015Y37085D01*
G37*
%LPD*%
%LPC*%
G36*
X51573Y445515D02*
X51573Y445515D01*
X51855Y447296D01*
X52436Y449083D01*
X53289Y450757D01*
X54394Y452278D01*
X55722Y453606D01*
X57243Y454711D01*
X58917Y455564D01*
X60704Y456145D01*
X62485Y456427D01*
X62485Y445515D01*
X51573Y445515D01*
G37*
%LPD*%
%LPC*%
G36*
X191204Y26455D02*
X191204Y26455D01*
X189417Y27036D01*
X187743Y27889D01*
X186222Y28994D01*
X184894Y30322D01*
X183789Y31843D01*
X182936Y33517D01*
X182355Y35304D01*
X182073Y37085D01*
X192985Y37085D01*
X192985Y26173D01*
X191204Y26455D01*
G37*
%LPD*%
%LPC*%
G36*
X213104Y470955D02*
X213104Y470955D01*
X211317Y471536D01*
X209643Y472389D01*
X208122Y473494D01*
X206794Y474822D01*
X205689Y476343D01*
X204836Y478017D01*
X204255Y479804D01*
X203973Y481585D01*
X214885Y481585D01*
X214885Y470673D01*
X213104Y470955D01*
G37*
%LPD*%
%LPC*%
G36*
X60704Y432855D02*
X60704Y432855D01*
X58917Y433436D01*
X57243Y434289D01*
X55722Y435394D01*
X54394Y436722D01*
X53289Y438243D01*
X52436Y439917D01*
X51855Y441704D01*
X51573Y443485D01*
X62485Y443485D01*
X62485Y432573D01*
X60704Y432855D01*
G37*
%LPD*%
%LPC*%
G36*
X367510Y82920D02*
X367510Y82920D01*
X365722Y83501D01*
X364048Y84354D01*
X362528Y85459D01*
X361199Y86787D01*
X360094Y88308D01*
X359241Y89982D01*
X358660Y91769D01*
X358378Y93550D01*
X369290Y93550D01*
X369290Y82638D01*
X367510Y82920D01*
G37*
%LPD*%
%LPC*%
G36*
X382015Y394915D02*
X382015Y394915D01*
X382015Y404670D01*
X383528Y404430D01*
X385144Y403905D01*
X386658Y403133D01*
X388033Y402135D01*
X389235Y400933D01*
X390233Y399558D01*
X391005Y398044D01*
X391530Y396428D01*
X391770Y394915D01*
X382015Y394915D01*
G37*
%LPD*%
%LPC*%
G36*
X229615Y153615D02*
X229615Y153615D01*
X229615Y163370D01*
X231128Y163130D01*
X232744Y162605D01*
X234258Y161833D01*
X235633Y160835D01*
X236835Y159633D01*
X237833Y158258D01*
X238605Y156744D01*
X239130Y155128D01*
X239370Y153615D01*
X229615Y153615D01*
G37*
%LPD*%
%LPC*%
G36*
X302315Y242515D02*
X302315Y242515D01*
X302315Y252270D01*
X303828Y252030D01*
X305444Y251505D01*
X306958Y250733D01*
X308333Y249735D01*
X309535Y248533D01*
X310533Y247158D01*
X311305Y245644D01*
X311830Y244028D01*
X312070Y242515D01*
X302315Y242515D01*
G37*
%LPD*%
%LPC*%
G36*
X48915Y128015D02*
X48915Y128015D01*
X48915Y137770D01*
X50428Y137530D01*
X52044Y137005D01*
X53558Y136233D01*
X54933Y135235D01*
X56135Y134033D01*
X57133Y132658D01*
X57905Y131144D01*
X58430Y129528D01*
X58670Y128015D01*
X48915Y128015D01*
G37*
%LPD*%
%LPC*%
G36*
X387650Y279244D02*
X387650Y279244D01*
X387650Y288999D01*
X389162Y288759D01*
X390779Y288234D01*
X392293Y287462D01*
X393667Y286464D01*
X394869Y285262D01*
X395868Y283887D01*
X396639Y282373D01*
X397164Y280757D01*
X397404Y279244D01*
X387650Y279244D01*
G37*
%LPD*%
%LPC*%
G36*
X302315Y240485D02*
X302315Y240485D01*
X312070Y240485D01*
X311830Y238972D01*
X311305Y237356D01*
X310533Y235842D01*
X309535Y234467D01*
X308333Y233265D01*
X306958Y232267D01*
X305444Y231495D01*
X303828Y230970D01*
X302315Y230730D01*
X302315Y240485D01*
G37*
%LPD*%
%LPC*%
G36*
X387650Y277214D02*
X387650Y277214D01*
X397404Y277214D01*
X397164Y275701D01*
X396639Y274085D01*
X395868Y272571D01*
X394869Y271196D01*
X393667Y269994D01*
X392293Y268996D01*
X390779Y268224D01*
X389162Y267699D01*
X387650Y267459D01*
X387650Y277214D01*
G37*
%LPD*%
%LPC*%
G36*
X382015Y392885D02*
X382015Y392885D01*
X391770Y392885D01*
X391530Y391372D01*
X391005Y389756D01*
X390233Y388242D01*
X389235Y386867D01*
X388033Y385665D01*
X386658Y384667D01*
X385144Y383895D01*
X383528Y383370D01*
X382015Y383130D01*
X382015Y392885D01*
G37*
%LPD*%
%LPC*%
G36*
X375865Y279244D02*
X375865Y279244D01*
X376104Y280757D01*
X376630Y282373D01*
X377401Y283887D01*
X378400Y285262D01*
X379601Y286464D01*
X380976Y287462D01*
X382490Y288234D01*
X384106Y288759D01*
X385619Y288999D01*
X385619Y279244D01*
X375865Y279244D01*
G37*
%LPD*%
%LPC*%
G36*
X290530Y242515D02*
X290530Y242515D01*
X290770Y244028D01*
X291295Y245644D01*
X292067Y247158D01*
X293065Y248533D01*
X294267Y249735D01*
X295642Y250733D01*
X297156Y251505D01*
X298772Y252030D01*
X300285Y252270D01*
X300285Y242515D01*
X290530Y242515D01*
G37*
%LPD*%
%LPC*%
G36*
X370230Y394915D02*
X370230Y394915D01*
X370470Y396428D01*
X370995Y398044D01*
X371767Y399558D01*
X372765Y400933D01*
X373967Y402135D01*
X375342Y403133D01*
X376856Y403905D01*
X378472Y404430D01*
X379985Y404670D01*
X379985Y394915D01*
X370230Y394915D01*
G37*
%LPD*%
%LPC*%
G36*
X217830Y153615D02*
X217830Y153615D01*
X218070Y155128D01*
X218595Y156744D01*
X219367Y158258D01*
X220365Y159633D01*
X221567Y160835D01*
X222942Y161833D01*
X224456Y162605D01*
X226072Y163130D01*
X227585Y163370D01*
X227585Y153615D01*
X217830Y153615D01*
G37*
%LPD*%
%LPC*%
G36*
X48915Y125985D02*
X48915Y125985D01*
X58670Y125985D01*
X58430Y124472D01*
X57905Y122856D01*
X57133Y121342D01*
X56135Y119967D01*
X54933Y118765D01*
X53558Y117767D01*
X52044Y116995D01*
X50428Y116470D01*
X48915Y116230D01*
X48915Y125985D01*
G37*
%LPD*%
%LPC*%
G36*
X37130Y128015D02*
X37130Y128015D01*
X37370Y129528D01*
X37895Y131144D01*
X38667Y132658D01*
X39665Y134033D01*
X40867Y135235D01*
X42242Y136233D01*
X43756Y137005D01*
X45372Y137530D01*
X46885Y137770D01*
X46885Y128015D01*
X37130Y128015D01*
G37*
%LPD*%
%LPC*%
G36*
X229615Y151585D02*
X229615Y151585D01*
X239370Y151585D01*
X239130Y150072D01*
X238605Y148456D01*
X237833Y146942D01*
X236835Y145567D01*
X235633Y144365D01*
X234258Y143367D01*
X232744Y142595D01*
X231128Y142070D01*
X229615Y141830D01*
X229615Y151585D01*
G37*
%LPD*%
%LPC*%
G36*
X384106Y267699D02*
X384106Y267699D01*
X382490Y268224D01*
X380976Y268996D01*
X379601Y269994D01*
X378400Y271196D01*
X377401Y272571D01*
X376630Y274085D01*
X376104Y275701D01*
X375865Y277214D01*
X385619Y277214D01*
X385619Y267459D01*
X384106Y267699D01*
G37*
%LPD*%
%LPC*%
G36*
X226072Y142070D02*
X226072Y142070D01*
X224456Y142595D01*
X222942Y143367D01*
X221567Y144365D01*
X220365Y145567D01*
X219367Y146942D01*
X218595Y148456D01*
X218070Y150072D01*
X217830Y151585D01*
X227585Y151585D01*
X227585Y141830D01*
X226072Y142070D01*
G37*
%LPD*%
%LPC*%
G36*
X378472Y383370D02*
X378472Y383370D01*
X376856Y383895D01*
X375342Y384667D01*
X373967Y385665D01*
X372765Y386867D01*
X371767Y388242D01*
X370995Y389756D01*
X370470Y391372D01*
X370230Y392885D01*
X379985Y392885D01*
X379985Y383130D01*
X378472Y383370D01*
G37*
%LPD*%
%LPC*%
G36*
X45372Y116470D02*
X45372Y116470D01*
X43756Y116995D01*
X42242Y117767D01*
X40867Y118765D01*
X39665Y119967D01*
X38667Y121342D01*
X37895Y122856D01*
X37370Y124472D01*
X37130Y125985D01*
X46885Y125985D01*
X46885Y116230D01*
X45372Y116470D01*
G37*
%LPD*%
%LPC*%
G36*
X298772Y230970D02*
X298772Y230970D01*
X297156Y231495D01*
X295642Y232267D01*
X294267Y233265D01*
X293065Y234467D01*
X292067Y235842D01*
X291295Y237356D01*
X290770Y238972D01*
X290530Y240485D01*
X300285Y240485D01*
X300285Y230730D01*
X298772Y230970D01*
G37*
%LPD*%
%LPC*%
G36*
X481599Y216299D02*
X481599Y216299D01*
X481599Y216301D01*
X481601Y216301D01*
X481601Y216299D01*
X481599Y216299D01*
G37*
%LPD*%
%LPC*%
G36*
X537999Y317499D02*
X537999Y317499D01*
X537999Y317501D01*
X538001Y317501D01*
X538001Y317499D01*
X537999Y317499D01*
G37*
%LPD*%
%LPC*%
G36*
X370304Y94564D02*
X370304Y94564D01*
X370304Y94566D01*
X370306Y94566D01*
X370306Y94564D01*
X370304Y94564D01*
G37*
%LPD*%
%LPC*%
G36*
X63499Y444499D02*
X63499Y444499D01*
X63499Y444501D01*
X63501Y444501D01*
X63501Y444499D01*
X63499Y444499D01*
G37*
%LPD*%
%LPC*%
G36*
X228599Y152599D02*
X228599Y152599D01*
X228599Y152601D01*
X228601Y152601D01*
X228601Y152599D01*
X228599Y152599D01*
G37*
%LPD*%
%LPC*%
G36*
X186699Y556099D02*
X186699Y556099D01*
X186699Y556101D01*
X186701Y556101D01*
X186701Y556099D01*
X186699Y556099D01*
G37*
%LPD*%
%LPC*%
G36*
X215899Y482599D02*
X215899Y482599D01*
X215899Y482601D01*
X215901Y482601D01*
X215901Y482599D01*
X215899Y482599D01*
G37*
%LPD*%
%LPC*%
G36*
X301299Y241499D02*
X301299Y241499D01*
X301299Y241501D01*
X301301Y241501D01*
X301301Y241499D01*
X301299Y241499D01*
G37*
%LPD*%
%LPC*%
G36*
X47899Y126999D02*
X47899Y126999D01*
X47899Y127001D01*
X47901Y127001D01*
X47901Y126999D01*
X47899Y126999D01*
G37*
%LPD*%
%LPC*%
G36*
X386633Y278228D02*
X386633Y278228D01*
X386633Y278230D01*
X386635Y278230D01*
X386635Y278228D01*
X386633Y278228D01*
G37*
%LPD*%
%LPC*%
G36*
X193999Y38099D02*
X193999Y38099D01*
X193999Y38101D01*
X194001Y38101D01*
X194001Y38099D01*
X193999Y38099D01*
G37*
%LPD*%
%LPC*%
G36*
X380999Y393899D02*
X380999Y393899D01*
X380999Y393901D01*
X381001Y393901D01*
X381001Y393899D01*
X380999Y393899D01*
G37*
%LPD*%
%LPC*%
G36*
X169949Y361399D02*
X169949Y361399D01*
X169949Y361401D01*
X169951Y361401D01*
X169951Y361399D01*
X169949Y361399D01*
G37*
%LPD*%
D10*
X477000Y327500D02*
X477000Y307500D01*
X538000Y307500D02*
X538000Y327500D01*
X518000Y365500D02*
X498000Y365500D01*
D11*
X370305Y69165D03*
X370305Y94565D03*
D12*
X366332Y546106D02*
X351092Y546106D01*
X351092Y500894D02*
X366332Y500894D01*
X301308Y546106D02*
X286068Y546106D01*
X286068Y500894D02*
X301308Y500894D01*
X212100Y548480D02*
X212100Y563720D01*
X186700Y563720D02*
X186700Y548480D01*
X161300Y548480D02*
X161300Y563720D01*
X135900Y563720D02*
X135900Y548480D01*
X110500Y548480D02*
X110500Y563720D01*
X85100Y563720D02*
X85100Y548480D01*
X59700Y548480D02*
X59700Y563720D01*
X532400Y223920D02*
X532400Y208680D01*
X507000Y208680D02*
X507000Y223920D01*
X481600Y223920D02*
X481600Y208680D01*
D13*
X35050Y349750D02*
X35050Y373050D01*
X35050Y349750D02*
X26750Y349750D01*
X26750Y373050D01*
X35050Y373050D01*
X35050Y351365D02*
X26750Y351365D01*
X26750Y352980D02*
X35050Y352980D01*
X35050Y354595D02*
X26750Y354595D01*
X26750Y356210D02*
X35050Y356210D01*
X35050Y357825D02*
X26750Y357825D01*
X26750Y359440D02*
X35050Y359440D01*
X35050Y361055D02*
X26750Y361055D01*
X26750Y362670D02*
X35050Y362670D01*
X35050Y364285D02*
X26750Y364285D01*
X26750Y365900D02*
X35050Y365900D01*
X35050Y367515D02*
X26750Y367515D01*
X26750Y369130D02*
X35050Y369130D01*
X35050Y370745D02*
X26750Y370745D01*
X26750Y372360D02*
X35050Y372360D01*
D14*
X50900Y361400D03*
X70900Y361400D03*
X90900Y361400D03*
X110900Y361400D03*
X130900Y361400D03*
X150900Y361400D03*
X30900Y197400D03*
X50900Y197400D03*
X70900Y197400D03*
X90900Y197400D03*
X110900Y197400D03*
X130900Y197400D03*
X150900Y197400D03*
X169950Y197400D03*
X169950Y361400D03*
D11*
X117800Y38100D03*
X117800Y114300D03*
X155900Y114300D03*
X155900Y38100D03*
X139700Y482600D03*
X139700Y406400D03*
X177800Y482600D03*
X177800Y406400D03*
X215900Y482600D03*
X215900Y406400D03*
X194000Y114300D03*
X194000Y38100D03*
X233570Y39041D03*
X233570Y115241D03*
D15*
X411634Y278229D03*
D16*
X386634Y278229D03*
D15*
X381000Y418900D03*
D16*
X381000Y393900D03*
D15*
X301300Y266500D03*
D16*
X301300Y241500D03*
D15*
X228600Y177600D03*
D16*
X228600Y152600D03*
D15*
X22900Y127000D03*
D16*
X47900Y127000D03*
D11*
X63500Y469900D03*
X63500Y444500D03*
X63500Y419100D03*
D12*
X465930Y416880D02*
X465930Y432120D01*
X493870Y432120D02*
X493870Y416880D01*
D11*
X272055Y113612D03*
X272055Y37412D03*
D17*
X194000Y38100D02*
X155900Y76200D01*
X88900Y76200D01*
X47900Y117200D01*
X47900Y127000D01*
X228600Y152600D02*
X238200Y152600D01*
X301300Y241500D01*
X312270Y152600D02*
X370305Y94565D01*
X312270Y152600D02*
X228600Y152600D01*
D18*
X197400Y361400D02*
X169950Y361400D01*
X197400Y361400D02*
X228600Y330200D01*
D19*
X228600Y330200D03*
X215900Y215900D03*
D18*
X254000Y215900D01*
D19*
X254000Y215900D03*
X330200Y215900D03*
D18*
X349705Y215900D01*
X384403Y250597D01*
X384403Y275997D02*
X386634Y278229D01*
X406800Y216300D02*
X481600Y216300D01*
X406800Y216300D02*
X406400Y215900D01*
X384403Y237897D01*
X384403Y250597D01*
X384403Y275997D01*
D17*
X155900Y38100D02*
X117800Y38100D01*
X301300Y266500D02*
X301300Y493282D01*
X293688Y500894D01*
X273882Y520700D01*
X215900Y520700D02*
X177800Y482600D01*
X215900Y520700D02*
X273882Y520700D01*
X177800Y482600D02*
X139700Y482600D01*
X152400Y520700D02*
X215900Y520700D01*
X152400Y520700D02*
X135900Y537200D01*
X135900Y556100D01*
D18*
X189750Y177600D02*
X228600Y177600D01*
X189750Y177600D02*
X169950Y197400D01*
D17*
X150900Y361400D02*
X150900Y374420D01*
X165100Y388620D01*
X200660Y388620D01*
X215900Y403860D01*
X215900Y406400D01*
X130900Y374740D02*
X130900Y361400D01*
X162560Y406400D02*
X177800Y406400D01*
X162560Y406400D02*
X130900Y374740D01*
X110900Y361400D02*
X110900Y390300D01*
X127000Y406400D01*
X139700Y406400D01*
X127000Y406400D02*
X127000Y457200D01*
X59700Y524500D01*
X59700Y556100D01*
X12700Y379600D02*
X30900Y361400D01*
X12700Y379600D02*
X12700Y558800D01*
X38354Y584454D01*
X75946Y584454D01*
X85100Y575300D02*
X85100Y556100D01*
X85100Y575300D02*
X75946Y584454D01*
X50800Y361500D02*
X50900Y361400D01*
X50800Y361500D02*
X50800Y381000D01*
X25400Y406400D01*
X25400Y546100D01*
D19*
X25400Y546100D03*
D17*
X63500Y469900D02*
X76200Y469900D01*
X88900Y457200D01*
X88900Y406400D01*
X70900Y388400D01*
X70900Y361400D01*
X30900Y197400D02*
X30900Y183300D01*
X22900Y175300D02*
X22900Y127000D01*
X22900Y175300D02*
X30900Y183300D01*
X30900Y197400D02*
X30900Y221400D01*
X38100Y228600D01*
X190500Y228600D01*
X254000Y292100D01*
X254000Y495300D01*
D19*
X254000Y495300D03*
D17*
X117800Y114300D02*
X88900Y114300D01*
X30900Y172300D01*
X30900Y183300D01*
X138120Y132080D02*
X155900Y114300D01*
X138120Y132080D02*
X96520Y132080D01*
X70900Y157700D02*
X70900Y197400D01*
X70900Y157700D02*
X96520Y132080D01*
X90900Y188500D02*
X90900Y197400D01*
X91440Y196860D01*
X91440Y152400D01*
X101600Y142240D01*
X185420Y114300D02*
X194000Y114300D01*
X157480Y142240D02*
X101600Y142240D01*
X157480Y142240D02*
X185420Y114300D01*
D19*
X320040Y187960D03*
D17*
X320040Y467360D01*
X325120Y472440D01*
X325120Y528320D01*
X327660Y530860D01*
X342906Y546106D01*
X358712Y546106D01*
D18*
X293688Y546106D01*
D17*
X110900Y197400D02*
X111760Y196540D01*
X111760Y157480D01*
X116840Y152400D01*
X167640Y152400D01*
X187960Y132080D02*
X203200Y132080D01*
X220040Y115241D02*
X233570Y115241D01*
X187960Y132080D02*
X167640Y152400D01*
X203200Y132080D02*
X220040Y115241D01*
X132080Y196220D02*
X130900Y197400D01*
X132080Y196220D02*
X132080Y172720D01*
X142240Y162560D01*
X187960Y162560D02*
X213360Y137160D01*
X254000Y137160D01*
X272055Y119105D01*
X272055Y113612D01*
X187960Y162560D02*
X142240Y162560D01*
D18*
X507000Y216300D02*
X507000Y242300D01*
X495300Y254000D01*
X435863Y254000D02*
X411634Y278229D01*
X435863Y254000D02*
X495300Y254000D01*
X411634Y278229D02*
X411634Y322734D01*
X493870Y404970D02*
X493870Y424500D01*
X493870Y404970D02*
X411634Y322734D01*
D17*
X418412Y37412D02*
X272055Y37412D01*
X418412Y37412D02*
X533400Y152400D01*
X532400Y153400D01*
X532400Y216300D01*
M02*
