G04 EAGLE Gerber RS-274X export*
G75*
%MOMM*%
%FSLAX34Y34*%
%LPD*%
%INSoldermask Bottom*%
%IPPOS*%
%AMOC8*
5,1,8,0,0,1.08239X$1,22.5*%
G01*
%ADD10R,2.438200X1.422200*%
%ADD11R,2.403200X3.803200*%
%ADD12C,2.203200*%
%ADD13C,1.727200*%
%ADD14C,2.082800*%
%ADD15C,1.930400*%
%ADD16R,1.930400X1.930400*%
%ADD17C,0.959600*%

G36*
X370532Y84413D02*
X370532Y84413D01*
X370604Y84411D01*
X372440Y84616D01*
X372486Y84630D01*
X372561Y84642D01*
X374322Y85202D01*
X374364Y85225D01*
X374436Y85251D01*
X376053Y86144D01*
X376091Y86174D01*
X376156Y86214D01*
X377568Y87405D01*
X377599Y87442D01*
X377655Y87494D01*
X378808Y88938D01*
X378831Y88980D01*
X378875Y89042D01*
X379724Y90683D01*
X379739Y90729D01*
X379770Y90798D01*
X380283Y92573D01*
X380288Y92621D01*
X380306Y92695D01*
X380462Y94536D01*
X380458Y94580D01*
X380462Y94645D01*
X380302Y96476D01*
X380290Y96522D01*
X380279Y96598D01*
X379765Y98362D01*
X379744Y98405D01*
X379719Y98478D01*
X378870Y100108D01*
X378841Y100146D01*
X378802Y100212D01*
X377652Y101645D01*
X377616Y101677D01*
X377565Y101734D01*
X376157Y102915D01*
X376116Y102939D01*
X376055Y102985D01*
X374444Y103869D01*
X374398Y103884D01*
X374329Y103918D01*
X372577Y104470D01*
X372529Y104476D01*
X372455Y104496D01*
X370628Y104695D01*
X370582Y104692D01*
X370513Y104698D01*
X368837Y104575D01*
X368794Y104564D01*
X368728Y104558D01*
X367098Y104146D01*
X367058Y104128D01*
X366994Y104110D01*
X365461Y103422D01*
X365424Y103397D01*
X365364Y103368D01*
X363974Y102424D01*
X363942Y102393D01*
X363888Y102355D01*
X362683Y101184D01*
X362657Y101147D01*
X362610Y101100D01*
X361626Y99738D01*
X361607Y99697D01*
X361570Y99643D01*
X360838Y98130D01*
X360825Y98087D01*
X360798Y98027D01*
X360340Y96410D01*
X360335Y96365D01*
X360319Y96301D01*
X360148Y94629D01*
X360152Y94581D01*
X360148Y94502D01*
X360314Y92830D01*
X360326Y92787D01*
X360335Y92721D01*
X360789Y91104D01*
X360808Y91063D01*
X360828Y91000D01*
X361556Y89486D01*
X361582Y89450D01*
X361613Y89391D01*
X362593Y88026D01*
X362625Y87995D01*
X362665Y87942D01*
X363867Y86768D01*
X363904Y86743D01*
X363953Y86698D01*
X365340Y85751D01*
X365381Y85732D01*
X365437Y85697D01*
X366968Y85005D01*
X367012Y84994D01*
X367073Y84968D01*
X368701Y84553D01*
X368745Y84550D01*
X368810Y84535D01*
X370485Y84408D01*
X370532Y84413D01*
G37*
G36*
X370532Y59013D02*
X370532Y59013D01*
X370604Y59011D01*
X372440Y59216D01*
X372486Y59230D01*
X372561Y59242D01*
X374322Y59802D01*
X374364Y59825D01*
X374436Y59851D01*
X376053Y60744D01*
X376091Y60774D01*
X376156Y60814D01*
X377568Y62005D01*
X377599Y62042D01*
X377655Y62094D01*
X378808Y63538D01*
X378831Y63580D01*
X378875Y63642D01*
X379724Y65283D01*
X379739Y65329D01*
X379770Y65398D01*
X380283Y67173D01*
X380288Y67221D01*
X380306Y67295D01*
X380462Y69136D01*
X380458Y69180D01*
X380462Y69245D01*
X380302Y71076D01*
X380290Y71122D01*
X380279Y71198D01*
X379765Y72962D01*
X379744Y73005D01*
X379719Y73078D01*
X378870Y74708D01*
X378841Y74746D01*
X378802Y74812D01*
X377652Y76245D01*
X377616Y76277D01*
X377565Y76334D01*
X376157Y77515D01*
X376116Y77539D01*
X376055Y77585D01*
X374444Y78469D01*
X374398Y78484D01*
X374329Y78518D01*
X372577Y79070D01*
X372529Y79076D01*
X372455Y79096D01*
X370628Y79295D01*
X370582Y79292D01*
X370513Y79298D01*
X368837Y79175D01*
X368794Y79164D01*
X368728Y79158D01*
X367098Y78746D01*
X367058Y78728D01*
X366994Y78710D01*
X365461Y78022D01*
X365424Y77997D01*
X365364Y77968D01*
X363974Y77024D01*
X363942Y76993D01*
X363888Y76955D01*
X362683Y75784D01*
X362657Y75747D01*
X362610Y75700D01*
X361626Y74338D01*
X361607Y74297D01*
X361570Y74243D01*
X360838Y72730D01*
X360825Y72687D01*
X360798Y72627D01*
X360340Y71010D01*
X360335Y70965D01*
X360319Y70901D01*
X360148Y69229D01*
X360152Y69181D01*
X360148Y69102D01*
X360314Y67430D01*
X360326Y67387D01*
X360335Y67321D01*
X360789Y65704D01*
X360808Y65663D01*
X360828Y65600D01*
X361556Y64086D01*
X361582Y64050D01*
X361613Y63991D01*
X362593Y62626D01*
X362625Y62595D01*
X362665Y62542D01*
X363867Y61368D01*
X363904Y61343D01*
X363953Y61298D01*
X365340Y60351D01*
X365381Y60332D01*
X365437Y60297D01*
X366968Y59605D01*
X367012Y59594D01*
X367073Y59568D01*
X368701Y59153D01*
X368745Y59150D01*
X368810Y59135D01*
X370485Y59008D01*
X370532Y59013D01*
G37*
D10*
X172210Y256290D03*
X172210Y279400D03*
X172210Y302510D03*
D11*
X234190Y279400D03*
D12*
X477000Y307500D02*
X477000Y327500D01*
X538000Y327500D02*
X538000Y307500D01*
X518000Y365500D02*
X498000Y365500D01*
D13*
X366332Y546106D02*
X351092Y546106D01*
X351092Y500894D02*
X366332Y500894D01*
X301308Y546106D02*
X286068Y546106D01*
X286068Y500894D02*
X301308Y500894D01*
X212100Y548480D02*
X212100Y563720D01*
X186700Y563720D02*
X186700Y548480D01*
X161300Y548480D02*
X161300Y563720D01*
X135900Y563720D02*
X135900Y548480D01*
X110500Y548480D02*
X110500Y563720D01*
X85100Y563720D02*
X85100Y548480D01*
X59700Y548480D02*
X59700Y563720D01*
X532400Y223920D02*
X532400Y208680D01*
X507000Y208680D02*
X507000Y223920D01*
X481600Y223920D02*
X481600Y208680D01*
D14*
X117800Y38100D03*
X117800Y114300D03*
X155900Y114300D03*
X155900Y38100D03*
X139700Y482600D03*
X139700Y406400D03*
X177800Y482600D03*
X177800Y406400D03*
X215900Y482600D03*
X215900Y406400D03*
X194000Y114300D03*
X194000Y38100D03*
X233570Y39041D03*
X233570Y115241D03*
D15*
X386634Y278229D03*
D16*
X411634Y278229D03*
D15*
X381000Y393900D03*
D16*
X381000Y418900D03*
D15*
X301300Y241500D03*
D16*
X301300Y266500D03*
D15*
X228600Y152600D03*
D16*
X228600Y177600D03*
D15*
X47900Y127000D03*
D16*
X22900Y127000D03*
D14*
X63500Y469900D03*
X63500Y444500D03*
X63500Y419100D03*
D13*
X465930Y416880D02*
X465930Y432120D01*
X493870Y432120D02*
X493870Y416880D01*
D14*
X272055Y113612D03*
X272055Y37412D03*
D17*
X228600Y330200D03*
X215900Y215900D03*
X254000Y215900D03*
X330200Y215900D03*
X25400Y546100D03*
X254000Y495300D03*
X320040Y187960D03*
M02*
