G04 EAGLE Gerber RS-274X export*
G75*
%MOMM*%
%FSLAX34Y34*%
%LPD*%
%INSolderpaste Top*%
%IPPOS*%
%AMOC8*
5,1,8,0,0,1.08239X$1,22.5*%
G01*
%ADD10C,0.170000*%
%ADD11R,1.000000X2.500000*%


D10*
X35050Y373050D02*
X35050Y349750D01*
X26750Y349750D01*
X26750Y373050D01*
X35050Y373050D01*
X35050Y351365D02*
X26750Y351365D01*
X26750Y352980D02*
X35050Y352980D01*
X35050Y354595D02*
X26750Y354595D01*
X26750Y356210D02*
X35050Y356210D01*
X35050Y357825D02*
X26750Y357825D01*
X26750Y359440D02*
X35050Y359440D01*
X35050Y361055D02*
X26750Y361055D01*
X26750Y362670D02*
X35050Y362670D01*
X35050Y364285D02*
X26750Y364285D01*
X26750Y365900D02*
X35050Y365900D01*
X35050Y367515D02*
X26750Y367515D01*
X26750Y369130D02*
X35050Y369130D01*
X35050Y370745D02*
X26750Y370745D01*
X26750Y372360D02*
X35050Y372360D01*
D11*
X50900Y361400D03*
X70900Y361400D03*
X90900Y361400D03*
X110900Y361400D03*
X130900Y361400D03*
X150900Y361400D03*
X30900Y197400D03*
X50900Y197400D03*
X70900Y197400D03*
X90900Y197400D03*
X110900Y197400D03*
X130900Y197400D03*
X150900Y197400D03*
X169950Y197400D03*
X169950Y361400D03*
M02*
