G04 EAGLE Gerber RS-274X export*
G75*
%MOMM*%
%FSLAX34Y34*%
%LPD*%
%INSoldermask Top*%
%IPPOS*%
%AMOC8*
5,1,8,0,0,1.08239X$1,22.5*%
G01*
%ADD10C,2.203200*%
%ADD11C,1.727200*%
%ADD12C,0.372991*%
%ADD13R,1.203200X2.703200*%
%ADD14C,2.082800*%
%ADD15C,0.711200*%
%ADD16C,0.959600*%

G36*
X370503Y64093D02*
X370503Y64093D01*
X370594Y64092D01*
X371558Y64223D01*
X371606Y64238D01*
X371696Y64258D01*
X372606Y64600D01*
X372650Y64626D01*
X372733Y64665D01*
X373544Y65202D01*
X373581Y65236D01*
X373653Y65293D01*
X374325Y65997D01*
X374353Y66039D01*
X374411Y66110D01*
X374909Y66945D01*
X374910Y66949D01*
X374912Y66951D01*
X374918Y66970D01*
X374927Y66993D01*
X374968Y67075D01*
X375267Y68000D01*
X375274Y68051D01*
X375296Y68140D01*
X375382Y69109D01*
X375378Y69156D01*
X375381Y69231D01*
X375280Y70206D01*
X375266Y70255D01*
X375249Y70345D01*
X374933Y71274D01*
X374909Y71318D01*
X374873Y71403D01*
X374358Y72238D01*
X374324Y72275D01*
X374270Y72350D01*
X373582Y73049D01*
X373541Y73079D01*
X373472Y73139D01*
X372646Y73668D01*
X372599Y73687D01*
X372518Y73731D01*
X371595Y74063D01*
X371545Y74071D01*
X371457Y74095D01*
X370482Y74214D01*
X370433Y74211D01*
X370346Y74215D01*
X369344Y74120D01*
X369295Y74106D01*
X369205Y74090D01*
X368249Y73774D01*
X368205Y73750D01*
X368120Y73714D01*
X367259Y73193D01*
X367221Y73160D01*
X367146Y73107D01*
X366422Y72407D01*
X366393Y72366D01*
X366332Y72297D01*
X365782Y71454D01*
X365762Y71408D01*
X365718Y71327D01*
X365370Y70383D01*
X365361Y70333D01*
X365336Y70245D01*
X365206Y69247D01*
X365208Y69204D01*
X365207Y69078D01*
X365347Y68067D01*
X365362Y68019D01*
X365382Y67929D01*
X365743Y66974D01*
X365769Y66931D01*
X365808Y66847D01*
X366372Y65997D01*
X366407Y65960D01*
X366464Y65888D01*
X367204Y65184D01*
X367246Y65156D01*
X367317Y65098D01*
X368195Y64577D01*
X368242Y64559D01*
X368324Y64518D01*
X369296Y64205D01*
X369346Y64198D01*
X369436Y64177D01*
X370453Y64088D01*
X370503Y64093D01*
G37*
G36*
X370503Y89493D02*
X370503Y89493D01*
X370594Y89492D01*
X371558Y89623D01*
X371606Y89638D01*
X371696Y89658D01*
X372606Y90000D01*
X372650Y90026D01*
X372733Y90065D01*
X373544Y90602D01*
X373581Y90636D01*
X373653Y90693D01*
X374325Y91397D01*
X374353Y91439D01*
X374411Y91510D01*
X374909Y92345D01*
X374910Y92349D01*
X374912Y92351D01*
X374918Y92371D01*
X374927Y92393D01*
X374968Y92475D01*
X375267Y93400D01*
X375274Y93451D01*
X375296Y93540D01*
X375382Y94509D01*
X375378Y94556D01*
X375381Y94631D01*
X375280Y95606D01*
X375266Y95655D01*
X375249Y95745D01*
X374933Y96674D01*
X374909Y96718D01*
X374873Y96803D01*
X374358Y97638D01*
X374324Y97675D01*
X374270Y97750D01*
X373582Y98449D01*
X373541Y98479D01*
X373472Y98539D01*
X372646Y99068D01*
X372599Y99087D01*
X372518Y99131D01*
X371595Y99463D01*
X371545Y99471D01*
X371457Y99495D01*
X370482Y99614D01*
X370433Y99611D01*
X370346Y99615D01*
X369344Y99520D01*
X369295Y99506D01*
X369205Y99490D01*
X368249Y99174D01*
X368205Y99150D01*
X368120Y99114D01*
X367259Y98593D01*
X367221Y98560D01*
X367146Y98507D01*
X366422Y97807D01*
X366393Y97766D01*
X366332Y97697D01*
X365782Y96854D01*
X365762Y96808D01*
X365718Y96727D01*
X365370Y95783D01*
X365361Y95733D01*
X365336Y95645D01*
X365206Y94647D01*
X365208Y94604D01*
X365207Y94478D01*
X365347Y93467D01*
X365362Y93419D01*
X365382Y93329D01*
X365743Y92374D01*
X365769Y92331D01*
X365808Y92247D01*
X366372Y91397D01*
X366407Y91360D01*
X366464Y91288D01*
X367204Y90584D01*
X367246Y90556D01*
X367317Y90498D01*
X368195Y89977D01*
X368242Y89959D01*
X368324Y89918D01*
X369296Y89605D01*
X369346Y89598D01*
X369436Y89577D01*
X370453Y89488D01*
X370503Y89493D01*
G37*
D10*
X477000Y327500D02*
X477000Y307500D01*
X538000Y307500D02*
X538000Y327500D01*
X518000Y365500D02*
X498000Y365500D01*
D11*
X366332Y546106D02*
X351092Y546106D01*
X351092Y500894D02*
X366332Y500894D01*
X301308Y546106D02*
X286068Y546106D01*
X286068Y500894D02*
X301308Y500894D01*
X212100Y548480D02*
X212100Y563720D01*
X186700Y563720D02*
X186700Y548480D01*
X161300Y548480D02*
X161300Y563720D01*
X135900Y563720D02*
X135900Y548480D01*
X110500Y548480D02*
X110500Y563720D01*
X85100Y563720D02*
X85100Y548480D01*
X59700Y548480D02*
X59700Y563720D01*
X532400Y223920D02*
X532400Y208680D01*
X507000Y208680D02*
X507000Y223920D01*
X481600Y223920D02*
X481600Y208680D01*
D12*
X35051Y349749D02*
X35051Y373051D01*
X35051Y349749D02*
X26749Y349749D01*
X26749Y373051D01*
X35051Y373051D01*
X35051Y353292D02*
X26749Y353292D01*
X26749Y356835D02*
X35051Y356835D01*
X35051Y360378D02*
X26749Y360378D01*
X26749Y363921D02*
X35051Y363921D01*
X35051Y367464D02*
X26749Y367464D01*
X26749Y371007D02*
X35051Y371007D01*
D13*
X50900Y361400D03*
X70900Y361400D03*
X90900Y361400D03*
X110900Y361400D03*
X130900Y361400D03*
X150900Y361400D03*
X30900Y197400D03*
X50900Y197400D03*
X70900Y197400D03*
X90900Y197400D03*
X110900Y197400D03*
X130900Y197400D03*
X150900Y197400D03*
X169950Y197400D03*
X169950Y361400D03*
D14*
X117800Y38100D03*
X117800Y114300D03*
X155900Y114300D03*
X155900Y38100D03*
X139700Y482600D03*
X139700Y406400D03*
X177800Y482600D03*
X177800Y406400D03*
X215900Y482600D03*
X215900Y406400D03*
X194000Y114300D03*
X194000Y38100D03*
X233570Y39041D03*
X233570Y115241D03*
D15*
X386634Y278229D03*
X411634Y278229D03*
X381000Y393900D03*
X381000Y418900D03*
X301300Y241500D03*
X301300Y266500D03*
X228600Y152600D03*
X228600Y177600D03*
X47900Y127000D03*
X22900Y127000D03*
D14*
X63500Y469900D03*
X63500Y444500D03*
X63500Y419100D03*
D11*
X465930Y416880D02*
X465930Y432120D01*
X493870Y432120D02*
X493870Y416880D01*
D14*
X272055Y113612D03*
X272055Y37412D03*
D16*
X228600Y330200D03*
X215900Y215900D03*
X254000Y215900D03*
X330200Y215900D03*
X25400Y546100D03*
X254000Y495300D03*
X320040Y187960D03*
M02*
