<svg xmlns="http://www.w3.org/2000/svg" viewBox="0 0 400 400"><path d="M0 199.7C0 309.5 0.2 399.4 0.5 399.4 0.7 399.4 36.7 363.6 80.4 319.9L159.9 240.5 233.3 274.3C273.6 293 306.7 308.1 306.8 308 307 307.9 292.3 275.5 274.3 236 256.2 196.5 241.3 163.8 241.2 163.3 240.9 162.5 330.8 70.2 392.3 8.1L400.3 0 200.1 0 0 0 0 199.7M367.2 24C357.8 33.6 324.8 67.1 293.9 98.7 258.4 134.9 237.3 155.9 236.8 155.7 236 155.4 24 12.3 18.7 8.5L16.3 6.7 200.3 6.7 384.3 6.7 367.2 24M80.2 126.6C120.1 186.7 152.9 236.1 153.1 236.4 153.3 236.8 120.4 270.1 80.1 310.4L6.7 383.8 6.7 200C6.7 93.5 7 16.5 7.3 16.9 7.6 17.2 40.4 66.6 80.2 126.6M148.6 104.4L232.7 161.3 249.7 198.5C259.1 219 271.9 247.1 278.2 260.9L289.7 285.9 221.2 217.1C183.5 179.3 124.4 120 89.9 85.4L27.2 22.5 45.9 35C56.1 41.9 102.4 73.2 148.6 104.4M239.7 245.5C265.4 271.2 283.9 290.3 282.9 289.8 281.9 289.4 253.5 276.3 219.9 260.8L158.7 232.6 101.1 145.8C69.4 98.1 38.7 51.9 33 43.1L22.5 27.2 108.6 113.8C156 161.4 215 220.6 239.7 245.5"/></svg>